%TF.GenerationSoftware,KiCad,Pcbnew,9.0.4*%
%TF.CreationDate,2025-09-14T15:15:16-04:00*%
%TF.ProjectId,Mench Reloaded,4d656e63-6820-4526-956c-6f616465642e,rev?*%
%TF.SameCoordinates,Original*%
%TF.FileFunction,Copper,L1,Top*%
%TF.FilePolarity,Positive*%
%FSLAX46Y46*%
G04 Gerber Fmt 4.6, Leading zero omitted, Abs format (unit mm)*
G04 Created by KiCad (PCBNEW 9.0.4) date 2025-09-14 15:15:16*
%MOMM*%
%LPD*%
G01*
G04 APERTURE LIST*
G04 Aperture macros list*
%AMRoundRect*
0 Rectangle with rounded corners*
0 $1 Rounding radius*
0 $2 $3 $4 $5 $6 $7 $8 $9 X,Y pos of 4 corners*
0 Add a 4 corners polygon primitive as box body*
4,1,4,$2,$3,$4,$5,$6,$7,$8,$9,$2,$3,0*
0 Add four circle primitives for the rounded corners*
1,1,$1+$1,$2,$3*
1,1,$1+$1,$4,$5*
1,1,$1+$1,$6,$7*
1,1,$1+$1,$8,$9*
0 Add four rect primitives between the rounded corners*
20,1,$1+$1,$2,$3,$4,$5,0*
20,1,$1+$1,$4,$5,$6,$7,0*
20,1,$1+$1,$6,$7,$8,$9,0*
20,1,$1+$1,$8,$9,$2,$3,0*%
G04 Aperture macros list end*
%TA.AperFunction,SMDPad,CuDef*%
%ADD10RoundRect,0.250000X0.350000X0.450000X-0.350000X0.450000X-0.350000X-0.450000X0.350000X-0.450000X0*%
%TD*%
%TA.AperFunction,SMDPad,CuDef*%
%ADD11RoundRect,0.250000X-0.337500X-0.475000X0.337500X-0.475000X0.337500X0.475000X-0.337500X0.475000X0*%
%TD*%
%TA.AperFunction,ComponentPad*%
%ADD12R,1.700000X1.700000*%
%TD*%
%TA.AperFunction,ComponentPad*%
%ADD13C,1.700000*%
%TD*%
%TA.AperFunction,SMDPad,CuDef*%
%ADD14RoundRect,0.250000X-0.450000X0.325000X-0.450000X-0.325000X0.450000X-0.325000X0.450000X0.325000X0*%
%TD*%
%TA.AperFunction,SMDPad,CuDef*%
%ADD15RoundRect,0.250000X0.325000X0.450000X-0.325000X0.450000X-0.325000X-0.450000X0.325000X-0.450000X0*%
%TD*%
%TA.AperFunction,SMDPad,CuDef*%
%ADD16RoundRect,0.250000X0.450000X-0.350000X0.450000X0.350000X-0.450000X0.350000X-0.450000X-0.350000X0*%
%TD*%
%TA.AperFunction,SMDPad,CuDef*%
%ADD17RoundRect,0.250000X-0.475000X0.337500X-0.475000X-0.337500X0.475000X-0.337500X0.475000X0.337500X0*%
%TD*%
%TA.AperFunction,SMDPad,CuDef*%
%ADD18RoundRect,0.250000X-0.350000X0.850000X-0.350000X-0.850000X0.350000X-0.850000X0.350000X0.850000X0*%
%TD*%
%TA.AperFunction,SMDPad,CuDef*%
%ADD19RoundRect,0.249997X-2.650003X2.950003X-2.650003X-2.950003X2.650003X-2.950003X2.650003X2.950003X0*%
%TD*%
%TA.AperFunction,SMDPad,CuDef*%
%ADD20RoundRect,0.250000X0.450000X-0.325000X0.450000X0.325000X-0.450000X0.325000X-0.450000X-0.325000X0*%
%TD*%
%TA.AperFunction,SMDPad,CuDef*%
%ADD21RoundRect,0.250000X-0.450000X0.350000X-0.450000X-0.350000X0.450000X-0.350000X0.450000X0.350000X0*%
%TD*%
%TA.AperFunction,ComponentPad*%
%ADD22RoundRect,0.250000X0.550000X-0.550000X0.550000X0.550000X-0.550000X0.550000X-0.550000X-0.550000X0*%
%TD*%
%TA.AperFunction,ComponentPad*%
%ADD23C,1.600000*%
%TD*%
%TA.AperFunction,ComponentPad*%
%ADD24R,3.500000X3.500000*%
%TD*%
%TA.AperFunction,ComponentPad*%
%ADD25RoundRect,0.750000X-1.000000X0.750000X-1.000000X-0.750000X1.000000X-0.750000X1.000000X0.750000X0*%
%TD*%
%TA.AperFunction,ComponentPad*%
%ADD26RoundRect,0.875000X-0.875000X0.875000X-0.875000X-0.875000X0.875000X-0.875000X0.875000X0.875000X0*%
%TD*%
%TA.AperFunction,SMDPad,CuDef*%
%ADD27RoundRect,0.100000X0.100000X-1.150000X0.100000X1.150000X-0.100000X1.150000X-0.100000X-1.150000X0*%
%TD*%
%TA.AperFunction,SMDPad,CuDef*%
%ADD28RoundRect,0.100000X1.150000X-0.100000X1.150000X0.100000X-1.150000X0.100000X-1.150000X-0.100000X0*%
%TD*%
%TA.AperFunction,ComponentPad*%
%ADD29C,2.000000*%
%TD*%
%TA.AperFunction,SMDPad,CuDef*%
%ADD30RoundRect,0.250000X-0.350000X-0.450000X0.350000X-0.450000X0.350000X0.450000X-0.350000X0.450000X0*%
%TD*%
%TA.AperFunction,ComponentPad*%
%ADD31C,1.000000*%
%TD*%
%TA.AperFunction,ComponentPad*%
%ADD32RoundRect,0.250000X-0.550000X-0.550000X0.550000X-0.550000X0.550000X0.550000X-0.550000X0.550000X0*%
%TD*%
%TA.AperFunction,SMDPad,CuDef*%
%ADD33RoundRect,0.250000X0.475000X-0.337500X0.475000X0.337500X-0.475000X0.337500X-0.475000X-0.337500X0*%
%TD*%
%TA.AperFunction,ComponentPad*%
%ADD34C,1.500000*%
%TD*%
%TA.AperFunction,ComponentPad*%
%ADD35R,1.600000X1.600000*%
%TD*%
%TA.AperFunction,ComponentPad*%
%ADD36RoundRect,0.250000X0.550000X0.550000X-0.550000X0.550000X-0.550000X-0.550000X0.550000X-0.550000X0*%
%TD*%
%TA.AperFunction,SMDPad,CuDef*%
%ADD37RoundRect,0.250000X0.337500X0.475000X-0.337500X0.475000X-0.337500X-0.475000X0.337500X-0.475000X0*%
%TD*%
%TA.AperFunction,ComponentPad*%
%ADD38O,1.320800X2.641600*%
%TD*%
%TA.AperFunction,SMDPad,CuDef*%
%ADD39RoundRect,0.150000X0.150000X-0.825000X0.150000X0.825000X-0.150000X0.825000X-0.150000X-0.825000X0*%
%TD*%
%TA.AperFunction,ComponentPad*%
%ADD40RoundRect,0.249999X-0.850001X-0.850001X0.850001X-0.850001X0.850001X0.850001X-0.850001X0.850001X0*%
%TD*%
%TA.AperFunction,ComponentPad*%
%ADD41C,2.200000*%
%TD*%
%TA.AperFunction,ViaPad*%
%ADD42C,0.800000*%
%TD*%
%TA.AperFunction,ViaPad*%
%ADD43C,0.600000*%
%TD*%
%TA.AperFunction,Conductor*%
%ADD44C,0.200000*%
%TD*%
%TA.AperFunction,Conductor*%
%ADD45C,0.400000*%
%TD*%
%TA.AperFunction,Conductor*%
%ADD46C,0.500000*%
%TD*%
%TA.AperFunction,Conductor*%
%ADD47C,0.250000*%
%TD*%
%TA.AperFunction,Conductor*%
%ADD48C,1.000000*%
%TD*%
G04 APERTURE END LIST*
D10*
%TO.P,R1,1*%
%TO.N,RESB*%
X61000000Y-80000000D03*
%TO.P,R1,2*%
%TO.N,+5V*%
X59000000Y-80000000D03*
%TD*%
D11*
%TO.P,C13,1*%
%TO.N,+5V*%
X118712500Y-98000000D03*
%TO.P,C13,2*%
%TO.N,GND*%
X120787500Y-98000000D03*
%TD*%
D12*
%TO.P,J9,1,Pin_1*%
%TO.N,+5V*%
X58000000Y-74500000D03*
D13*
%TO.P,J9,2,Pin_2*%
%TO.N,Net-(J9-Pin_2)*%
X60540000Y-74500000D03*
%TO.P,J9,3,Pin_3*%
%TO.N,MEMWEB*%
X63080000Y-74500000D03*
%TD*%
D14*
%TO.P,D2,1,K*%
%TO.N,Net-(D2-K)*%
X77250000Y-109725000D03*
%TO.P,D2,2,A*%
%TO.N,+5V*%
X77250000Y-111775000D03*
%TD*%
D15*
%TO.P,D5,1,K*%
%TO.N,GND*%
X149550000Y-72250000D03*
%TO.P,D5,2,A*%
%TO.N,Net-(D5-A)*%
X147500000Y-72250000D03*
%TD*%
D12*
%TO.P,J1,1,Pin_1*%
%TO.N,+5V*%
X128000000Y-49500000D03*
D13*
%TO.P,J1,2,Pin_2*%
%TO.N,GND*%
X128000000Y-52040000D03*
%TO.P,J1,3,Pin_3*%
%TO.N,d0*%
X125460000Y-49500000D03*
%TO.P,J1,4,Pin_4*%
%TO.N,d1*%
X125460000Y-52040000D03*
%TO.P,J1,5,Pin_5*%
%TO.N,d2*%
X122920000Y-49500000D03*
%TO.P,J1,6,Pin_6*%
%TO.N,d3*%
X122920000Y-52040000D03*
%TO.P,J1,7,Pin_7*%
%TO.N,d4*%
X120380000Y-49500000D03*
%TO.P,J1,8,Pin_8*%
%TO.N,d5*%
X120380000Y-52040000D03*
%TO.P,J1,9,Pin_9*%
%TO.N,d6*%
X117840000Y-49500000D03*
%TO.P,J1,10,Pin_10*%
%TO.N,d7*%
X117840000Y-52040000D03*
%TO.P,J1,11,Pin_11*%
%TO.N,a0*%
X115300000Y-49500000D03*
%TO.P,J1,12,Pin_12*%
%TO.N,a1*%
X115300000Y-52040000D03*
%TO.P,J1,13,Pin_13*%
%TO.N,a2*%
X112760000Y-49500000D03*
%TO.P,J1,14,Pin_14*%
%TO.N,a3*%
X112760000Y-52040000D03*
%TO.P,J1,15,Pin_15*%
%TO.N,a4*%
X110220000Y-49500000D03*
%TO.P,J1,16,Pin_16*%
%TO.N,a5*%
X110220000Y-52040000D03*
%TO.P,J1,17,Pin_17*%
%TO.N,a6*%
X107680000Y-49500000D03*
%TO.P,J1,18,Pin_18*%
%TO.N,a7*%
X107680000Y-52040000D03*
%TO.P,J1,19,Pin_19*%
%TO.N,a8*%
X105140000Y-49500000D03*
%TO.P,J1,20,Pin_20*%
%TO.N,a9*%
X105140000Y-52040000D03*
%TO.P,J1,21,Pin_21*%
%TO.N,a10*%
X102600000Y-49500000D03*
%TO.P,J1,22,Pin_22*%
%TO.N,a11*%
X102600000Y-52040000D03*
%TO.P,J1,23,Pin_23*%
%TO.N,a12*%
X100060000Y-49500000D03*
%TO.P,J1,24,Pin_24*%
%TO.N,a13*%
X100060000Y-52040000D03*
%TO.P,J1,25,Pin_25*%
%TO.N,a14*%
X97520000Y-49500000D03*
%TO.P,J1,26,Pin_26*%
%TO.N,a15*%
X97520000Y-52040000D03*
%TO.P,J1,27,Pin_27*%
%TO.N,a16*%
X94980000Y-49500000D03*
%TO.P,J1,28,Pin_28*%
%TO.N,a17*%
X94980000Y-52040000D03*
%TO.P,J1,29,Pin_29*%
%TO.N,a18*%
X92440000Y-49500000D03*
%TO.P,J1,30,Pin_30*%
%TO.N,a19*%
X92440000Y-52040000D03*
%TO.P,J1,31,Pin_31*%
%TO.N,a20*%
X89900000Y-49500000D03*
%TO.P,J1,32,Pin_32*%
%TO.N,a21*%
X89900000Y-52040000D03*
%TO.P,J1,33,Pin_33*%
%TO.N,a22*%
X87360000Y-49500000D03*
%TO.P,J1,34,Pin_34*%
%TO.N,a23*%
X87360000Y-52040000D03*
%TO.P,J1,35,Pin_35*%
%TO.N,csb0*%
X84820000Y-49500000D03*
%TO.P,J1,36,Pin_36*%
%TO.N,csb1*%
X84820000Y-52040000D03*
%TO.P,J1,37,Pin_37*%
%TO.N,csb5*%
X82280000Y-49500000D03*
%TO.P,J1,38,Pin_38*%
%TO.N,csb6*%
X82280000Y-52040000D03*
%TO.P,J1,39,Pin_39*%
%TO.N,csb7*%
X79740000Y-49500000D03*
%TO.P,J1,40,Pin_40*%
%TO.N,IRQB*%
X79740000Y-52040000D03*
%TO.P,J1,41,Pin_41*%
%TO.N,NMIB*%
X77200000Y-49500000D03*
%TO.P,J1,42,Pin_42*%
%TO.N,RESB*%
X77200000Y-52040000D03*
%TO.P,J1,43,Pin_43*%
%TO.N,CLKOB*%
X74660000Y-49500000D03*
%TO.P,J1,44,Pin_44*%
%TO.N,FCLKOB*%
X74660000Y-52040000D03*
%TO.P,J1,45,Pin_45*%
%TO.N,RUN*%
X72120000Y-49500000D03*
%TO.P,J1,46,Pin_46*%
%TO.N,BE*%
X72120000Y-52040000D03*
%TO.P,J1,47,Pin_47*%
%TO.N,WEB*%
X69580000Y-49500000D03*
%TO.P,J1,48,Pin_48*%
%TO.N,PHI2*%
X69580000Y-52040000D03*
%TO.P,J1,49,Pin_49*%
%TO.N,GND*%
X67040000Y-49500000D03*
%TO.P,J1,50,Pin_50*%
%TO.N,+5V*%
X67040000Y-52040000D03*
%TD*%
D16*
%TO.P,R6,1*%
%TO.N,csb1*%
X126250000Y-94750000D03*
%TO.P,R6,2*%
%TO.N,Net-(D1-K)*%
X126250000Y-92750000D03*
%TD*%
D17*
%TO.P,C11,1*%
%TO.N,+5V*%
X77250000Y-69212500D03*
%TO.P,C11,2*%
%TO.N,GND*%
X77250000Y-71287500D03*
%TD*%
D18*
%TO.P,U4,1,GND*%
%TO.N,GND*%
X142780000Y-63525000D03*
%TO.P,U4,2,VO*%
%TO.N,Net-(J11-Pin_3)*%
X140500000Y-63525000D03*
D19*
X140500000Y-69825000D03*
D18*
%TO.P,U4,3,VI*%
%TO.N,Net-(U4-VI)*%
X138220000Y-63525000D03*
%TD*%
D20*
%TO.P,D1,1,K*%
%TO.N,Net-(D1-K)*%
X126250000Y-90000000D03*
%TO.P,D1,2,A*%
%TO.N,+5V*%
X126250000Y-87950000D03*
%TD*%
D12*
%TO.P,J14,1,Pin_1*%
%TO.N,GND*%
X150790000Y-107540000D03*
D13*
%TO.P,J14,2,Pin_2*%
X148250000Y-107540000D03*
%TO.P,J14,3,Pin_3*%
%TO.N,Net-(J14-Pin_3)*%
X150790000Y-105000000D03*
%TO.P,J14,4,Pin_4*%
%TO.N,Net-(J14-Pin_4)*%
X148250000Y-105000000D03*
%TO.P,J14,5,Pin_5*%
%TO.N,Net-(J14-Pin_5)*%
X150790000Y-102460000D03*
%TO.P,J14,6,Pin_6*%
%TO.N,Net-(J14-Pin_6)*%
X148250000Y-102460000D03*
%TO.P,J14,7,Pin_7*%
%TO.N,Net-(J14-Pin_7)*%
X150790000Y-99920000D03*
%TO.P,J14,8,Pin_8*%
%TO.N,Net-(J14-Pin_8)*%
X148250000Y-99920000D03*
%TO.P,J14,9,Pin_9*%
%TO.N,Net-(J14-Pin_9)*%
X150790000Y-97380000D03*
%TO.P,J14,10,Pin_10*%
%TO.N,Net-(J14-Pin_10)*%
X148250000Y-97380000D03*
%TO.P,J14,11,Pin_11*%
%TO.N,Net-(J14-Pin_11)*%
X150790000Y-94840000D03*
%TO.P,J14,12,Pin_12*%
%TO.N,Net-(J14-Pin_12)*%
X148250000Y-94840000D03*
%TO.P,J14,13,Pin_13*%
%TO.N,+5V*%
X150790000Y-92300000D03*
%TO.P,J14,14,Pin_14*%
X148250000Y-92300000D03*
%TD*%
D21*
%TO.P,R2,1*%
%TO.N,Net-(C3-Pad1)*%
X112500000Y-118000000D03*
%TO.P,R2,2*%
%TO.N,Net-(U1-CLK)*%
X112500000Y-120000000D03*
%TD*%
D17*
%TO.P,C8,1*%
%TO.N,+5V*%
X77250000Y-115175000D03*
%TO.P,C8,2*%
%TO.N,GND*%
X77250000Y-117250000D03*
%TD*%
D21*
%TO.P,R8,1*%
%TO.N,csb4*%
X126250000Y-77500000D03*
%TO.P,R8,2*%
%TO.N,Net-(D3-K)*%
X126250000Y-79500000D03*
%TD*%
D11*
%TO.P,C5,1*%
%TO.N,+5V*%
X91425000Y-129000000D03*
%TO.P,C5,2*%
%TO.N,GND*%
X93500000Y-129000000D03*
%TD*%
D22*
%TO.P,U2,1,NC*%
%TO.N,a17_Select*%
X80000000Y-73645439D03*
D23*
%TO.P,U2,2,A16*%
%TO.N,a16*%
X82540000Y-73645439D03*
%TO.P,U2,3,A14*%
%TO.N,a14*%
X85080000Y-73645439D03*
%TO.P,U2,4,A12*%
%TO.N,a12*%
X87620000Y-73645439D03*
%TO.P,U2,5,A7*%
%TO.N,a7*%
X90160000Y-73645439D03*
%TO.P,U2,6,A6*%
%TO.N,a6*%
X92700000Y-73645439D03*
%TO.P,U2,7,A5*%
%TO.N,a5*%
X95240000Y-73645439D03*
%TO.P,U2,8,A4*%
%TO.N,a4*%
X97780000Y-73645439D03*
%TO.P,U2,9,A3*%
%TO.N,a3*%
X100320000Y-73645439D03*
%TO.P,U2,10,A2*%
%TO.N,a2*%
X102860000Y-73645439D03*
%TO.P,U2,11,A1*%
%TO.N,a1*%
X105400000Y-73645439D03*
%TO.P,U2,12,A0*%
%TO.N,a0*%
X107940000Y-73645439D03*
%TO.P,U2,13,Q0*%
%TO.N,d0*%
X110480000Y-73645439D03*
%TO.P,U2,14,Q1*%
%TO.N,d1*%
X113020000Y-73645439D03*
%TO.P,U2,15,Q2*%
%TO.N,d2*%
X115560000Y-73645439D03*
%TO.P,U2,16,GND*%
%TO.N,GND*%
X118100000Y-73645439D03*
%TO.P,U2,17,Q3*%
%TO.N,d3*%
X118100000Y-58405439D03*
%TO.P,U2,18,Q4*%
%TO.N,d4*%
X115560000Y-58405439D03*
%TO.P,U2,19,Q5*%
%TO.N,d5*%
X113020000Y-58405439D03*
%TO.P,U2,20,Q6*%
%TO.N,d6*%
X110480000Y-58405439D03*
%TO.P,U2,21,Q7*%
%TO.N,d7*%
X107940000Y-58405439D03*
%TO.P,U2,22,~{CS1}*%
%TO.N,MEMCS1B*%
X105400000Y-58405439D03*
%TO.P,U2,23,A10*%
%TO.N,a10*%
X102860000Y-58405439D03*
%TO.P,U2,24,~{OE}*%
%TO.N,MEMOEB*%
X100320000Y-58405439D03*
%TO.P,U2,25,A11*%
%TO.N,a11*%
X97780000Y-58405439D03*
%TO.P,U2,26,A9*%
%TO.N,a9*%
X95240000Y-58405439D03*
%TO.P,U2,27,A8*%
%TO.N,a8*%
X92700000Y-58405439D03*
%TO.P,U2,28,A13*%
%TO.N,a13*%
X90160000Y-58405439D03*
%TO.P,U2,29,~{WE}*%
%TO.N,MEMWEB*%
X87620000Y-58405439D03*
%TO.P,U2,30,CS2*%
%TO.N,MEMCS2*%
X85080000Y-58405439D03*
%TO.P,U2,31,A15*%
%TO.N,a15*%
X82540000Y-58405439D03*
%TO.P,U2,32,VCC*%
%TO.N,+5V*%
X80000000Y-58405439D03*
%TD*%
D17*
%TO.P,C3,1*%
%TO.N,Net-(C3-Pad1)*%
X119500000Y-121712500D03*
%TO.P,C3,2*%
%TO.N,GND*%
X119500000Y-123787500D03*
%TD*%
%TO.P,C4,1*%
%TO.N,Net-(C4-Pad1)*%
X107500000Y-129712500D03*
%TO.P,C4,2*%
%TO.N,GND*%
X107500000Y-131787500D03*
%TD*%
D24*
%TO.P,J8,1*%
%TO.N,Net-(U4-VI)*%
X140657500Y-59340000D03*
D25*
%TO.P,J8,2*%
%TO.N,GND*%
X140657500Y-53340000D03*
D26*
%TO.P,J8,3*%
X135957500Y-56340000D03*
%TD*%
D12*
%TO.P,J2,1,Pin_1*%
%TO.N,+5V*%
X60000000Y-105000000D03*
D13*
%TO.P,J2,2,Pin_2*%
%TO.N,TG0*%
X60000000Y-107540000D03*
%TO.P,J2,3,Pin_3*%
%TO.N,GND*%
X60000000Y-110080000D03*
%TO.P,J2,4,Pin_4*%
%TO.N,TG1*%
X60000000Y-112620000D03*
%TD*%
D14*
%TO.P,D4,1,K*%
%TO.N,Net-(D4-K)*%
X126250000Y-67975000D03*
%TO.P,D4,2,A*%
%TO.N,+5V*%
X126250000Y-70025000D03*
%TD*%
D27*
%TO.P,U1,1,nc*%
%TO.N,unconnected-(U1-nc-Pad1)*%
X83470000Y-125460000D03*
%TO.P,U1,2,nc*%
%TO.N,unconnected-(U1-nc-Pad2)*%
X84120000Y-125460000D03*
%TO.P,U1,3,nc*%
%TO.N,unconnected-(U1-nc-Pad3)*%
X84770000Y-125460000D03*
%TO.P,U1,4,nc*%
%TO.N,unconnected-(U1-nc-Pad4)*%
X85420000Y-125460000D03*
%TO.P,U1,5,P45/PIRS0*%
%TO.N,PIRS0*%
X86070000Y-125460000D03*
%TO.P,U1,6,P46/PIRS1*%
%TO.N,PIRS1*%
X86720000Y-125460000D03*
%TO.P,U1,7,P47/PIRS2*%
%TO.N,PIRS2*%
X87370000Y-125460000D03*
%TO.P,U1,8,P50/PID0*%
%TO.N,DTRB0*%
X88020000Y-125460000D03*
%TO.P,U1,9,P51/PID1*%
%TO.N,DSRB0*%
X88670000Y-125460000D03*
%TO.P,U1,10,P52/PID2*%
%TO.N,DTRB1*%
X89320000Y-125460000D03*
%TO.P,U1,11,P53/PID3*%
%TO.N,DSRB1*%
X89970000Y-125460000D03*
%TO.P,U1,12,P54/PID4*%
%TO.N,DTRB2*%
X90620000Y-125460000D03*
%TO.P,U1,13,P55/PID5*%
%TO.N,DSRB2*%
X91270000Y-125460000D03*
%TO.P,U1,14,VDD*%
%TO.N,+5V*%
X91920000Y-125460000D03*
%TO.P,U1,15,VSS*%
%TO.N,GND*%
X92570000Y-125460000D03*
%TO.P,U1,16,P56/PE56/PID6*%
%TO.N,DTRB3*%
X93220000Y-125460000D03*
%TO.P,U1,17,P57/NE57/PID7*%
%TO.N,DSRB3*%
X93870000Y-125460000D03*
%TO.P,U1,18,P60/RXD0/TIN/PE60*%
%TO.N,RXD0*%
X94520000Y-125460000D03*
%TO.P,U1,19,P61/TXD0/TOUT*%
%TO.N,TXD0*%
X95170000Y-125460000D03*
%TO.P,U1,20,P62/RXD1/PWM*%
%TO.N,RXD1*%
X95820000Y-125460000D03*
%TO.P,U1,21,P63/TXD1*%
%TO.N,TXD1*%
X96470000Y-125460000D03*
%TO.P,U1,22,P64/RXD2/NE64*%
%TO.N,RXD2*%
X97120000Y-125460000D03*
%TO.P,U1,23,P65/TXD2*%
%TO.N,TXD2*%
X97770000Y-125460000D03*
%TO.P,U1,24,P66/RXD3/NE66*%
%TO.N,RXD3*%
X98420000Y-125460000D03*
%TO.P,U1,25,P67/TXD3*%
%TO.N,TXD3*%
X99070000Y-125460000D03*
%TO.P,U1,26,~{RES}*%
%TO.N,RESB*%
X99720000Y-125460000D03*
%TO.P,U1,27,nc*%
%TO.N,unconnected-(U1-nc-Pad27)*%
X100370000Y-125460000D03*
%TO.P,U1,28,nc*%
%TO.N,unconnected-(U1-nc-Pad28)*%
X101020000Y-125460000D03*
%TO.P,U1,29,nc*%
%TO.N,unconnected-(U1-nc-Pad29)*%
X101670000Y-125460000D03*
%TO.P,U1,30,nc*%
%TO.N,unconnected-(U1-nc-Pad30)*%
X102320000Y-125460000D03*
D28*
%TO.P,U1,31,~{WE}*%
%TO.N,WEB*%
X104295000Y-123155000D03*
%TO.P,U1,32,RUN/SYNC*%
%TO.N,RUN*%
X104295000Y-122505000D03*
%TO.P,U1,33,~{FCLKO}*%
%TO.N,FCLKOB*%
X104295000Y-121855000D03*
%TO.P,U1,34,FCLK*%
%TO.N,Net-(U1-FCLK)*%
X104295000Y-121205000D03*
%TO.P,U1,35,BE/RDY*%
%TO.N,BE*%
X104295000Y-120555000D03*
%TO.P,U1,36,CLK*%
%TO.N,Net-(U1-CLK)*%
X104295000Y-119905000D03*
%TO.P,U1,37,~{CLKO}*%
%TO.N,CLKOB*%
X104295000Y-119255000D03*
%TO.P,U1,38,\u03D52*%
%TO.N,PHI2*%
X104295000Y-118605000D03*
%TO.P,U1,39,BA/~{DOD}*%
%TO.N,unconnected-(U1-BA{slash}~{DOD}-Pad39)*%
X104295000Y-117955000D03*
%TO.P,U1,40,VSS*%
%TO.N,GND*%
X104295000Y-117305000D03*
%TO.P,U1,41,VDD*%
%TO.N,+5V*%
X104295000Y-116655000D03*
%TO.P,U1,42,P00/A0*%
%TO.N,a0*%
X104295000Y-116005000D03*
%TO.P,U1,43,P01/A1*%
%TO.N,a1*%
X104295000Y-115355000D03*
%TO.P,U1,44,P02/A2*%
%TO.N,a2*%
X104295000Y-114705000D03*
%TO.P,U1,45,P03/A3*%
%TO.N,a3*%
X104295000Y-114055000D03*
%TO.P,U1,46,P04/A4*%
%TO.N,a4*%
X104295000Y-113405000D03*
%TO.P,U1,47,P05/A5*%
%TO.N,a5*%
X104295000Y-112755000D03*
%TO.P,U1,48,P06/A6*%
%TO.N,a6*%
X104295000Y-112105000D03*
%TO.P,U1,49,P07/A7*%
%TO.N,a7*%
X104295000Y-111455000D03*
%TO.P,U1,50,P10/A8*%
%TO.N,a8*%
X104295000Y-110805000D03*
D27*
%TO.P,U1,51,nc*%
%TO.N,unconnected-(U1-nc-Pad51)*%
X102320000Y-108500000D03*
%TO.P,U1,52,nc*%
%TO.N,unconnected-(U1-nc-Pad52)*%
X101670000Y-108500000D03*
%TO.P,U1,53,nc*%
%TO.N,unconnected-(U1-nc-Pad53)*%
X101020000Y-108500000D03*
%TO.P,U1,54,nc*%
%TO.N,unconnected-(U1-nc-Pad54)*%
X100370000Y-108500000D03*
%TO.P,U1,55,P11/A9*%
%TO.N,a9*%
X99720000Y-108500000D03*
%TO.P,U1,56,P12/A10*%
%TO.N,a10*%
X99070000Y-108500000D03*
%TO.P,U1,57,P13/A11*%
%TO.N,a11*%
X98420000Y-108500000D03*
%TO.P,U1,58,P14/A12*%
%TO.N,a12*%
X97770000Y-108500000D03*
%TO.P,U1,59,P15/A13*%
%TO.N,a13*%
X97120000Y-108500000D03*
%TO.P,U1,60,P16/A14*%
%TO.N,a14*%
X96470000Y-108500000D03*
%TO.P,U1,61,P17/A15*%
%TO.N,a15*%
X95820000Y-108500000D03*
%TO.P,U1,62,P30/A16*%
%TO.N,a16*%
X95170000Y-108500000D03*
%TO.P,U1,63,P31/A17*%
%TO.N,a17*%
X94520000Y-108500000D03*
%TO.P,U1,64,P32/A18*%
%TO.N,a18*%
X93870000Y-108500000D03*
%TO.P,U1,65,VSS*%
%TO.N,GND*%
X93220000Y-108500000D03*
%TO.P,U1,66,VDD*%
%TO.N,+5V*%
X92570000Y-108500000D03*
%TO.P,U1,67,P33/A19*%
%TO.N,a19*%
X91920000Y-108500000D03*
%TO.P,U1,68,P34/A20*%
%TO.N,a20*%
X91270000Y-108500000D03*
%TO.P,U1,69,P35/A21*%
%TO.N,a21*%
X90620000Y-108500000D03*
%TO.P,U1,70,P36/A22*%
%TO.N,a22*%
X89970000Y-108500000D03*
%TO.P,U1,71,P37/A23*%
%TO.N,a23*%
X89320000Y-108500000D03*
%TO.P,U1,72,P70/~{CS0}*%
%TO.N,csb0*%
X88670000Y-108500000D03*
%TO.P,U1,73,P71/~{CS1}*%
%TO.N,csb1*%
X88020000Y-108500000D03*
%TO.P,U1,74,P72/~{CS2}*%
%TO.N,csb2*%
X87370000Y-108500000D03*
%TO.P,U1,75,P73/~{CS3}*%
%TO.N,csb3*%
X86720000Y-108500000D03*
%TO.P,U1,76,nc*%
%TO.N,unconnected-(U1-nc-Pad76)*%
X86070000Y-108500000D03*
%TO.P,U1,77,nc*%
%TO.N,unconnected-(U1-nc-Pad77)*%
X85420000Y-108500000D03*
%TO.P,U1,78,nc*%
%TO.N,unconnected-(U1-nc-Pad78)*%
X84770000Y-108500000D03*
%TO.P,U1,79,nc*%
%TO.N,unconnected-(U1-nc-Pad79)*%
X84120000Y-108500000D03*
%TO.P,U1,80,P74/~{CS4}*%
%TO.N,csb4*%
X83470000Y-108500000D03*
D28*
%TO.P,U1,81,P75/~{CS5}*%
%TO.N,csb5*%
X81495000Y-110805000D03*
%TO.P,U1,82,P76/~{CS6}*%
%TO.N,csb6*%
X81495000Y-111455000D03*
%TO.P,U1,83,P77/~{CS7}*%
%TO.N,csb7*%
X81495000Y-112105000D03*
%TO.P,U1,84,P20/D0*%
%TO.N,d0*%
X81495000Y-112755000D03*
%TO.P,U1,85,P21/D1*%
%TO.N,d1*%
X81495000Y-113405000D03*
%TO.P,U1,86,P22/D2*%
%TO.N,d2*%
X81495000Y-114055000D03*
%TO.P,U1,87,P23/D3*%
%TO.N,d3*%
X81495000Y-114705000D03*
%TO.P,U1,88,P24/D4*%
%TO.N,d4*%
X81495000Y-115355000D03*
%TO.P,U1,89,VDD*%
%TO.N,+5V*%
X81495000Y-116005000D03*
%TO.P,U1,90,VSS*%
%TO.N,GND*%
X81495000Y-116655000D03*
%TO.P,U1,91,P25/D5*%
%TO.N,d5*%
X81495000Y-117305000D03*
%TO.P,U1,92,P26/D6*%
%TO.N,d6*%
X81495000Y-117955000D03*
%TO.P,U1,93,P27/D7*%
%TO.N,d7*%
X81495000Y-118605000D03*
%TO.P,U1,94,TG0*%
%TO.N,TG0*%
X81495000Y-119255000D03*
%TO.P,U1,95,TG1*%
%TO.N,TG1*%
X81495000Y-119905000D03*
%TO.P,U1,96,P40/~{NMI}/~{ABORT}*%
%TO.N,NMIB*%
X81495000Y-120555000D03*
%TO.P,U1,97,P41/~{IRQ}*%
%TO.N,IRQB*%
X81495000Y-121205000D03*
%TO.P,U1,98,P42/~{PII}*%
%TO.N,PIIB*%
X81495000Y-121855000D03*
%TO.P,U1,99,P43/~{PIWE}/~{PIWR}*%
%TO.N,FA15*%
X81495000Y-122505000D03*
%TO.P,U1,100,P44/~{PICS}/~{PIRD}*%
%TO.N,AMS*%
X81495000Y-123155000D03*
%TD*%
D12*
%TO.P,J10,1,Pin_1*%
%TO.N,GND*%
X65750000Y-132300000D03*
D13*
%TO.P,J10,2,Pin_2*%
%TO.N,DTRB3*%
X65750000Y-129760000D03*
%TO.P,J10,3,Pin_3*%
%TO.N,Net-(J10-Pin_3)*%
X65750000Y-127220000D03*
%TO.P,J10,4,Pin_4*%
%TO.N,RXD3*%
X65750000Y-124680000D03*
%TO.P,J10,5,Pin_5*%
%TO.N,TXD3*%
X65750000Y-122140000D03*
%TO.P,J10,6,Pin_6*%
%TO.N,DSRB3*%
X65750000Y-119600000D03*
%TD*%
D21*
%TO.P,R9,1*%
%TO.N,MEMCS1B*%
X126250000Y-63250000D03*
%TO.P,R9,2*%
%TO.N,Net-(D4-K)*%
X126250000Y-65250000D03*
%TD*%
D12*
%TO.P,J7,1,Pin_1*%
%TO.N,a17*%
X79000000Y-80500000D03*
D13*
%TO.P,J7,2,Pin_2*%
%TO.N,a17_Select*%
X79000000Y-77960000D03*
%TD*%
D14*
%TO.P,D3,1,K*%
%TO.N,Net-(D3-K)*%
X126250000Y-82250000D03*
%TO.P,D3,2,A*%
%TO.N,+5V*%
X126250000Y-84300000D03*
%TD*%
D29*
%TO.P,SW1,1,1*%
%TO.N,GND*%
X62250000Y-90000000D03*
X62250000Y-96500000D03*
%TO.P,SW1,2,2*%
%TO.N,RESB*%
X57750000Y-90000000D03*
X57750000Y-96500000D03*
%TD*%
D10*
%TO.P,R5,1*%
%TO.N,Net-(C3-Pad1)*%
X114250000Y-116000000D03*
%TO.P,R5,2*%
%TO.N,CLKOB*%
X112250000Y-116000000D03*
%TD*%
D30*
%TO.P,R3,1*%
%TO.N,Net-(C4-Pad1)*%
X111250000Y-124750000D03*
%TO.P,R3,2*%
%TO.N,Net-(U1-FCLK)*%
X113250000Y-124750000D03*
%TD*%
D31*
%TO.P,Y1,1,1*%
%TO.N,Net-(U1-CLK)*%
X114250000Y-119900000D03*
%TO.P,Y1,2,2*%
%TO.N,Net-(C3-Pad1)*%
X114250000Y-118000000D03*
%TD*%
D12*
%TO.P,J4,1,Pin_1*%
%TO.N,+5V*%
X67100000Y-140940000D03*
D13*
%TO.P,J4,2,Pin_2*%
%TO.N,GND*%
X67100000Y-138400000D03*
%TO.P,J4,3,Pin_3*%
%TO.N,NMIB*%
X69640000Y-140940000D03*
%TO.P,J4,4,Pin_4*%
%TO.N,IRQB*%
X69640000Y-138400000D03*
%TO.P,J4,5,Pin_5*%
%TO.N,PIIB*%
X72180000Y-140940000D03*
%TO.P,J4,6,Pin_6*%
%TO.N,FA15*%
X72180000Y-138400000D03*
%TO.P,J4,7,Pin_7*%
%TO.N,AMS*%
X74720000Y-140940000D03*
%TO.P,J4,8,Pin_8*%
%TO.N,PIRS0*%
X74720000Y-138400000D03*
%TO.P,J4,9,Pin_9*%
%TO.N,PIRS1*%
X77260000Y-140940000D03*
%TO.P,J4,10,Pin_10*%
%TO.N,PIRS2*%
X77260000Y-138400000D03*
%TD*%
D32*
%TO.P,C9,1*%
%TO.N,Net-(U4-VI)*%
X149000000Y-58000000D03*
D23*
%TO.P,C9,2*%
%TO.N,GND*%
X151500000Y-58000000D03*
%TD*%
D33*
%TO.P,C12,1*%
%TO.N,+5V*%
X79500000Y-87325000D03*
%TO.P,C12,2*%
%TO.N,GND*%
X79500000Y-85250000D03*
%TD*%
D17*
%TO.P,C7,1*%
%TO.N,+5V*%
X108750000Y-115425000D03*
%TO.P,C7,2*%
%TO.N,GND*%
X108750000Y-117500000D03*
%TD*%
D12*
%TO.P,J13,1,Pin_1*%
%TO.N,GND*%
X150790000Y-133250000D03*
D13*
%TO.P,J13,2,Pin_2*%
X148250000Y-133250000D03*
%TO.P,J13,3,Pin_3*%
%TO.N,Net-(J13-Pin_3)*%
X150790000Y-130710000D03*
%TO.P,J13,4,Pin_4*%
%TO.N,Net-(J13-Pin_4)*%
X148250000Y-130710000D03*
%TO.P,J13,5,Pin_5*%
%TO.N,Net-(J13-Pin_5)*%
X150790000Y-128170000D03*
%TO.P,J13,6,Pin_6*%
%TO.N,Net-(J13-Pin_6)*%
X148250000Y-128170000D03*
%TO.P,J13,7,Pin_7*%
%TO.N,Net-(J13-Pin_7)*%
X150790000Y-125630000D03*
%TO.P,J13,8,Pin_8*%
%TO.N,Net-(J13-Pin_8)*%
X148250000Y-125630000D03*
%TO.P,J13,9,Pin_9*%
%TO.N,Net-(J13-Pin_9)*%
X150790000Y-123090000D03*
%TO.P,J13,10,Pin_10*%
%TO.N,Net-(J13-Pin_10)*%
X148250000Y-123090000D03*
%TO.P,J13,11,Pin_11*%
%TO.N,Net-(J13-Pin_11)*%
X150790000Y-120550000D03*
%TO.P,J13,12,Pin_12*%
%TO.N,Net-(J13-Pin_12)*%
X148250000Y-120550000D03*
%TO.P,J13,13,Pin_13*%
%TO.N,+5V*%
X150790000Y-118010000D03*
%TO.P,J13,14,Pin_14*%
X148250000Y-118010000D03*
%TD*%
D12*
%TO.P,J6,1,Pin_1*%
%TO.N,+5V*%
X112815157Y-140940000D03*
D13*
%TO.P,J6,2,Pin_2*%
%TO.N,GND*%
X112815157Y-138400000D03*
%TO.P,J6,3,Pin_3*%
%TO.N,RXD0*%
X115355157Y-140940000D03*
%TO.P,J6,4,Pin_4*%
%TO.N,TXD0*%
X115355157Y-138400000D03*
%TO.P,J6,5,Pin_5*%
%TO.N,RXD1*%
X117895157Y-140940000D03*
%TO.P,J6,6,Pin_6*%
%TO.N,TXD1*%
X117895157Y-138400000D03*
%TO.P,J6,7,Pin_7*%
%TO.N,RXD2*%
X120435157Y-140940000D03*
%TO.P,J6,8,Pin_8*%
%TO.N,TXD2*%
X120435157Y-138400000D03*
%TO.P,J6,9,Pin_9*%
%TO.N,RXD3*%
X122975157Y-140940000D03*
%TO.P,J6,10,Pin_10*%
%TO.N,TXD3*%
X122975157Y-138400000D03*
%TD*%
D34*
%TO.P,Y2,1,1*%
%TO.N,Net-(U1-FCLK)*%
X117000000Y-128769394D03*
%TO.P,Y2,2,2*%
%TO.N,Net-(C4-Pad1)*%
X112120000Y-128769394D03*
%TD*%
D16*
%TO.P,R4,1*%
%TO.N,Net-(C4-Pad1)*%
X107500000Y-127750000D03*
%TO.P,R4,2*%
%TO.N,FCLKOB*%
X107500000Y-125750000D03*
%TD*%
D30*
%TO.P,R10,1*%
%TO.N,+5V*%
X59000000Y-56000000D03*
%TO.P,R10,2*%
%TO.N,MEMCS2*%
X61000000Y-56000000D03*
%TD*%
D35*
%TO.P,RN1,1,common*%
%TO.N,+5V*%
X66040000Y-101600000D03*
D23*
%TO.P,RN1,2,R1*%
%TO.N,NMIB*%
X66040000Y-104140000D03*
%TO.P,RN1,3,R2*%
%TO.N,IRQB*%
X66040000Y-106680000D03*
%TO.P,RN1,4,R3*%
%TO.N,FA15*%
X66040000Y-109220000D03*
%TO.P,RN1,5,R4*%
%TO.N,AMS*%
X66040000Y-111760000D03*
%TO.P,RN1,6,R5*%
%TO.N,BE*%
X66040000Y-114300000D03*
%TD*%
D12*
%TO.P,J3,1,Pin_1*%
%TO.N,MEMCS1B*%
X60000000Y-59000000D03*
D13*
%TO.P,J3,2,Pin_2*%
%TO.N,csb3*%
X62540000Y-59000000D03*
%TO.P,J3,3,Pin_3*%
%TO.N,MEMCS1B*%
X60000000Y-61540000D03*
%TO.P,J3,4,Pin_4*%
%TO.N,csb5*%
X62540000Y-61540000D03*
%TO.P,J3,5,Pin_5*%
%TO.N,MEMCS1B*%
X60000000Y-64080000D03*
%TO.P,J3,6,Pin_6*%
%TO.N,csb6*%
X62540000Y-64080000D03*
%TO.P,J3,7,Pin_7*%
%TO.N,MEMCS1B*%
X60000000Y-66620000D03*
%TO.P,J3,8,Pin_8*%
%TO.N,csb7*%
X62540000Y-66620000D03*
%TD*%
D11*
%TO.P,C6,1*%
%TO.N,+5V*%
X91962500Y-105250000D03*
%TO.P,C6,2*%
%TO.N,GND*%
X94037500Y-105250000D03*
%TD*%
D17*
%TO.P,C1,1*%
%TO.N,Net-(U1-CLK)*%
X117250000Y-121675000D03*
%TO.P,C1,2*%
%TO.N,GND*%
X117250000Y-123750000D03*
%TD*%
D36*
%TO.P,U6,1,VSS*%
%TO.N,GND*%
X143905000Y-139920000D03*
D23*
%TO.P,U6,2,PA0*%
%TO.N,Net-(J13-Pin_3)*%
X143905000Y-137380000D03*
%TO.P,U6,3,PA1*%
%TO.N,Net-(J13-Pin_4)*%
X143905000Y-134840000D03*
%TO.P,U6,4,PA2*%
%TO.N,Net-(J13-Pin_5)*%
X143905000Y-132300000D03*
%TO.P,U6,5,PA3*%
%TO.N,Net-(J13-Pin_6)*%
X143905000Y-129760000D03*
%TO.P,U6,6,PA4*%
%TO.N,Net-(J13-Pin_7)*%
X143905000Y-127220000D03*
%TO.P,U6,7,PA5*%
%TO.N,Net-(J13-Pin_8)*%
X143905000Y-124680000D03*
%TO.P,U6,8,PA6*%
%TO.N,Net-(J13-Pin_9)*%
X143905000Y-122140000D03*
%TO.P,U6,9,PA7*%
%TO.N,Net-(J13-Pin_10)*%
X143905000Y-119600000D03*
%TO.P,U6,10,PB0*%
%TO.N,Net-(J14-Pin_3)*%
X143905000Y-117060000D03*
%TO.P,U6,11,PB1*%
%TO.N,Net-(J14-Pin_4)*%
X143905000Y-114520000D03*
%TO.P,U6,12,PB2*%
%TO.N,Net-(J14-Pin_5)*%
X143905000Y-111980000D03*
%TO.P,U6,13,PB3*%
%TO.N,Net-(J14-Pin_6)*%
X143905000Y-109440000D03*
%TO.P,U6,14,PB4*%
%TO.N,Net-(J14-Pin_7)*%
X143905000Y-106900000D03*
%TO.P,U6,15,PB5*%
%TO.N,Net-(J14-Pin_8)*%
X143905000Y-104360000D03*
%TO.P,U6,16,PB6*%
%TO.N,Net-(J14-Pin_9)*%
X143905000Y-101820000D03*
%TO.P,U6,17,PB7*%
%TO.N,Net-(J14-Pin_10)*%
X143905000Y-99280000D03*
%TO.P,U6,18,CB1*%
%TO.N,Net-(J14-Pin_11)*%
X143905000Y-96740000D03*
%TO.P,U6,19,CB2*%
%TO.N,Net-(J14-Pin_12)*%
X143905000Y-94200000D03*
%TO.P,U6,20,VCC*%
%TO.N,+5V*%
X143905000Y-91660000D03*
%TO.P,U6,21,~{IRQ}*%
%TO.N,Net-(D6-K)*%
X128665000Y-91660000D03*
%TO.P,U6,22,R/~{W}*%
%TO.N,WEB*%
X128665000Y-94200000D03*
%TO.P,U6,23,~{CS2}*%
%TO.N,csb1*%
X128665000Y-96740000D03*
%TO.P,U6,24,CS1*%
%TO.N,a5*%
X128665000Y-99280000D03*
%TO.P,U6,25,\u03D52*%
%TO.N,PHI2*%
X128665000Y-101820000D03*
%TO.P,U6,26,D7*%
%TO.N,d7*%
X128665000Y-104360000D03*
%TO.P,U6,27,D6*%
%TO.N,d6*%
X128665000Y-106900000D03*
%TO.P,U6,28,D5*%
%TO.N,d5*%
X128665000Y-109440000D03*
%TO.P,U6,29,D4*%
%TO.N,d4*%
X128665000Y-111980000D03*
%TO.P,U6,30,D3*%
%TO.N,d3*%
X128665000Y-114520000D03*
%TO.P,U6,31,D2*%
%TO.N,d2*%
X128665000Y-117060000D03*
%TO.P,U6,32,D1*%
%TO.N,d1*%
X128665000Y-119600000D03*
%TO.P,U6,33,D0*%
%TO.N,d0*%
X128665000Y-122140000D03*
%TO.P,U6,34,~{RES}*%
%TO.N,RESB*%
X128665000Y-124680000D03*
%TO.P,U6,35,RS3*%
%TO.N,a3*%
X128665000Y-127220000D03*
%TO.P,U6,36,RS2*%
%TO.N,a2*%
X128665000Y-129760000D03*
%TO.P,U6,37,RS1*%
%TO.N,a1*%
X128665000Y-132300000D03*
%TO.P,U6,38,RS0*%
%TO.N,a0*%
X128665000Y-134840000D03*
%TO.P,U6,39,CA2*%
%TO.N,Net-(J13-Pin_12)*%
X128665000Y-137380000D03*
%TO.P,U6,40,CA1*%
%TO.N,Net-(J13-Pin_11)*%
X128665000Y-139920000D03*
%TD*%
D10*
%TO.P,R11,1*%
%TO.N,+5V*%
X149500000Y-70250000D03*
%TO.P,R11,2*%
%TO.N,Net-(D5-A)*%
X147500000Y-70250000D03*
%TD*%
D37*
%TO.P,C14,1*%
%TO.N,+5V*%
X138787500Y-87250000D03*
%TO.P,C14,2*%
%TO.N,GND*%
X136712500Y-87250000D03*
%TD*%
D12*
%TO.P,J11,1,Pin_1*%
%TO.N,Net-(J10-Pin_3)*%
X149000000Y-76500000D03*
D13*
%TO.P,J11,2,Pin_2*%
%TO.N,+5V*%
X146460000Y-76500000D03*
%TO.P,J11,3,Pin_3*%
%TO.N,Net-(J11-Pin_3)*%
X143920000Y-76500000D03*
%TD*%
D12*
%TO.P,J5,1,Pin_1*%
%TO.N,+5V*%
X89905942Y-140940000D03*
D13*
%TO.P,J5,2,Pin_2*%
%TO.N,GND*%
X89905942Y-138400000D03*
%TO.P,J5,3,Pin_3*%
%TO.N,DTRB0*%
X92445942Y-140940000D03*
%TO.P,J5,4,Pin_4*%
%TO.N,DSRB0*%
X92445942Y-138400000D03*
%TO.P,J5,5,Pin_5*%
%TO.N,DTRB1*%
X94985942Y-140940000D03*
%TO.P,J5,6,Pin_6*%
%TO.N,DSRB1*%
X94985942Y-138400000D03*
%TO.P,J5,7,Pin_7*%
%TO.N,DTRB2*%
X97525942Y-140940000D03*
%TO.P,J5,8,Pin_8*%
%TO.N,DSRB2*%
X97525942Y-138400000D03*
%TO.P,J5,9,Pin_9*%
%TO.N,DTRB3*%
X100065942Y-140940000D03*
%TO.P,J5,10,Pin_10*%
%TO.N,DSRB3*%
X100065942Y-138400000D03*
%TD*%
D32*
%TO.P,C10,1*%
%TO.N,Net-(J11-Pin_3)*%
X149000000Y-66000000D03*
D23*
%TO.P,C10,2*%
%TO.N,GND*%
X151500000Y-66000000D03*
%TD*%
D38*
%TO.P,IC1,1,/RST*%
%TO.N,RESB*%
X57710000Y-84250000D03*
%TO.P,IC1,2,+5V*%
%TO.N,+5V*%
X60250000Y-84250000D03*
%TO.P,IC1,3,GND*%
%TO.N,GND*%
X62790000Y-84250000D03*
%TD*%
D10*
%TO.P,R7,1*%
%TO.N,csb2*%
X81500000Y-108500000D03*
%TO.P,R7,2*%
%TO.N,Net-(D2-K)*%
X79500000Y-108500000D03*
%TD*%
D23*
%TO.P,U3,1,A14*%
%TO.N,a14*%
X85156500Y-93750000D03*
%TO.P,U3,2,A12*%
%TO.N,a12*%
X87696500Y-93750000D03*
%TO.P,U3,3,A7*%
%TO.N,a7*%
X90236500Y-93750000D03*
%TO.P,U3,4,A6*%
%TO.N,a6*%
X92776500Y-93750000D03*
%TO.P,U3,5,A5*%
%TO.N,a5*%
X95316500Y-93750000D03*
%TO.P,U3,6,A4*%
%TO.N,a4*%
X97856500Y-93750000D03*
%TO.P,U3,7,A3*%
%TO.N,a3*%
X100396500Y-93750000D03*
%TO.P,U3,8,A2*%
%TO.N,a2*%
X102936500Y-93750000D03*
%TO.P,U3,9,A1*%
%TO.N,a1*%
X105476500Y-93750000D03*
%TO.P,U3,10,A0*%
%TO.N,a0*%
X108016500Y-93750000D03*
%TO.P,U3,11,D0*%
%TO.N,d0*%
X110556500Y-93750000D03*
%TO.P,U3,12,D1*%
%TO.N,d1*%
X113096500Y-93750000D03*
%TO.P,U3,13,D2*%
%TO.N,d2*%
X115636500Y-93750000D03*
%TO.P,U3,14,GND*%
%TO.N,GND*%
X118176500Y-93750000D03*
%TO.P,U3,15,D3*%
%TO.N,d3*%
X118176500Y-78510000D03*
%TO.P,U3,16,D4*%
%TO.N,d4*%
X115636500Y-78510000D03*
%TO.P,U3,17,D5*%
%TO.N,d5*%
X113096500Y-78510000D03*
%TO.P,U3,18,D6*%
%TO.N,d6*%
X110556500Y-78510000D03*
%TO.P,U3,19,D7*%
%TO.N,d7*%
X108016500Y-78510000D03*
%TO.P,U3,20,~{CS}*%
%TO.N,csb4*%
X105476500Y-78510000D03*
%TO.P,U3,21,A10*%
%TO.N,a10*%
X102936500Y-78510000D03*
%TO.P,U3,22,~{OE}*%
%TO.N,MEMOEB*%
X100396500Y-78510000D03*
%TO.P,U3,23,A11*%
%TO.N,a11*%
X97856500Y-78510000D03*
%TO.P,U3,24,A9*%
%TO.N,a9*%
X95316500Y-78510000D03*
%TO.P,U3,25,A8*%
%TO.N,a8*%
X92776500Y-78510000D03*
%TO.P,U3,26,A13*%
%TO.N,a13*%
X90236500Y-78510000D03*
%TO.P,U3,27,~{WE}*%
%TO.N,Net-(J9-Pin_2)*%
X87696500Y-78510000D03*
%TO.P,U3,28,VCC*%
%TO.N,+5V*%
X85156500Y-78510000D03*
%TD*%
D39*
%TO.P,U5,1*%
%TO.N,WEB*%
X117690000Y-105500000D03*
%TO.P,U5,2*%
X118960000Y-105500000D03*
%TO.P,U5,3*%
%TO.N,Net-(U5-Pad3)*%
X120230000Y-105500000D03*
%TO.P,U5,4*%
%TO.N,WEB*%
X121500000Y-105500000D03*
%TO.P,U5,5*%
%TO.N,PHI2*%
X122770000Y-105500000D03*
%TO.P,U5,6*%
%TO.N,MEMOEB*%
X124040000Y-105500000D03*
%TO.P,U5,7,GND*%
%TO.N,GND*%
X125310000Y-105500000D03*
%TO.P,U5,8*%
%TO.N,MEMWEB*%
X125310000Y-100550000D03*
%TO.P,U5,9*%
%TO.N,Net-(U5-Pad3)*%
X124040000Y-100550000D03*
%TO.P,U5,10*%
%TO.N,PHI2*%
X122770000Y-100550000D03*
%TO.P,U5,11*%
%TO.N,unconnected-(U5-Pad11)*%
X121500000Y-100550000D03*
%TO.P,U5,12*%
%TO.N,GND*%
X120230000Y-100550000D03*
%TO.P,U5,13*%
X118960000Y-100550000D03*
%TO.P,U5,14,VCC*%
%TO.N,+5V*%
X117690000Y-100550000D03*
%TD*%
D12*
%TO.P,J12,1,Pin_1*%
%TO.N,IRQB*%
X143975000Y-86750000D03*
D13*
%TO.P,J12,2,Pin_2*%
%TO.N,Net-(D6-A)*%
X146515000Y-86750000D03*
%TO.P,J12,3,Pin_3*%
%TO.N,NMIB*%
X149055000Y-86750000D03*
%TD*%
D17*
%TO.P,C2,1*%
%TO.N,Net-(U1-FCLK)*%
X121500000Y-129712500D03*
%TO.P,C2,2*%
%TO.N,GND*%
X121500000Y-131787500D03*
%TD*%
D40*
%TO.P,D6,1,K*%
%TO.N,Net-(D6-K)*%
X139340000Y-81000000D03*
D41*
%TO.P,D6,2,A*%
%TO.N,Net-(D6-A)*%
X149500000Y-81000000D03*
%TD*%
D42*
%TO.N,GND*%
X126500000Y-105750000D03*
X136750000Y-90211075D03*
X125250000Y-102520000D03*
X102500000Y-117500003D03*
X152500000Y-62000000D03*
X84256582Y-116761202D03*
X77000000Y-72500000D03*
X119750000Y-101750000D03*
X74200000Y-117250000D03*
X153150000Y-72250000D03*
X125000000Y-143150000D03*
X93000000Y-117500000D03*
X131000000Y-73645439D03*
X131100000Y-46850000D03*
X79750000Y-84000000D03*
%TO.N,+5V*%
X102500000Y-116500000D03*
X57000000Y-57000000D03*
X79750000Y-88500000D03*
X92250000Y-116750000D03*
X85250000Y-88750000D03*
X74200000Y-116000000D03*
X83750000Y-115899008D03*
X79835464Y-62208001D03*
X57000000Y-101600000D03*
X57000000Y-116000000D03*
D43*
%TO.N,RESB*%
X100174265Y-123674265D03*
X71250000Y-120750000D03*
X70100000Y-88250000D03*
X60750000Y-81250000D03*
%TO.N,DTRB3*%
X98914942Y-136250000D03*
%TO.N,RXD3*%
X121000000Y-137000000D03*
%TO.N,TXD3*%
X108250000Y-134150000D03*
%TO.N,DSRB3*%
X100065942Y-134499000D03*
%TO.N,d0*%
X126796800Y-60750000D03*
X84590123Y-110883235D03*
X109880000Y-60750000D03*
X130000000Y-111500000D03*
X111820000Y-110000000D03*
%TO.N,d1*%
X125460000Y-61350000D03*
X113100000Y-61350000D03*
X113400000Y-110600000D03*
X125876713Y-110802314D03*
X84485256Y-111836632D03*
%TO.N,d2*%
X84557164Y-112633396D03*
X126500000Y-111402314D03*
X124206000Y-61751000D03*
X115000000Y-111200000D03*
X115560000Y-61751000D03*
%TO.N,d3*%
X117000000Y-112100000D03*
X85157164Y-113257297D03*
X122500000Y-58405439D03*
X127365189Y-112002314D03*
%TO.N,d4*%
X116000000Y-112600000D03*
X116660000Y-62351000D03*
X121531000Y-62351000D03*
X85757164Y-113953017D03*
%TO.N,d5*%
X86500000Y-114250000D03*
X114000000Y-113100000D03*
X120380000Y-62951000D03*
X113989327Y-60020143D03*
X114099000Y-109000000D03*
X114120000Y-63000000D03*
%TO.N,d6*%
X119201000Y-63600000D03*
X112500000Y-107000000D03*
X87136041Y-114750000D03*
X110480000Y-63450000D03*
X112500000Y-113350000D03*
%TO.N,d7*%
X111250000Y-113850000D03*
X111220000Y-105000000D03*
X117500000Y-64221200D03*
X88000000Y-115000000D03*
X108204000Y-64221200D03*
%TO.N,a0*%
X107604000Y-60500000D03*
X132000000Y-89000000D03*
X132500000Y-134500000D03*
X106839000Y-88900000D03*
%TO.N,a1*%
X106000000Y-65500000D03*
X104299000Y-88500000D03*
X133100000Y-132500000D03*
X132565687Y-88434313D03*
X114614561Y-59521058D03*
X114960000Y-65500000D03*
%TO.N,a2*%
X133131374Y-87868626D03*
X102250000Y-66100000D03*
X133700000Y-129500000D03*
X102936500Y-98600000D03*
X112150000Y-66100000D03*
X101759000Y-88000000D03*
X109350000Y-98472028D03*
%TO.N,a3*%
X99295500Y-87750000D03*
X100396500Y-98150000D03*
X134300000Y-127000000D03*
X111080000Y-66700000D03*
X108626042Y-97748071D03*
X100720000Y-66750000D03*
X133697061Y-87302939D03*
%TO.N,a4*%
X97500000Y-64000000D03*
X97820000Y-97550000D03*
X108000000Y-97250000D03*
X109118400Y-63250000D03*
%TO.N,a5*%
X106780668Y-67600000D03*
X95240000Y-67500000D03*
X107223055Y-96345082D03*
X95316500Y-96350000D03*
%TO.N,a6*%
X106000000Y-95250000D03*
X93000000Y-68000000D03*
X104114600Y-68100000D03*
X93008949Y-95502983D03*
%TO.N,a7*%
X105885421Y-96950000D03*
X90500000Y-60500000D03*
X90800000Y-96850000D03*
%TO.N,a8*%
X94000000Y-95150000D03*
X104963343Y-95150000D03*
%TO.N,a9*%
X96522991Y-97756131D03*
X99596497Y-98150000D03*
%TO.N,a10*%
X99120000Y-99000000D03*
X104037500Y-99072028D03*
%TO.N,a11*%
X98180000Y-61100000D03*
X101750000Y-61100000D03*
%TO.N,a12*%
X87750000Y-98750000D03*
X99000000Y-69100000D03*
X88000000Y-69000000D03*
X97820000Y-99411339D03*
%TO.N,a13*%
X91500000Y-98750000D03*
X97250000Y-98850000D03*
%TO.N,a14*%
X96500000Y-100051000D03*
X96945023Y-69600000D03*
X85156500Y-99000000D03*
X85686400Y-69500000D03*
%TO.N,a15*%
X83736984Y-60596984D03*
X83240000Y-97500000D03*
X95750000Y-97550000D03*
%TO.N,csb1*%
X74100000Y-90500000D03*
X124039000Y-90500000D03*
%TO.N,csb3*%
X73400000Y-60429453D03*
%TO.N,csb5*%
X72603000Y-61540000D03*
X80111441Y-110552975D03*
X73607928Y-110314876D03*
%TO.N,csb6*%
X73205000Y-111006000D03*
X72202000Y-65354200D03*
X79917927Y-111329221D03*
%TO.N,csb7*%
X72691942Y-111808058D03*
X71801000Y-66620000D03*
X80000000Y-112125000D03*
%TO.N,NMIB*%
X71404000Y-104140000D03*
X75428388Y-55428388D03*
X71100000Y-86124697D03*
%TO.N,IRQB*%
X72750000Y-121250000D03*
X70804000Y-107000000D03*
X70600000Y-85500000D03*
X79545000Y-121205000D03*
%TO.N,PHI2*%
X123433963Y-91100000D03*
X123250000Y-113350000D03*
X66600000Y-90750000D03*
X126250000Y-101820000D03*
X122770000Y-101800000D03*
X102375000Y-115375000D03*
%TO.N,WEB*%
X130200000Y-94200000D03*
X102285167Y-114535167D03*
X130500000Y-108000000D03*
X130250000Y-86400000D03*
X119000000Y-113750000D03*
X119000000Y-108000000D03*
X67250000Y-87500000D03*
%TO.N,MEMWEB*%
X66400000Y-74500000D03*
X122850000Y-91700000D03*
X66000000Y-56250000D03*
X65985421Y-91262149D03*
%TO.N,MEMOEB*%
X123250000Y-89900000D03*
X100500000Y-89900000D03*
%TO.N,a16*%
X94460638Y-70201000D03*
X82639000Y-98250000D03*
X82809968Y-70278561D03*
X95100000Y-98100000D03*
%TO.N,a17*%
X94500000Y-96350000D03*
X77850000Y-96250000D03*
X81439000Y-64000000D03*
X88500000Y-64000000D03*
%TO.N,a18*%
X84240000Y-68000000D03*
X82039000Y-75000000D03*
X82039000Y-95250000D03*
X92250000Y-95250000D03*
%TO.N,FA15*%
X70250000Y-122500000D03*
X79796765Y-122551765D03*
%TO.N,AMS*%
X79500000Y-123500000D03*
X72000000Y-123250000D03*
%TO.N,BE*%
X68600000Y-114500000D03*
X102250000Y-120500000D03*
X68600000Y-118500000D03*
%TO.N,RUN*%
X102500000Y-122505000D03*
X69500000Y-119750000D03*
%TO.N,TG0*%
X72004000Y-108500000D03*
%TO.N,TG1*%
X72174265Y-113325735D03*
%TO.N,csb4*%
X73152000Y-86600000D03*
X125250000Y-77500000D03*
X105400000Y-85600000D03*
X105400000Y-80500000D03*
D42*
%TO.N,Net-(U5-Pad3)*%
X120250000Y-104250000D03*
X124144594Y-103925000D03*
D43*
%TO.N,CLKOB*%
X70600000Y-117541714D03*
X102572098Y-119621610D03*
%TO.N,FCLKOB*%
X70100000Y-119096381D03*
X102546765Y-121703235D03*
D42*
%TO.N,Net-(J10-Pin_3)*%
X65500000Y-75775000D03*
%TO.N,Net-(J13-Pin_11)*%
X142000000Y-121000000D03*
X142000000Y-139500000D03*
%TO.N,Net-(J13-Pin_12)*%
X140500000Y-137500000D03*
X141000000Y-118500000D03*
%TO.N,Net-(J14-Pin_5)*%
X151750000Y-112000000D03*
D43*
%TO.N,MEMCS1B*%
X123750000Y-63250000D03*
X105000000Y-64846200D03*
%TO.N,MEMCS2*%
X62250000Y-56000000D03*
D42*
%TO.N,Net-(D6-K)*%
X137750000Y-91500000D03*
%TD*%
D44*
%TO.N,Net-(U1-CLK)*%
X112500000Y-120000000D02*
X114150000Y-120000000D01*
X114250000Y-119900000D02*
X115475000Y-119900000D01*
X114150000Y-120000000D02*
X114250000Y-119900000D01*
X112405000Y-119905000D02*
X112500000Y-120000000D01*
X104295000Y-119905000D02*
X112405000Y-119905000D01*
X115475000Y-119900000D02*
X117250000Y-121675000D01*
D45*
%TO.N,GND*%
X76962500Y-72462500D02*
X77000000Y-72500000D01*
D46*
X152500000Y-62000000D02*
X152000000Y-61500000D01*
D45*
X62250000Y-90000000D02*
X62250000Y-96500000D01*
X119500000Y-123787500D02*
X124287500Y-123787500D01*
X121500000Y-131787500D02*
X124962500Y-131787500D01*
X93220000Y-117280000D02*
X93220000Y-108500000D01*
X93000000Y-117500000D02*
X93195000Y-117305000D01*
D46*
X144805000Y-61500000D02*
X142780000Y-63525000D01*
D45*
X81495000Y-116655000D02*
X81540008Y-116700008D01*
X125000000Y-131750000D02*
X125000000Y-143150000D01*
D46*
X152000000Y-61500000D02*
X144805000Y-61500000D01*
D45*
X62790000Y-84250000D02*
X62790000Y-89460000D01*
X76962500Y-71575000D02*
X76962500Y-72462500D01*
X93220000Y-108500000D02*
X93220000Y-106067500D01*
X79750000Y-85000000D02*
X79500000Y-85250000D01*
X81495000Y-116655000D02*
X77845000Y-116655000D01*
X92570000Y-117930000D02*
X93000000Y-117500000D01*
X124962500Y-131787500D02*
X125000000Y-131750000D01*
X119750000Y-101750000D02*
X119750000Y-100550000D01*
X125310000Y-105500000D02*
X125310000Y-102580000D01*
X125000000Y-124500000D02*
X125000000Y-131750000D01*
X131000000Y-46950000D02*
X131000000Y-73645439D01*
X92570000Y-128070000D02*
X93500000Y-129000000D01*
X77250000Y-71287500D02*
X76962500Y-71575000D01*
X120230000Y-100550000D02*
X120230000Y-98557500D01*
X118960000Y-100550000D02*
X119750000Y-100550000D01*
X149550000Y-72250000D02*
X153150000Y-72250000D01*
X107500000Y-131787500D02*
X121500000Y-131787500D01*
X124287500Y-123787500D02*
X125000000Y-124500000D01*
X65750000Y-137050000D02*
X67100000Y-138400000D01*
X79750000Y-84000000D02*
X79750000Y-85000000D01*
X104295000Y-117305000D02*
X102695003Y-117305000D01*
X77250000Y-117250000D02*
X74200000Y-117250000D01*
X104295000Y-117305000D02*
X108555000Y-117305000D01*
X108555000Y-117305000D02*
X108750000Y-117500000D01*
X131100000Y-46850000D02*
X131000000Y-46950000D01*
X102695003Y-117305000D02*
X102500000Y-117500003D01*
X62790000Y-89460000D02*
X62250000Y-90000000D01*
X119750000Y-100550000D02*
X120230000Y-100550000D01*
X77845000Y-116655000D02*
X77250000Y-117250000D01*
X136712500Y-90173575D02*
X136750000Y-90211075D01*
X117250000Y-123750000D02*
X119462500Y-123750000D01*
X125310000Y-105500000D02*
X126250000Y-105500000D01*
X93220000Y-106067500D02*
X94037500Y-105250000D01*
X84195388Y-116700008D02*
X84256582Y-116761202D01*
X92570000Y-125460000D02*
X92570000Y-128070000D01*
X126250000Y-105500000D02*
X126500000Y-105750000D01*
X136712500Y-87250000D02*
X136712500Y-90173575D01*
X65750000Y-132300000D02*
X65750000Y-137050000D01*
X92570000Y-125460000D02*
X92570000Y-117930000D01*
X125310000Y-102580000D02*
X125250000Y-102520000D01*
X81540008Y-116700008D02*
X84195388Y-116700008D01*
X119462500Y-123750000D02*
X119500000Y-123787500D01*
X120230000Y-98557500D02*
X120787500Y-98000000D01*
X93000000Y-117500000D02*
X93220000Y-117280000D01*
D44*
%TO.N,Net-(U1-FCLK)*%
X117000000Y-128769394D02*
X117943106Y-129712500D01*
X113250000Y-125019394D02*
X113250000Y-124750000D01*
X104295000Y-121205000D02*
X109705000Y-121205000D01*
X117000000Y-128769394D02*
X113250000Y-125019394D01*
X117943106Y-129712500D02*
X121500000Y-129712500D01*
X113250000Y-124750000D02*
X109705000Y-121205000D01*
D47*
%TO.N,Net-(C3-Pad1)*%
X114250000Y-116000000D02*
X114250000Y-118000000D01*
X119500000Y-121712500D02*
X115787500Y-118000000D01*
X115787500Y-118000000D02*
X114250000Y-118000000D01*
X112500000Y-118000000D02*
X114250000Y-118000000D01*
%TO.N,Net-(C4-Pad1)*%
X107500000Y-129712500D02*
X111176894Y-129712500D01*
X107500000Y-127750000D02*
X111100606Y-127750000D01*
X111250000Y-127899394D02*
X111250000Y-124750000D01*
X111100606Y-127750000D02*
X112120000Y-128769394D01*
X112120000Y-128769394D02*
X111250000Y-127899394D01*
X111176894Y-129712500D02*
X112120000Y-128769394D01*
D45*
%TO.N,+5V*%
X56000000Y-105000000D02*
X55750000Y-105250000D01*
D48*
X70500000Y-144250000D02*
X69160000Y-144250000D01*
D45*
X76474972Y-115950028D02*
X74249972Y-115950028D01*
X91920000Y-117080000D02*
X92250000Y-116750000D01*
D48*
X55750000Y-104750000D02*
X55750000Y-105250000D01*
X154250000Y-118000000D02*
X154250000Y-105000000D01*
D45*
X92570000Y-105857500D02*
X91962500Y-105250000D01*
X129250000Y-50750000D02*
X128000000Y-49500000D01*
D48*
X128000000Y-45750000D02*
X70000000Y-45750000D01*
X154250000Y-92250000D02*
X154250000Y-78000000D01*
D45*
X154240000Y-118010000D02*
X154250000Y-118000000D01*
X76962500Y-68925000D02*
X76962500Y-65080965D01*
X79500000Y-87325000D02*
X79750000Y-87575000D01*
X143905000Y-91660000D02*
X147610000Y-91660000D01*
X77250000Y-115175000D02*
X76474972Y-115950028D01*
X129250000Y-67025000D02*
X129250000Y-50750000D01*
X126250000Y-84300000D02*
X132799000Y-77751000D01*
X148250000Y-92300000D02*
X150790000Y-92300000D01*
D48*
X58750000Y-45750000D02*
X55750000Y-48750000D01*
D45*
X60000000Y-105000000D02*
X56000000Y-105000000D01*
X118712500Y-98000000D02*
X120250000Y-96462500D01*
X57000000Y-116000000D02*
X55924000Y-116000000D01*
X60250000Y-84250000D02*
X59000000Y-83000000D01*
X57000000Y-57000000D02*
X55750000Y-57000000D01*
D48*
X65750000Y-45750000D02*
X58750000Y-45750000D01*
D45*
X92212500Y-105787500D02*
X92212500Y-105250000D01*
X85250000Y-88750000D02*
X85156500Y-88656500D01*
X112815157Y-144065157D02*
X113000000Y-144250000D01*
X67100000Y-140940000D02*
X67100000Y-141850000D01*
X102500000Y-116500000D02*
X102655000Y-116655000D01*
X91920000Y-125460000D02*
X91920000Y-128505000D01*
X92250000Y-116750000D02*
X92570000Y-116430000D01*
X81495000Y-116005000D02*
X83644008Y-116005000D01*
D48*
X154250000Y-141000000D02*
X154250000Y-118000000D01*
D45*
X126250000Y-87950000D02*
X126250000Y-84300000D01*
X150790000Y-92300000D02*
X154200000Y-92300000D01*
X77250000Y-111775000D02*
X77250000Y-115175000D01*
D48*
X151250000Y-45750000D02*
X128000000Y-45750000D01*
X113000000Y-144250000D02*
X151000000Y-144250000D01*
X89250000Y-144250000D02*
X89905942Y-144250000D01*
D45*
X92570000Y-116430000D02*
X92570000Y-108500000D01*
D48*
X55750000Y-57000000D02*
X55750000Y-66000000D01*
D45*
X91920000Y-125460000D02*
X91920000Y-117080000D01*
D46*
X65500000Y-50500000D02*
X65500000Y-46000000D01*
D45*
X138787500Y-87250000D02*
X139495000Y-87250000D01*
D48*
X154250000Y-105250000D02*
X154250000Y-92250000D01*
D45*
X85156500Y-88656500D02*
X85156500Y-78510000D01*
X145209000Y-77751000D02*
X146460000Y-76500000D01*
X83644008Y-116005000D02*
X83750000Y-115899008D01*
X89905942Y-140940000D02*
X89905942Y-144250000D01*
D48*
X55750000Y-74500000D02*
X55750000Y-101250000D01*
D45*
X124137924Y-87950000D02*
X126250000Y-87950000D01*
X120250000Y-96462500D02*
X120250000Y-91837924D01*
D48*
X154250000Y-74500000D02*
X154250000Y-70250000D01*
D46*
X128000000Y-49500000D02*
X128000000Y-45750000D01*
X147960000Y-78000000D02*
X154250000Y-78000000D01*
D45*
X55924000Y-116000000D02*
X55750000Y-115826000D01*
D48*
X55750000Y-101250000D02*
X55750000Y-104750000D01*
X70500000Y-144250000D02*
X89250000Y-144250000D01*
D45*
X117690000Y-100550000D02*
X117690000Y-99022500D01*
X92570000Y-108500000D02*
X92570000Y-105857500D01*
X59000000Y-56000000D02*
X55750000Y-56000000D01*
X150790000Y-118010000D02*
X154240000Y-118010000D01*
X79750000Y-87575000D02*
X79750000Y-88500000D01*
X107520000Y-116655000D02*
X108750000Y-115425000D01*
D48*
X70000000Y-45750000D02*
X65750000Y-45750000D01*
X55750000Y-56000000D02*
X55750000Y-57000000D01*
X154250000Y-48750000D02*
X151250000Y-45750000D01*
X55750000Y-66000000D02*
X55750000Y-74500000D01*
D45*
X81495000Y-116005000D02*
X78080000Y-116005000D01*
D46*
X146460000Y-76500000D02*
X147960000Y-78000000D01*
D45*
X147610000Y-91660000D02*
X148250000Y-92300000D01*
X57000000Y-101600000D02*
X56100000Y-101600000D01*
D48*
X151000000Y-144250000D02*
X154250000Y-141000000D01*
D45*
X91920000Y-128505000D02*
X91425000Y-129000000D01*
X77250000Y-69212500D02*
X76962500Y-68925000D01*
D46*
X65500000Y-46000000D02*
X65750000Y-45750000D01*
D45*
X120250000Y-91837924D02*
X124137924Y-87950000D01*
D48*
X89905942Y-144250000D02*
X113000000Y-144250000D01*
D45*
X56100000Y-101600000D02*
X55750000Y-101250000D01*
X67100000Y-141850000D02*
X69500000Y-144250000D01*
D48*
X55750000Y-48750000D02*
X55750000Y-56000000D01*
D46*
X67040000Y-52040000D02*
X65500000Y-50500000D01*
D45*
X58000000Y-74500000D02*
X55750000Y-74500000D01*
X132799000Y-77751000D02*
X145209000Y-77751000D01*
D48*
X154250000Y-62456050D02*
X154250000Y-48750000D01*
D45*
X59000000Y-75500000D02*
X58000000Y-74500000D01*
X117690000Y-99022500D02*
X118712500Y-98000000D01*
X59000000Y-83000000D02*
X59000000Y-80000000D01*
X104295000Y-116655000D02*
X107520000Y-116655000D01*
D48*
X154250000Y-78000000D02*
X154250000Y-74500000D01*
X154250000Y-74500000D02*
X154250000Y-62557050D01*
D45*
X154200000Y-92300000D02*
X154250000Y-92250000D01*
X149500000Y-70250000D02*
X154250000Y-70250000D01*
X102655000Y-116655000D02*
X104295000Y-116655000D01*
X112815157Y-140940000D02*
X112815157Y-144065157D01*
X139495000Y-87250000D02*
X143905000Y-91660000D01*
D48*
X55750000Y-105250000D02*
X55750000Y-115826000D01*
D45*
X76962500Y-65080965D02*
X79835464Y-62208001D01*
X148250000Y-118010000D02*
X150790000Y-118010000D01*
X78080000Y-116005000D02*
X77250000Y-115175000D01*
X126250000Y-70025000D02*
X129250000Y-67025000D01*
X59000000Y-80000000D02*
X59000000Y-75500000D01*
D48*
X69500000Y-144250000D02*
X70500000Y-144250000D01*
D45*
X74249972Y-115950028D02*
X74200000Y-116000000D01*
D46*
%TO.N,Net-(U4-VI)*%
X138220000Y-63525000D02*
X138220000Y-61777500D01*
D45*
X141997500Y-58000000D02*
X140657500Y-59340000D01*
D46*
X138220000Y-61777500D02*
X140657500Y-59340000D01*
X149000000Y-58000000D02*
X141997500Y-58000000D01*
D47*
%TO.N,Net-(D2-K)*%
X78475000Y-108500000D02*
X77250000Y-109725000D01*
X79500000Y-108500000D02*
X78475000Y-108500000D01*
%TO.N,Net-(D4-K)*%
X126250000Y-67975000D02*
X126250000Y-65250000D01*
%TO.N,Net-(D1-K)*%
X126250000Y-92750000D02*
X126250000Y-90000000D01*
D44*
%TO.N,RESB*%
X70100000Y-88250000D02*
X70100000Y-86600000D01*
X71250000Y-114547700D02*
X70204000Y-113501700D01*
X57750000Y-96500000D02*
X57750000Y-90000000D01*
X70204000Y-113501700D02*
X70204000Y-103935600D01*
X76322600Y-52733884D02*
X76322600Y-52731055D01*
X71250000Y-120750000D02*
X71250000Y-114547700D01*
X76322600Y-52731055D02*
X77013655Y-52040000D01*
X61000000Y-81000000D02*
X60750000Y-81250000D01*
X70204000Y-103935600D02*
X70100000Y-103831600D01*
X77013655Y-52040000D02*
X77200000Y-52040000D01*
X61000000Y-80000000D02*
X61000000Y-81000000D01*
X99720000Y-124128530D02*
X99720000Y-125460000D01*
X70000000Y-59056484D02*
X76322600Y-52733884D01*
X57750000Y-90000000D02*
X57750000Y-84290000D01*
X70100000Y-103831600D02*
X70100000Y-88250000D01*
X70000000Y-86500000D02*
X70000000Y-59056484D01*
X57750000Y-84290000D02*
X57710000Y-84250000D01*
X70100000Y-86600000D02*
X70000000Y-86500000D01*
X100174265Y-123674265D02*
X99720000Y-124128530D01*
%TO.N,DTRB3*%
X100065942Y-140940000D02*
X98914942Y-139789000D01*
X98914942Y-136250000D02*
X98914942Y-132482042D01*
X98914942Y-139789000D02*
X98914942Y-136250000D01*
X93220000Y-126787100D02*
X93220000Y-125460000D01*
X98914942Y-132482042D02*
X93220000Y-126787100D01*
%TO.N,RXD3*%
X106460001Y-134750000D02*
X98420000Y-126709999D01*
X121000000Y-137000000D02*
X118750000Y-134750000D01*
X122975157Y-140940000D02*
X121750000Y-139714843D01*
X121750000Y-137750000D02*
X121000000Y-137000000D01*
X98420000Y-126709999D02*
X98420000Y-125460000D01*
X121750000Y-139714843D02*
X121750000Y-137750000D01*
X118750000Y-134750000D02*
X106460001Y-134750000D01*
%TO.N,TXD3*%
X106610001Y-134250000D02*
X108150000Y-134250000D01*
X122975157Y-137975157D02*
X122975157Y-138400000D01*
X99070000Y-125460000D02*
X99070000Y-126709999D01*
X119150000Y-134150000D02*
X122975157Y-137975157D01*
X99070000Y-126709999D02*
X106610001Y-134250000D01*
X108150000Y-134250000D02*
X108250000Y-134150000D01*
X108250000Y-134150000D02*
X119150000Y-134150000D01*
%TO.N,DSRB3*%
X93870000Y-125460000D02*
X93870000Y-126870000D01*
X93870000Y-126870000D02*
X100065942Y-133065942D01*
X100065942Y-133065942D02*
X100065942Y-138400000D01*
%TO.N,d0*%
X126796800Y-60750000D02*
X126796800Y-50836800D01*
X126796800Y-50836800D02*
X125460000Y-49500000D01*
X109455500Y-91517630D02*
X110556500Y-92618630D01*
X109880000Y-60750000D02*
X109880000Y-61250000D01*
X109879000Y-61251000D02*
X109879000Y-73044439D01*
X109879000Y-73044439D02*
X110480000Y-73645439D01*
X110480000Y-73645439D02*
X109455500Y-74669939D01*
X111820000Y-110000000D02*
X111820000Y-95013500D01*
X130500000Y-120305000D02*
X128665000Y-122140000D01*
X83250000Y-112223358D02*
X83250000Y-112249999D01*
X84590123Y-110883235D02*
X83250000Y-112223358D01*
X110556500Y-92618630D02*
X110556500Y-93750000D01*
X83250000Y-112249999D02*
X82744999Y-112755000D01*
X130000000Y-111500000D02*
X130500000Y-112000000D01*
X130500000Y-112000000D02*
X130500000Y-120305000D01*
X82744999Y-112755000D02*
X81495000Y-112755000D01*
X109455500Y-74669939D02*
X109455500Y-91517630D01*
X111820000Y-95013500D02*
X110556500Y-93750000D01*
X109880000Y-61250000D02*
X109879000Y-61251000D01*
%TO.N,d1*%
X113400000Y-110600000D02*
X113400000Y-94053500D01*
X82845000Y-113405000D02*
X84413368Y-111836632D01*
X113020000Y-61430000D02*
X113100000Y-61350000D01*
X81495000Y-113405000D02*
X82845000Y-113405000D01*
X113400000Y-93620000D02*
X113020000Y-93240000D01*
X111919000Y-91000000D02*
X113096500Y-92177500D01*
X84413368Y-111836632D02*
X84485256Y-111836632D01*
X125460000Y-61350000D02*
X125460000Y-52040000D01*
X125876713Y-110802314D02*
X125876713Y-116811713D01*
X111919000Y-91000000D02*
X111919000Y-74746439D01*
X113400000Y-94053500D02*
X113096500Y-93750000D01*
X111919000Y-74746439D02*
X113020000Y-73645439D01*
X125876713Y-116811713D02*
X128665000Y-119600000D01*
X113096500Y-93750000D02*
X113498000Y-94151500D01*
X113020000Y-73645439D02*
X111920000Y-74745439D01*
X113096500Y-92177500D02*
X113096500Y-93750000D01*
X113020000Y-73645439D02*
X113020000Y-61430000D01*
%TO.N,d2*%
X84557164Y-112633396D02*
X84183704Y-112633396D01*
X82762100Y-114055000D02*
X81495000Y-114055000D01*
X115636500Y-80136500D02*
X114459000Y-78959000D01*
X115000000Y-111200000D02*
X115000000Y-94386500D01*
X124206000Y-61751000D02*
X124206000Y-50786000D01*
X128560000Y-117060000D02*
X128665000Y-117060000D01*
X115000000Y-94386500D02*
X115636500Y-93750000D01*
X126500000Y-111402314D02*
X126500000Y-115000000D01*
X115560000Y-75940000D02*
X115560000Y-73645439D01*
X84183704Y-112633396D02*
X82762100Y-114055000D01*
X115560000Y-61751000D02*
X115560000Y-73645439D01*
X114459000Y-78959000D02*
X114459000Y-77041000D01*
X114459000Y-77041000D02*
X115560000Y-75940000D01*
X115636500Y-93750000D02*
X115636500Y-80136500D01*
X124206000Y-50786000D02*
X122920000Y-49500000D01*
X126500000Y-115000000D02*
X128560000Y-117060000D01*
%TO.N,d3*%
X84192702Y-113257297D02*
X82744999Y-114705000D01*
X119277500Y-79611000D02*
X119277500Y-94722500D01*
X118100000Y-65600000D02*
X118100000Y-58405439D01*
X118176500Y-78510000D02*
X119277500Y-79611000D01*
X82744999Y-114705000D02*
X81495000Y-114705000D01*
X85157164Y-113257297D02*
X84192702Y-113257297D01*
X117000000Y-97000000D02*
X117000000Y-112100000D01*
X122920000Y-57985439D02*
X122500000Y-58405439D01*
X127365189Y-113220189D02*
X128665000Y-114520000D01*
X119277500Y-94722500D02*
X117000000Y-97000000D01*
X127365189Y-112002314D02*
X127365189Y-113220189D01*
X119201000Y-77485500D02*
X119201000Y-66701000D01*
X122920000Y-52040000D02*
X122920000Y-57985439D01*
X119201000Y-66701000D02*
X118100000Y-65600000D01*
X118176500Y-78510000D02*
X119201000Y-77485500D01*
%TO.N,d4*%
X121531000Y-62351000D02*
X121531000Y-50651000D01*
X116737500Y-79611000D02*
X115636500Y-78510000D01*
X116660000Y-75750000D02*
X115636500Y-76773500D01*
X116660000Y-75750000D02*
X116660000Y-59505439D01*
X84324978Y-113953017D02*
X82978995Y-115299000D01*
X116000000Y-95750000D02*
X116737500Y-95012500D01*
X81551000Y-115299000D02*
X81495000Y-115355000D01*
X121531000Y-50651000D02*
X120380000Y-49500000D01*
X116000000Y-112600000D02*
X116000000Y-95750000D01*
X116660000Y-59505439D02*
X115560000Y-58405439D01*
X82978995Y-115299000D02*
X81551000Y-115299000D01*
X115636500Y-76773500D02*
X115636500Y-78510000D01*
X116660000Y-62351000D02*
X116660000Y-59505439D01*
X116737500Y-95012500D02*
X116737500Y-79611000D01*
X85757164Y-113953017D02*
X84324978Y-113953017D01*
%TO.N,d5*%
X114099000Y-109000000D02*
X114197500Y-108901500D01*
X120380000Y-62951000D02*
X120380000Y-52040000D01*
X114197500Y-108901500D02*
X114197500Y-79611000D01*
X113989327Y-60020143D02*
X114120000Y-60150816D01*
X86500000Y-116000000D02*
X85000000Y-117500000D01*
X114099000Y-113001000D02*
X114000000Y-113100000D01*
X114120000Y-60150816D02*
X114120000Y-63000000D01*
X82664870Y-117305000D02*
X81495000Y-117305000D01*
X85000000Y-117500000D02*
X82859870Y-117500000D01*
X114099000Y-109000000D02*
X114099000Y-113001000D01*
X82859870Y-117500000D02*
X82664870Y-117305000D01*
X114197500Y-79611000D02*
X113096500Y-78510000D01*
X113096500Y-75125989D02*
X114120000Y-74102489D01*
X113096500Y-78510000D02*
X113096500Y-75125989D01*
X114120000Y-74102489D02*
X114120000Y-63000000D01*
X86500000Y-114250000D02*
X86500000Y-116000000D01*
%TO.N,d6*%
X87136041Y-114750000D02*
X87136041Y-116113959D01*
X87136041Y-116113959D02*
X85291555Y-117958445D01*
X110480000Y-75201074D02*
X110480000Y-89553800D01*
X119201000Y-63600000D02*
X119201000Y-50861000D01*
X111580000Y-74101074D02*
X110480000Y-75201074D01*
X110480000Y-63450000D02*
X110480000Y-71304686D01*
X110500000Y-91500000D02*
X111919000Y-92919000D01*
X111580000Y-72404686D02*
X111580000Y-74101074D01*
X110480000Y-71304686D02*
X111580000Y-72404686D01*
X119201000Y-50861000D02*
X117840000Y-49500000D01*
X85291555Y-117958445D02*
X81498445Y-117958445D01*
X111919000Y-92919000D02*
X111919000Y-94499000D01*
X110480000Y-63450000D02*
X110480000Y-58405439D01*
X112500000Y-95080000D02*
X112500000Y-107000000D01*
X110500000Y-89573800D02*
X110500000Y-91500000D01*
X112500000Y-113350000D02*
X112500000Y-107000000D01*
X111919000Y-94499000D02*
X112500000Y-95080000D01*
X81498445Y-117958445D02*
X81495000Y-117955000D01*
X110480000Y-89553800D02*
X110500000Y-89573800D01*
%TO.N,d7*%
X88000000Y-115000000D02*
X88000000Y-115817100D01*
X109041000Y-74101489D02*
X109041000Y-65058200D01*
X117500000Y-59500000D02*
X116990000Y-58990000D01*
X111220000Y-95970550D02*
X109117500Y-93868050D01*
X108204000Y-58669439D02*
X107940000Y-58405439D01*
X108204000Y-64221200D02*
X108204000Y-58669439D01*
X107940000Y-75202489D02*
X109041000Y-74101489D01*
X111220000Y-105000000D02*
X111220000Y-95970550D01*
X88000000Y-115817100D02*
X85212100Y-118605000D01*
X111250000Y-113850000D02*
X111199000Y-113799000D01*
X117500000Y-64221200D02*
X117500000Y-59500000D01*
X111199000Y-113799000D02*
X111199000Y-106000000D01*
X85212100Y-118605000D02*
X81495000Y-118605000D01*
X109041000Y-65058200D02*
X108204000Y-64221200D01*
X109117500Y-92444600D02*
X107940000Y-91267100D01*
X109117500Y-93868050D02*
X109117500Y-92444600D01*
X111220000Y-105979000D02*
X111220000Y-105000000D01*
X111199000Y-106000000D02*
X111220000Y-105979000D01*
X116990000Y-52890000D02*
X117840000Y-52040000D01*
X116990000Y-58990000D02*
X116990000Y-52890000D01*
X107940000Y-91267100D02*
X107940000Y-75202489D01*
%TO.N,a0*%
X107500000Y-60604000D02*
X107604000Y-60500000D01*
X132500000Y-89500000D02*
X132000000Y-89000000D01*
X107940000Y-73645439D02*
X107500000Y-73205439D01*
X110599000Y-96332500D02*
X110599000Y-111901000D01*
X108000000Y-93750000D02*
X108016500Y-93750000D01*
X106495000Y-116005000D02*
X104295000Y-116005000D01*
X106839000Y-92589000D02*
X108000000Y-93750000D01*
X132500000Y-134500000D02*
X132500000Y-89500000D01*
X110599000Y-111901000D02*
X106495000Y-116005000D01*
X106840000Y-74745439D02*
X107940000Y-73645439D01*
X107940000Y-73645439D02*
X106839000Y-74746439D01*
X108016500Y-93750000D02*
X110599000Y-96332500D01*
X107500000Y-73205439D02*
X107500000Y-60604000D01*
X106839000Y-74746439D02*
X106839000Y-92589000D01*
%TO.N,a1*%
X105400000Y-66100000D02*
X105400000Y-73645439D01*
X133100000Y-88968626D02*
X132565687Y-88434313D01*
X106145000Y-115355000D02*
X110198000Y-111302000D01*
X114614561Y-59521058D02*
X114960000Y-59866497D01*
X133100000Y-132500000D02*
X133100000Y-88968626D01*
X104299000Y-88500000D02*
X104299000Y-92554850D01*
X104299000Y-74746439D02*
X105400000Y-73645439D01*
X104295000Y-115355000D02*
X106145000Y-115355000D01*
X110198000Y-98471500D02*
X105476500Y-93750000D01*
X104401000Y-92656850D02*
X104401000Y-92674500D01*
X104299000Y-88500000D02*
X104299000Y-74746439D01*
X110198000Y-111302000D02*
X110198000Y-98471500D01*
X106000000Y-65500000D02*
X105400000Y-66100000D01*
X104299000Y-92554850D02*
X104401000Y-92656850D01*
X114960000Y-59866497D02*
X114960000Y-65500000D01*
X104401000Y-92674500D02*
X105476500Y-93750000D01*
%TO.N,a2*%
X112500000Y-65700000D02*
X112500000Y-60500000D01*
X101759000Y-88000000D02*
X101759000Y-74746440D01*
X133700000Y-129500000D02*
X133700000Y-88437252D01*
X102936500Y-92618630D02*
X101759000Y-91441130D01*
X109350000Y-111150000D02*
X105795000Y-114705000D01*
X102860000Y-73645439D02*
X101760000Y-74745439D01*
X102000000Y-66350000D02*
X102000000Y-72785439D01*
X101759000Y-91441130D02*
X101759000Y-88000000D01*
X102936500Y-98600000D02*
X102936500Y-93750000D01*
X112150000Y-66050000D02*
X112500000Y-65700000D01*
X114121000Y-50861000D02*
X112760000Y-49500000D01*
X114121000Y-58879000D02*
X114121000Y-50861000D01*
X102936500Y-93750000D02*
X102936500Y-92618630D01*
X109350000Y-98472028D02*
X109350000Y-111150000D01*
X102000000Y-72785439D02*
X102860000Y-73645439D01*
X105795000Y-114705000D02*
X104295000Y-114705000D01*
X112150000Y-66100000D02*
X112150000Y-66050000D01*
X133700000Y-88437252D02*
X133131374Y-87868626D01*
X101759000Y-74746440D02*
X102860000Y-73645439D01*
X102250000Y-66100000D02*
X102000000Y-66350000D01*
X112500000Y-60500000D02*
X114121000Y-58879000D01*
%TO.N,a3*%
X108750000Y-100500057D02*
X108749000Y-100501057D01*
X134300000Y-127000000D02*
X134300000Y-87905878D01*
X99295500Y-87750000D02*
X99295500Y-74669939D01*
X134300000Y-87905878D02*
X133697061Y-87302939D01*
X108749000Y-100501057D02*
X108749000Y-100998943D01*
X100720000Y-71340000D02*
X100320000Y-71740000D01*
X108750000Y-97872029D02*
X108750000Y-100500057D01*
X111080000Y-59420000D02*
X111919000Y-58581000D01*
X111919000Y-52881000D02*
X112760000Y-52040000D01*
X111919000Y-58581000D02*
X111919000Y-52881000D01*
X105877900Y-114055000D02*
X104295000Y-114055000D01*
X99295500Y-74669939D02*
X100320000Y-73645439D01*
X100320000Y-71740000D02*
X100320000Y-73645439D01*
X108750000Y-100999943D02*
X108749999Y-111182901D01*
X100396500Y-92618630D02*
X100396500Y-93750000D01*
X100396500Y-98150000D02*
X100396500Y-93750000D01*
X111080000Y-66700000D02*
X111080000Y-59420000D01*
X99295500Y-91517630D02*
X100396500Y-92618630D01*
X108626042Y-97748071D02*
X108750000Y-97872029D01*
X99295500Y-87750000D02*
X99295500Y-91517630D01*
X108749999Y-111182901D02*
X105877900Y-114055000D01*
X100720000Y-66750000D02*
X100720000Y-71340000D01*
X108749000Y-100998943D02*
X108750000Y-100999943D01*
%TO.N,a4*%
X108000000Y-97250000D02*
X108000000Y-110949999D01*
X97856500Y-97513500D02*
X97856500Y-93750000D01*
X96679000Y-92572500D02*
X97856500Y-93750000D01*
X108000000Y-110949999D02*
X105544999Y-113405000D01*
X109118400Y-54769360D02*
X111371000Y-52516760D01*
X96679000Y-74746439D02*
X96679000Y-92572500D01*
X97780000Y-73645439D02*
X96679000Y-74746439D01*
X105544999Y-113405000D02*
X104295000Y-113405000D01*
X97820000Y-97550000D02*
X97856500Y-97513500D01*
X97780000Y-64280000D02*
X97500000Y-64000000D01*
X111371000Y-50651000D02*
X110220000Y-49500000D01*
X111371000Y-52516760D02*
X111371000Y-50651000D01*
X109118400Y-63250000D02*
X109118400Y-54769360D01*
X97780000Y-73645439D02*
X97780000Y-64280000D01*
%TO.N,a5*%
X107200000Y-111099999D02*
X105544999Y-112755000D01*
X106780668Y-55719332D02*
X110220000Y-52280000D01*
X94215500Y-92649000D02*
X94215500Y-74669939D01*
X107200000Y-99000000D02*
X107200000Y-111099999D01*
X105544999Y-112755000D02*
X104295000Y-112755000D01*
X94215500Y-74669939D02*
X95240000Y-73645439D01*
X95316500Y-93750000D02*
X94215500Y-92649000D01*
X95240000Y-73645439D02*
X95240000Y-67500000D01*
X110220000Y-52280000D02*
X110220000Y-52040000D01*
X107223055Y-98976945D02*
X107200000Y-99000000D01*
X95316500Y-96350000D02*
X95316500Y-93750000D01*
X107223055Y-96345082D02*
X107223055Y-98976945D01*
X106780668Y-67600000D02*
X106780668Y-55719332D01*
%TO.N,a6*%
X93008949Y-93982449D02*
X92776500Y-93750000D01*
X91600000Y-74745439D02*
X92700000Y-73645439D01*
X106600000Y-95850000D02*
X106600000Y-111049999D01*
X92700000Y-73645439D02*
X92700000Y-68300000D01*
X91599000Y-74746438D02*
X91599000Y-92572500D01*
X92700000Y-73645439D02*
X91599000Y-74746438D01*
X91599000Y-92572500D02*
X92776500Y-93750000D01*
X93008949Y-95502983D02*
X93008949Y-93982449D01*
X104114600Y-54885400D02*
X106426000Y-52574000D01*
X106000000Y-95250000D02*
X106600000Y-95850000D01*
X92700000Y-68300000D02*
X93000000Y-68000000D01*
X106426000Y-50754000D02*
X107680000Y-49500000D01*
X105544999Y-112105000D02*
X104295000Y-112105000D01*
X106600000Y-111049999D02*
X105544999Y-112105000D01*
X106426000Y-52574000D02*
X106426000Y-50754000D01*
X104114600Y-68100000D02*
X104114600Y-54885400D01*
%TO.N,a7*%
X105464870Y-111455000D02*
X104295000Y-111455000D01*
X90800000Y-93750000D02*
X90236500Y-93750000D01*
X90160000Y-60840000D02*
X90500000Y-60500000D01*
X105885421Y-96950000D02*
X105885421Y-111005291D01*
X89059000Y-92572500D02*
X90236500Y-93750000D01*
X90160000Y-73645439D02*
X89059000Y-74746438D01*
X105885421Y-111005291D02*
X105900000Y-111019870D01*
X89059000Y-74746438D02*
X89059000Y-92572500D01*
X105900000Y-111019870D02*
X105464870Y-111455000D01*
X90800000Y-96850000D02*
X90800000Y-93750000D01*
X90160000Y-60840000D02*
X90160000Y-73645439D01*
X89060000Y-74745439D02*
X90160000Y-73645439D01*
%TO.N,a8*%
X92776500Y-77000000D02*
X92776500Y-80000000D01*
X105000000Y-110100000D02*
X104295000Y-110805000D01*
X92776500Y-77000000D02*
X92776500Y-78510000D01*
X93800000Y-59505439D02*
X93800000Y-74518339D01*
X104963343Y-95150000D02*
X105000000Y-95186657D01*
X94000000Y-95150000D02*
X94000000Y-93250000D01*
X105000000Y-95186657D02*
X105000000Y-110100000D01*
X92700000Y-58405439D02*
X93800000Y-59505439D01*
X92776500Y-80000000D02*
X92776500Y-78510000D01*
X94000000Y-93250000D02*
X92776500Y-92026500D01*
X92776500Y-75541839D02*
X92776500Y-77000000D01*
X93800000Y-74518339D02*
X92776500Y-75541839D01*
X92776500Y-92026500D02*
X92776500Y-80000000D01*
%TO.N,a9*%
X96500000Y-97733140D02*
X96500000Y-93376450D01*
X96522991Y-97756131D02*
X96500000Y-97733140D01*
X99720000Y-108500000D02*
X99720000Y-98273503D01*
X96340000Y-64462077D02*
X95240000Y-63362077D01*
X99720000Y-98273503D02*
X99596497Y-98150000D01*
X95240000Y-75201074D02*
X96340000Y-74101074D01*
X96340000Y-74101074D02*
X96340000Y-64462077D01*
X96500000Y-93376450D02*
X95240000Y-92116450D01*
X95240000Y-92116450D02*
X95240000Y-75201074D01*
X95240000Y-63362077D02*
X95240000Y-58405439D01*
%TO.N,a10*%
X103838525Y-92661475D02*
X104037500Y-92860450D01*
X102600000Y-49500000D02*
X103835200Y-50735200D01*
X104000000Y-92822950D02*
X103838525Y-92661475D01*
X103835200Y-53213000D02*
X102860000Y-54188200D01*
X102860000Y-75201074D02*
X102860000Y-91682950D01*
X102860000Y-70449600D02*
X103960000Y-71549600D01*
X102860000Y-54188200D02*
X102860000Y-58405439D01*
X102860000Y-58405439D02*
X102860000Y-70449600D01*
X99070000Y-99050000D02*
X99070000Y-108500000D01*
X104037500Y-99072028D02*
X104037500Y-92860450D01*
X102860000Y-91682950D02*
X103338525Y-92161475D01*
X103960000Y-71549600D02*
X103960000Y-74101074D01*
X99120000Y-99000000D02*
X99070000Y-99050000D01*
X103835200Y-50735200D02*
X103835200Y-53213000D01*
X103338525Y-92161475D02*
X104037500Y-92860450D01*
X103960000Y-74101074D02*
X102860000Y-75201074D01*
X103338525Y-92161475D02*
X103838525Y-92661475D01*
%TO.N,a11*%
X98234635Y-72544439D02*
X98181000Y-72490804D01*
X98420000Y-94830000D02*
X98957500Y-94292500D01*
X98957500Y-92677500D02*
X97780000Y-91500000D01*
X102600000Y-53242081D02*
X101750000Y-54092081D01*
X102600000Y-52040000D02*
X102600000Y-53242081D01*
X98881000Y-74101489D02*
X98881000Y-73189389D01*
X97780000Y-75202489D02*
X98881000Y-74101489D01*
X98957500Y-94292500D02*
X98957500Y-92677500D01*
X98881000Y-73189389D02*
X98236050Y-72544439D01*
X101750000Y-54092081D02*
X101750000Y-61100000D01*
X98236050Y-72544439D02*
X98234635Y-72544439D01*
X98181000Y-64113900D02*
X98180000Y-64112900D01*
X98180000Y-64112900D02*
X98180000Y-58805439D01*
X98420000Y-108500000D02*
X98420000Y-94830000D01*
X98180000Y-58805439D02*
X97780000Y-58405439D01*
X97780000Y-91500000D02*
X97780000Y-75202489D01*
X98181000Y-72490804D02*
X98181000Y-64113900D01*
%TO.N,a12*%
X86520000Y-92573500D02*
X87696500Y-93750000D01*
X99220000Y-56024800D02*
X101371400Y-53873400D01*
X87620000Y-69663248D02*
X87620000Y-73645439D01*
X88000000Y-69283248D02*
X87620000Y-69663248D01*
X97770000Y-108500000D02*
X97770000Y-99461339D01*
X99000000Y-69100000D02*
X99220000Y-68880000D01*
X99220000Y-68880000D02*
X99220000Y-56024800D01*
X87750000Y-98750000D02*
X87696500Y-98696500D01*
X87620000Y-73645439D02*
X86520000Y-74745439D01*
X97770000Y-99461339D02*
X97820000Y-99411339D01*
X88000000Y-69000000D02*
X88000000Y-69283248D01*
X101371400Y-50811400D02*
X100060000Y-49500000D01*
X101371400Y-53873400D02*
X101371400Y-50811400D01*
X86520000Y-74745439D02*
X86520000Y-92573500D01*
X87696500Y-98696500D02*
X87696500Y-93750000D01*
%TO.N,a13*%
X91500000Y-98750000D02*
X91500000Y-93456450D01*
X97219000Y-98881000D02*
X97250000Y-98850000D01*
X91261000Y-59506439D02*
X91261000Y-74517338D01*
X90160000Y-58405439D02*
X91261000Y-59506439D01*
X90236500Y-75541838D02*
X90236500Y-76750000D01*
X90236500Y-76750000D02*
X90236500Y-78510000D01*
X90236500Y-78510000D02*
X90236500Y-80000000D01*
X97219000Y-99660282D02*
X97219000Y-98881000D01*
X90236500Y-76750000D02*
X90236500Y-80000000D01*
X97221450Y-99662732D02*
X97219000Y-99660282D01*
X90236500Y-92192950D02*
X90236500Y-80000000D01*
X97221450Y-108398550D02*
X97221450Y-99662732D01*
X91261000Y-74517338D02*
X90236500Y-75541838D01*
X97120000Y-108500000D02*
X97221450Y-108398550D01*
X91500000Y-93456450D02*
X90236500Y-92192950D01*
%TO.N,a14*%
X96820450Y-106816649D02*
X96820450Y-100371450D01*
X96945023Y-64500000D02*
X96469200Y-64024177D01*
X96945023Y-69600000D02*
X96945023Y-64500000D01*
X98806000Y-54356000D02*
X98806000Y-50786000D01*
X96469200Y-56692800D02*
X98806000Y-54356000D01*
X85080000Y-70106400D02*
X85080000Y-73645439D01*
X83979000Y-92572500D02*
X83979000Y-74746439D01*
X96469200Y-64024177D02*
X96469200Y-56692800D01*
X96820450Y-100371450D02*
X96500000Y-100051000D01*
X85686400Y-69500000D02*
X85080000Y-70106400D01*
X98806000Y-50786000D02*
X97520000Y-49500000D01*
X85156500Y-93750000D02*
X83979000Y-92572500D01*
X96470000Y-107167100D02*
X96820450Y-106816649D01*
X83979000Y-74746439D02*
X85080000Y-73645439D01*
X85156500Y-99000000D02*
X85156500Y-93750000D01*
X96470000Y-108500000D02*
X96470000Y-107167100D01*
%TO.N,a15*%
X83640000Y-73188389D02*
X83640000Y-59505439D01*
X83041000Y-97301000D02*
X83041000Y-74701489D01*
X83240000Y-97500000D02*
X83041000Y-97301000D01*
X95820000Y-107250001D02*
X96419450Y-106650550D01*
X96419450Y-106650550D02*
X96419450Y-100820394D01*
X95820000Y-108500000D02*
X95820000Y-107250001D01*
X95750000Y-100150943D02*
X95750000Y-97550000D01*
X96419450Y-100820394D02*
X95750000Y-100150943D01*
X83640000Y-59505439D02*
X82540000Y-58405439D01*
X83641000Y-74101489D02*
X83641000Y-73189389D01*
X83041000Y-74701489D02*
X83641000Y-74101489D01*
X83641000Y-73189389D02*
X83640000Y-73188389D01*
%TO.N,csb0*%
X88670000Y-107170000D02*
X86500000Y-105000000D01*
X86500000Y-105000000D02*
X79634200Y-105000000D01*
X83560000Y-55149400D02*
X86106000Y-52603400D01*
X74750000Y-85750000D02*
X73607000Y-84607000D01*
X86106000Y-50786000D02*
X84820000Y-49500000D01*
X74810000Y-85961000D02*
X74750000Y-85901000D01*
X86106000Y-52603400D02*
X86106000Y-50786000D01*
X79634200Y-105000000D02*
X74750000Y-100115800D01*
X73607000Y-68248300D02*
X74006000Y-67849300D01*
X74402000Y-59884244D02*
X76000000Y-58286244D01*
X73607000Y-84607000D02*
X73607000Y-68248300D01*
X80678373Y-55549400D02*
X81078373Y-55149400D01*
X74402000Y-60844496D02*
X74402000Y-59884244D01*
X78701491Y-55549399D02*
X80678373Y-55549400D01*
X81078373Y-55149400D02*
X83560000Y-55149400D01*
X76000000Y-58286244D02*
X76000000Y-58250890D01*
X74006000Y-61240496D02*
X74402000Y-60844496D01*
X74750000Y-100115800D02*
X74750000Y-87384200D01*
X74810000Y-87324200D02*
X74810000Y-85961000D01*
X88670000Y-108500000D02*
X88670000Y-107170000D01*
X74750000Y-87384200D02*
X74810000Y-87324200D01*
X74006000Y-67849300D02*
X74006000Y-61240496D01*
X76000000Y-58250890D02*
X78701491Y-55549399D01*
X74750000Y-85901000D02*
X74750000Y-85750000D01*
%TO.N,csb1*%
X74100000Y-90500000D02*
X73901000Y-90699000D01*
X124750000Y-92961000D02*
X126250000Y-94461000D01*
X73609000Y-85176100D02*
X73206000Y-84773100D01*
X84820000Y-53242081D02*
X84820000Y-52040000D01*
X126675000Y-94750000D02*
X126250000Y-94750000D01*
X128665000Y-96740000D02*
X126675000Y-94750000D01*
X83411681Y-54650400D02*
X84820000Y-53242081D01*
X126250000Y-94461000D02*
X126250000Y-94750000D01*
X80561273Y-55099400D02*
X81010273Y-54650400D01*
X73901000Y-90699000D02*
X73901000Y-99833900D01*
X73605000Y-61074396D02*
X74001000Y-60678396D01*
X74000000Y-87567100D02*
X74409000Y-87158100D01*
X74001000Y-59682790D02*
X78584390Y-55099400D01*
X124039000Y-90500000D02*
X124750000Y-91211000D01*
X74100000Y-90500000D02*
X74000000Y-90400000D01*
X86250000Y-105500000D02*
X88020000Y-107270000D01*
X81010273Y-54650400D02*
X83411681Y-54650400D01*
X88020000Y-107270000D02*
X88020000Y-108500000D01*
X74409000Y-87158100D02*
X74409000Y-86127100D01*
X78584390Y-55099400D02*
X80561273Y-55099400D01*
X74000000Y-90400000D02*
X74000000Y-87567100D01*
X73206000Y-68082200D02*
X73605000Y-67683200D01*
X73609000Y-85327100D02*
X73609000Y-85176100D01*
X124750000Y-91211000D02*
X124750000Y-92961000D01*
X74409000Y-86127100D02*
X73609000Y-85327100D01*
X73206000Y-84773100D02*
X73206000Y-68082200D01*
X79567100Y-105500000D02*
X86250000Y-105500000D01*
X73605000Y-67683200D02*
X73605000Y-61074396D01*
X74001000Y-60678396D02*
X74001000Y-59682790D01*
X73901000Y-99833900D02*
X79567100Y-105500000D01*
%TO.N,csb2*%
X87370000Y-109749999D02*
X87068999Y-110051000D01*
X83051000Y-110051000D02*
X81500000Y-108500000D01*
X87370000Y-108500000D02*
X87370000Y-109749999D01*
X87068999Y-110051000D02*
X83051000Y-110051000D01*
%TO.N,csb3*%
X73208000Y-85493200D02*
X73208000Y-85404700D01*
X74008000Y-86992000D02*
X74008000Y-86293200D01*
X73500000Y-100000000D02*
X73500000Y-87500000D01*
X79401000Y-105901000D02*
X73500000Y-100000000D01*
X86720000Y-106735001D02*
X85885999Y-105901000D01*
X72805000Y-85001700D02*
X72805000Y-67916100D01*
X73208000Y-85404700D02*
X72805000Y-85001700D01*
X74008000Y-86293200D02*
X73208000Y-85493200D01*
X72805000Y-67916100D02*
X73204000Y-67517100D01*
X73204000Y-67517100D02*
X73204000Y-60625453D01*
X73204000Y-60625453D02*
X73400000Y-60429453D01*
X85885999Y-105901000D02*
X79401000Y-105901000D01*
X73500000Y-87500000D02*
X74008000Y-86992000D01*
X86720000Y-108500000D02*
X86720000Y-106735001D01*
%TO.N,csb5*%
X73607928Y-107706928D02*
X73607928Y-110314876D01*
X72803000Y-67351000D02*
X72404000Y-67750000D01*
X72603000Y-61540000D02*
X72803000Y-61740000D01*
X72603000Y-61540000D02*
X72603000Y-60377926D01*
X81495000Y-110805000D02*
X80363466Y-110805000D01*
X72802000Y-106500000D02*
X72807000Y-106495000D01*
X77153830Y-55827097D02*
X77153830Y-55824268D01*
X83515200Y-52984400D02*
X83515200Y-50735200D01*
X72803000Y-61740000D02*
X72803000Y-67351000D01*
X72404000Y-85167800D02*
X72552000Y-85315800D01*
X72807000Y-103255000D02*
X72552000Y-103000000D01*
X80363466Y-110805000D02*
X80111441Y-110552975D01*
X77153830Y-55824268D02*
X78328698Y-54649400D01*
X72802000Y-106901000D02*
X73607928Y-107706928D01*
X72807000Y-106495000D02*
X72807000Y-103255000D01*
X80705581Y-54249400D02*
X82250200Y-54249400D01*
X72603000Y-60377926D02*
X77153830Y-55827097D01*
X72404000Y-67750000D02*
X72404000Y-85167800D01*
X80305581Y-54649400D02*
X80705581Y-54249400D01*
X72802000Y-106500000D02*
X72802000Y-106901000D01*
X72552000Y-85315800D02*
X72552000Y-103000000D01*
X82250200Y-54249400D02*
X83515200Y-52984400D01*
X78328698Y-54649400D02*
X80305581Y-54649400D01*
X83515200Y-50735200D02*
X82280000Y-49500000D01*
%TO.N,csb6*%
X76703830Y-55640701D02*
X76703830Y-55637872D01*
X78142302Y-54199400D02*
X80119185Y-54199400D01*
X72003000Y-60338702D02*
X76012702Y-56329000D01*
X73006000Y-107938900D02*
X72401000Y-107333900D01*
X80043706Y-111455000D02*
X79917927Y-111329221D01*
X72401000Y-107333900D02*
X72401000Y-104560043D01*
X72003000Y-67267943D02*
X72402000Y-66868943D01*
X76015531Y-56329000D02*
X76703830Y-55640701D01*
X72401000Y-104560043D02*
X72406000Y-104555043D01*
X72402000Y-66868943D02*
X72402000Y-65554200D01*
X72151000Y-85481900D02*
X72003000Y-85333900D01*
X76012702Y-56329000D02*
X76015531Y-56329000D01*
X73006000Y-110807000D02*
X73006000Y-107938900D01*
X72406000Y-104555043D02*
X72406000Y-103421100D01*
X76703830Y-55637872D02*
X78142302Y-54199400D01*
X81495000Y-111455000D02*
X80043706Y-111455000D01*
X73205000Y-111006000D02*
X73006000Y-110807000D01*
X80119185Y-54199400D02*
X80519185Y-53799400D01*
X72202000Y-65354200D02*
X72003000Y-65155200D01*
X72003000Y-85333900D02*
X72003000Y-67267943D01*
X72402000Y-65554200D02*
X72202000Y-65354200D01*
X80520600Y-53799400D02*
X82280000Y-52040000D01*
X80519185Y-53799400D02*
X80520600Y-53799400D01*
X72151000Y-103166100D02*
X72151000Y-85481900D01*
X72003000Y-65155200D02*
X72003000Y-60338702D01*
X72406000Y-103421100D02*
X72151000Y-103166100D01*
%TO.N,csb7*%
X72605000Y-109000000D02*
X72605000Y-108105000D01*
X71750000Y-103332200D02*
X71750000Y-85648000D01*
X77955906Y-53749400D02*
X79880000Y-53749400D01*
X71602000Y-60103306D02*
X77955906Y-53749400D01*
X72605000Y-108251057D02*
X72605000Y-109000000D01*
X79880000Y-53749400D02*
X81000600Y-52628800D01*
X81000600Y-52628800D02*
X81000600Y-50760600D01*
X81495000Y-112105000D02*
X80020000Y-112105000D01*
X71602000Y-66819000D02*
X71801000Y-66620000D01*
X72605000Y-108105000D02*
X72000000Y-107500000D01*
X71801000Y-66620000D02*
X71602000Y-66421000D01*
X72605000Y-111721116D02*
X72605000Y-109000000D01*
X80020000Y-112105000D02*
X80000000Y-112125000D01*
X72691942Y-111808058D02*
X72605000Y-111721116D01*
X72005000Y-104388943D02*
X72005000Y-103587200D01*
X81000600Y-50760600D02*
X79740000Y-49500000D01*
X72000000Y-107500000D02*
X72000000Y-104393943D01*
X72005000Y-103587200D02*
X71750000Y-103332200D01*
X71602000Y-66421000D02*
X71602000Y-60103306D01*
X72000000Y-104393943D02*
X72005000Y-104388943D01*
X71602000Y-85500000D02*
X71602000Y-66819000D01*
X71750000Y-85648000D02*
X71602000Y-85500000D01*
%TO.N,NMIB*%
X68500000Y-138887760D02*
X68500000Y-139800000D01*
X71100000Y-86124697D02*
X71000000Y-86224697D01*
X71404000Y-113404000D02*
X71404000Y-104140000D01*
X72805000Y-120555000D02*
X72250000Y-120000000D01*
X71000000Y-86224697D02*
X71000000Y-86307540D01*
X68500000Y-131400057D02*
X68500000Y-137912240D01*
X68500000Y-139800000D02*
X69640000Y-140940000D01*
X71000000Y-86307540D02*
X71151000Y-86458540D01*
X71201000Y-86023697D02*
X71201000Y-59655776D01*
X71100000Y-86124697D02*
X71201000Y-86023697D01*
X71151000Y-86458540D02*
X71151000Y-103887000D01*
X71151000Y-103887000D02*
X71404000Y-104140000D01*
X72805000Y-120555000D02*
X80250000Y-120555000D01*
X72250000Y-120000000D02*
X72250000Y-114250000D01*
X71201000Y-59655776D02*
X75428388Y-55428388D01*
X72250000Y-114250000D02*
X71404000Y-113404000D01*
X81495000Y-120555000D02*
X80250000Y-120555000D01*
X68489000Y-138876760D02*
X68500000Y-138887760D01*
X68500000Y-137912240D02*
X68489000Y-137923240D01*
X68500000Y-131400057D02*
X79345057Y-120555000D01*
X68489000Y-137923240D02*
X68489000Y-138876760D01*
X79345057Y-120555000D02*
X80250000Y-120555000D01*
%TO.N,IRQB*%
X71651000Y-120151000D02*
X71651000Y-114381600D01*
X71651000Y-114381600D02*
X70804000Y-113534600D01*
X69640000Y-138400000D02*
X69640000Y-131110000D01*
X70499000Y-86373640D02*
X70499000Y-85601000D01*
X76585206Y-54553000D02*
X79098206Y-52040000D01*
X70750000Y-106946000D02*
X70750000Y-86624640D01*
X70499000Y-86373640D02*
X70750000Y-86624640D01*
X70600000Y-59406833D02*
X75453833Y-54553000D01*
X70499000Y-85601000D02*
X70600000Y-85500000D01*
X72750000Y-121250000D02*
X71651000Y-120151000D01*
X79098206Y-52040000D02*
X79740000Y-52040000D01*
X75453833Y-54553000D02*
X76585206Y-54553000D01*
X81495000Y-121205000D02*
X79545000Y-121205000D01*
X70804000Y-113534600D02*
X70804000Y-107000000D01*
X70804000Y-107000000D02*
X70750000Y-106946000D01*
X70600000Y-85500000D02*
X70600000Y-59406833D01*
X69640000Y-131110000D02*
X79545000Y-121205000D01*
%TO.N,PHI2*%
X102613633Y-118605000D02*
X104295000Y-118605000D01*
X123250000Y-105980000D02*
X122770000Y-105500000D01*
X123433963Y-91100000D02*
X124000000Y-91666037D01*
X101799000Y-117790367D02*
X102613633Y-118605000D01*
X126250000Y-96336160D02*
X126250000Y-101820000D01*
X66500000Y-90650000D02*
X66500000Y-78750000D01*
X66500000Y-78750000D02*
X67001000Y-78249000D01*
X101799000Y-115951000D02*
X101799000Y-117790367D01*
X123250000Y-113350000D02*
X123250000Y-105980000D01*
X67001000Y-54619000D02*
X69580000Y-52040000D01*
X67001000Y-78249000D02*
X67001000Y-54619000D01*
X66600000Y-90750000D02*
X66500000Y-90650000D01*
X102375000Y-115375000D02*
X101799000Y-115951000D01*
X124000000Y-91666037D02*
X124000000Y-94086160D01*
X122770000Y-100550000D02*
X122770000Y-105500000D01*
X124000000Y-94086160D02*
X126250000Y-96336160D01*
%TO.N,WEB*%
X101398000Y-115399773D02*
X101398000Y-122252943D01*
X102285167Y-114535167D02*
X101994065Y-114826269D01*
X101398000Y-122252943D02*
X102300057Y-123155000D01*
X70891400Y-52356360D02*
X70891400Y-50811400D01*
X130500000Y-86650000D02*
X130250000Y-86400000D01*
X67250000Y-87500000D02*
X67402000Y-87348000D01*
X101971504Y-114826269D02*
X101398000Y-115399773D01*
X130500000Y-108000000D02*
X130500000Y-94500000D01*
X121500000Y-106000000D02*
X121500000Y-105500000D01*
X70891400Y-50811400D02*
X69580000Y-49500000D01*
X67402000Y-87348000D02*
X67402000Y-55845760D01*
X102300057Y-123155000D02*
X104295000Y-123155000D01*
X67402000Y-55845760D02*
X70891400Y-52356360D01*
X130500000Y-94500000D02*
X130200000Y-94200000D01*
X101994065Y-114826269D02*
X101971504Y-114826269D01*
X119000000Y-113750000D02*
X119000000Y-108000000D01*
X117690000Y-105500000D02*
X118960000Y-105500000D01*
X119276000Y-106776000D02*
X120724000Y-106776000D01*
X119000000Y-105500000D02*
X119000000Y-106500000D01*
X119000000Y-106500000D02*
X119000000Y-108000000D01*
X130500000Y-94500000D02*
X130500000Y-86650000D01*
X120724000Y-106776000D02*
X121500000Y-106000000D01*
X119000000Y-106500000D02*
X119276000Y-106776000D01*
%TO.N,MEMWEB*%
X122850000Y-94219266D02*
X122850000Y-91700000D01*
X66201000Y-76049000D02*
X66500000Y-75750000D01*
X66000000Y-56250000D02*
X66349000Y-56599000D01*
X66000000Y-76266364D02*
X66201000Y-76065364D01*
X123440367Y-94809633D02*
X122901000Y-94270265D01*
X125310000Y-96679265D02*
X125310000Y-100550000D01*
X66500000Y-74600000D02*
X66400000Y-74500000D01*
X66400000Y-56717157D02*
X66400000Y-74500000D01*
X123440367Y-94809633D02*
X122850000Y-94219266D01*
X66349000Y-56666157D02*
X66400000Y-56717157D01*
X66349000Y-56599000D02*
X66349000Y-56666157D01*
X66201000Y-76065364D02*
X66201000Y-76049000D01*
X123440367Y-94809633D02*
X125310000Y-96679265D01*
X66500000Y-75750000D02*
X66500000Y-74600000D01*
X66000000Y-91247570D02*
X66000000Y-76266364D01*
X65985421Y-91262149D02*
X66000000Y-91247570D01*
%TO.N,MEMOEB*%
X123171000Y-102248943D02*
X123171000Y-104284032D01*
X100396500Y-79750000D02*
X100396500Y-78510000D01*
X100396500Y-75125989D02*
X101445000Y-74077489D01*
X123250000Y-89900000D02*
X122250000Y-90900000D01*
X100500000Y-89900000D02*
X100396500Y-89796500D01*
X100396500Y-79750000D02*
X100396500Y-76250000D01*
X101445000Y-62945000D02*
X100406200Y-61906200D01*
X100396500Y-76250000D02*
X100396500Y-75125989D01*
X100396500Y-78510000D02*
X100396500Y-76250000D01*
X123371000Y-98621000D02*
X123371000Y-102048943D01*
X122250000Y-97500000D02*
X123371000Y-98621000D01*
X123371000Y-102048943D02*
X123171000Y-102248943D01*
X100406200Y-58491639D02*
X100320000Y-58405439D01*
X122250000Y-90900000D02*
X122250000Y-97500000D01*
X100406200Y-61906200D02*
X100406200Y-58491639D01*
X123371000Y-104484032D02*
X123371000Y-104831000D01*
X100396500Y-89796500D02*
X100396500Y-79750000D01*
X101445000Y-74077489D02*
X101445000Y-62945000D01*
X123371000Y-104831000D02*
X124040000Y-105500000D01*
X123171000Y-104284032D02*
X123371000Y-104484032D01*
D47*
%TO.N,Net-(D3-K)*%
X126250000Y-82250000D02*
X126250000Y-79500000D01*
D44*
%TO.N,a16*%
X96240600Y-50760600D02*
X94980000Y-49500000D01*
X94140000Y-59216158D02*
X94140000Y-55364400D01*
X96018450Y-106481550D02*
X96018450Y-101075450D01*
X94460638Y-59536796D02*
X94140000Y-59216158D01*
X94140000Y-55364400D02*
X96240600Y-53263800D01*
X95170000Y-107330000D02*
X96018450Y-106481550D01*
X95100000Y-100157000D02*
X95100000Y-98100000D01*
X95170000Y-108500000D02*
X95170000Y-107330000D01*
X94460638Y-70201000D02*
X94460638Y-59536796D01*
X82540000Y-70548529D02*
X82809968Y-70278561D01*
X82640000Y-98249000D02*
X82640000Y-73745439D01*
X82640000Y-73745439D02*
X82540000Y-73645439D01*
X82639000Y-98250000D02*
X82640000Y-98249000D01*
X96240600Y-53263800D02*
X96240600Y-50760600D01*
X82540000Y-73645439D02*
X82540000Y-70548529D01*
X96018450Y-101075450D02*
X95100000Y-100157000D01*
%TO.N,a17*%
X81439000Y-78061000D02*
X81439000Y-64000000D01*
X94500000Y-100208000D02*
X94500000Y-96350000D01*
X77850000Y-96250000D02*
X77850000Y-83250000D01*
X79000000Y-82100000D02*
X79000000Y-80500000D01*
X94980000Y-52040000D02*
X94968389Y-52040000D01*
X94968389Y-52040000D02*
X88721000Y-58287389D01*
X95617450Y-101325450D02*
X94500000Y-100208000D01*
X79000000Y-80500000D02*
X81439000Y-78061000D01*
X88721000Y-63779000D02*
X88500000Y-64000000D01*
X95617450Y-106132550D02*
X95617450Y-101325450D01*
X94520000Y-107230000D02*
X95617450Y-106132550D01*
X77850000Y-83250000D02*
X79000000Y-82100000D01*
X94520000Y-108500000D02*
X94520000Y-107230000D01*
X88721000Y-58287389D02*
X88721000Y-63779000D01*
%TO.N,a18*%
X89255600Y-57150000D02*
X93726000Y-52679600D01*
X86181000Y-59319000D02*
X86181000Y-58065600D01*
X93870000Y-107312900D02*
X95216450Y-105966450D01*
X93726000Y-50786000D02*
X92440000Y-49500000D01*
X93591000Y-50651000D02*
X92440000Y-49500000D01*
X87096600Y-57150000D02*
X89255600Y-57150000D01*
X93870000Y-100145100D02*
X93870000Y-98227744D01*
X92196402Y-96554146D02*
X92196402Y-95303598D01*
X95216450Y-101491550D02*
X93870000Y-100145100D01*
X82039000Y-75000000D02*
X82039000Y-95250000D01*
X84240000Y-61260000D02*
X86181000Y-59319000D01*
X93726000Y-52679600D02*
X93726000Y-50786000D01*
X95216450Y-105966450D02*
X95216450Y-101491550D01*
X93870000Y-98227744D02*
X92196402Y-96554146D01*
X86181000Y-58065600D02*
X87095600Y-57151000D01*
X92196402Y-95303598D02*
X92250000Y-95250000D01*
X93870000Y-108500000D02*
X93870000Y-107312900D01*
X84240000Y-68000000D02*
X84240000Y-61260000D01*
%TO.N,a19*%
X81229200Y-57988200D02*
X82042000Y-57175400D01*
X91920000Y-106920000D02*
X87500000Y-102500000D01*
X82042000Y-57175400D02*
X85895970Y-57175400D01*
X87730000Y-56750000D02*
X92440000Y-52040000D01*
X80250000Y-102500000D02*
X77250000Y-99500000D01*
X77250000Y-84888000D02*
X75612000Y-83250000D01*
X77250000Y-99500000D02*
X77250000Y-84888000D01*
X86321372Y-56750000D02*
X87730000Y-56750000D01*
X81229200Y-58801000D02*
X81229200Y-57988200D01*
X76250000Y-68440800D02*
X76250000Y-63780200D01*
X91920000Y-108500000D02*
X91920000Y-106920000D01*
X85895970Y-57175400D02*
X86321372Y-56750000D01*
X76250000Y-63780200D02*
X81229200Y-58801000D01*
X75612000Y-83250000D02*
X75612000Y-69078800D01*
X75612000Y-69078800D02*
X76250000Y-68440800D01*
X87500000Y-102500000D02*
X80250000Y-102500000D01*
%TO.N,a20*%
X91084400Y-50684400D02*
X89900000Y-49500000D01*
X80233200Y-103099000D02*
X76750000Y-99615800D01*
X87490200Y-56350000D02*
X91084400Y-52755800D01*
X76250000Y-60598389D02*
X79672989Y-57175400D01*
X76750000Y-85000000D02*
X75211000Y-83461000D01*
X75211000Y-68912700D02*
X75651000Y-68472700D01*
X81751885Y-56775400D02*
X85730285Y-56775400D01*
X91084400Y-52755800D02*
X91084400Y-50684400D01*
X79672989Y-57175400D02*
X81351883Y-57175400D01*
X75651000Y-68472700D02*
X75651000Y-61882448D01*
X86155687Y-56350000D02*
X87490200Y-56350000D01*
X85730285Y-56775400D02*
X86155687Y-56350000D01*
X76250000Y-61283448D02*
X76250000Y-60598389D01*
X87349000Y-103099000D02*
X80233200Y-103099000D01*
X75211000Y-83461000D02*
X75211000Y-68912700D01*
X91270000Y-107020000D02*
X87349000Y-103099000D01*
X81351883Y-57175400D02*
X81751885Y-56775400D01*
X76750000Y-99615800D02*
X76750000Y-85000000D01*
X91270000Y-108500000D02*
X91270000Y-107020000D01*
X75651000Y-61882448D02*
X76250000Y-61283448D01*
%TO.N,a21*%
X75250000Y-68306600D02*
X75250000Y-61697796D01*
X74810000Y-68746600D02*
X75250000Y-68306600D01*
X76250000Y-85190000D02*
X74810000Y-83750000D01*
X90620000Y-108500000D02*
X90620000Y-107120000D01*
X87000000Y-103500000D02*
X80067100Y-103500000D01*
X74810000Y-83750000D02*
X74810000Y-68746600D01*
X75250000Y-61697796D02*
X75849000Y-61098796D01*
X75849000Y-61098796D02*
X75849000Y-60137130D01*
X80067100Y-103500000D02*
X76250000Y-99682900D01*
X90620000Y-107120000D02*
X87000000Y-103500000D01*
X75849000Y-60137130D02*
X79210730Y-56775400D01*
X81186198Y-56775400D02*
X81586199Y-56375400D01*
X79210730Y-56775400D02*
X81186198Y-56775400D01*
X81586199Y-56375400D02*
X85564600Y-56375400D01*
X76250000Y-99682900D02*
X76250000Y-85190000D01*
X85564600Y-56375400D02*
X89900000Y-52040000D01*
%TO.N,a22*%
X75250000Y-61130696D02*
X74815348Y-61565348D01*
X85325800Y-55974400D02*
X82966133Y-55974400D01*
X86750000Y-104000000D02*
X89970000Y-107220000D01*
X88671400Y-52628800D02*
X85325800Y-55974400D01*
X75750000Y-85432900D02*
X75750000Y-99750000D01*
X74409000Y-68580500D02*
X74409000Y-84091900D01*
X75750000Y-99750000D02*
X80000000Y-104000000D01*
X82966133Y-55974400D02*
X82965132Y-55975401D01*
X80000000Y-104000000D02*
X86750000Y-104000000D01*
X89970000Y-107220000D02*
X89970000Y-108500000D01*
X79045045Y-56375400D02*
X75250000Y-60170445D01*
X81020513Y-56375400D02*
X79045045Y-56375400D01*
X87360000Y-49500000D02*
X88671400Y-50811400D01*
X74815348Y-68174152D02*
X74409000Y-68580500D01*
X88671400Y-50811400D02*
X88671400Y-52628800D01*
X82965132Y-55975401D02*
X81420514Y-55975400D01*
X74409000Y-84091900D02*
X75750000Y-85432900D01*
X75250000Y-60170445D02*
X75250000Y-61130696D01*
X74815348Y-61565348D02*
X74815348Y-68174152D01*
X81420514Y-55975400D02*
X81020513Y-56375400D01*
%TO.N,a23*%
X81254416Y-55574400D02*
X82799033Y-55574400D01*
X74407000Y-68015400D02*
X74407000Y-61406596D01*
X80854414Y-55974400D02*
X81254416Y-55574400D01*
X82799033Y-55574400D02*
X82800033Y-55573400D01*
X79800300Y-104599000D02*
X75250000Y-100048700D01*
X86666100Y-104599000D02*
X79800300Y-104599000D01*
X74407000Y-61406596D02*
X74803000Y-61010596D01*
X78477830Y-56374099D02*
X78877529Y-55974400D01*
X75250000Y-100048700D02*
X75250000Y-85500000D01*
X89320000Y-107252900D02*
X86666100Y-104599000D01*
X74008000Y-68414400D02*
X74407000Y-68015400D01*
X78477830Y-56375514D02*
X78477830Y-56374099D01*
X74008000Y-84258000D02*
X74008000Y-68414400D01*
X74803000Y-60050344D02*
X78477830Y-56375514D01*
X82800033Y-55573400D02*
X83826600Y-55573400D01*
X83826600Y-55573400D02*
X87360000Y-52040000D01*
X89320000Y-108500000D02*
X89320000Y-107252900D01*
X75250000Y-85500000D02*
X74008000Y-84258000D01*
X78877529Y-55974400D02*
X80854414Y-55974400D01*
X74803000Y-61010596D02*
X74803000Y-60050344D01*
%TO.N,DTRB0*%
X91294942Y-139789000D02*
X91294942Y-136044942D01*
X92445942Y-140940000D02*
X91294942Y-139789000D01*
X91294942Y-136044942D02*
X87250000Y-132000000D01*
X87250000Y-132000000D02*
X87250000Y-128250000D01*
X87250000Y-128250000D02*
X88020000Y-127480000D01*
X88020000Y-127480000D02*
X88020000Y-125460000D01*
%TO.N,DSRB0*%
X92445942Y-136513042D02*
X87651000Y-131718100D01*
X88670000Y-127481000D02*
X88670000Y-125460000D01*
X92445942Y-138400000D02*
X92445942Y-136513042D01*
X87651000Y-128500000D02*
X88670000Y-127481000D01*
X87651000Y-131718100D02*
X87651000Y-128500000D01*
%TO.N,DTRB1*%
X88052000Y-131552000D02*
X88052000Y-128750000D01*
X89320000Y-127482000D02*
X89320000Y-125460000D01*
X93834942Y-139789000D02*
X93834942Y-137334942D01*
X93834942Y-137334942D02*
X88052000Y-131552000D01*
X88052000Y-128750000D02*
X89320000Y-127482000D01*
X94985942Y-140940000D02*
X93834942Y-139789000D01*
%TO.N,DSRB1*%
X89970000Y-127399100D02*
X89970000Y-125460000D01*
X88500000Y-128869100D02*
X89970000Y-127399100D01*
X94985942Y-138400000D02*
X94985942Y-137735942D01*
X94985942Y-137735942D02*
X88500000Y-131250000D01*
X88500000Y-131250000D02*
X88500000Y-128869100D01*
%TO.N,DTRB2*%
X89000000Y-130750000D02*
X89000000Y-128936200D01*
X90620000Y-127316200D02*
X90620000Y-125460000D01*
X89000000Y-128936200D02*
X90620000Y-127316200D01*
X96136942Y-139551000D02*
X96136942Y-137886942D01*
X97525942Y-140940000D02*
X96136942Y-139551000D01*
X96136942Y-137886942D02*
X89000000Y-130750000D01*
%TO.N,DSRB2*%
X89500000Y-129003300D02*
X91270000Y-127233300D01*
X97525942Y-138400000D02*
X89500000Y-130374058D01*
X89500000Y-130374058D02*
X89500000Y-129003300D01*
X91270000Y-127233300D02*
X91270000Y-125460000D01*
%TO.N,RXD0*%
X94520000Y-126709999D02*
X107599001Y-139789000D01*
X107599001Y-139789000D02*
X114204157Y-139789000D01*
X94520000Y-125460000D02*
X94520000Y-126709999D01*
X114204157Y-139789000D02*
X115355157Y-140940000D01*
%TO.N,TXD0*%
X115355157Y-138400000D02*
X114204157Y-137249000D01*
X105709001Y-137249000D02*
X95170000Y-126709999D01*
X95170000Y-126709999D02*
X95170000Y-125460000D01*
X114204157Y-137249000D02*
X105709001Y-137249000D01*
%TO.N,RXD1*%
X105360001Y-136250000D02*
X105365800Y-136250000D01*
X116744157Y-137244157D02*
X116744157Y-139789000D01*
X116744157Y-139789000D02*
X117895157Y-140940000D01*
X105865800Y-136750000D02*
X116250000Y-136750000D01*
X95820000Y-125460000D02*
X95820000Y-126709999D01*
X95820000Y-126709999D02*
X105360001Y-136250000D01*
X105365800Y-136250000D02*
X105865800Y-136750000D01*
X116250000Y-136750000D02*
X116744157Y-137244157D01*
%TO.N,TXD1*%
X117895157Y-137645157D02*
X117895157Y-138400000D01*
X105932900Y-136250000D02*
X116500000Y-136250000D01*
X116500000Y-136250000D02*
X117895157Y-137645157D01*
X96470000Y-126787100D02*
X105932900Y-136250000D01*
X96470000Y-125460000D02*
X96470000Y-126787100D01*
%TO.N,RXD2*%
X117250000Y-135750000D02*
X119284157Y-137784157D01*
X97120000Y-126870000D02*
X106000000Y-135750000D01*
X119284157Y-137784157D02*
X119284157Y-139789000D01*
X97120000Y-125460000D02*
X97120000Y-126870000D01*
X106000000Y-135750000D02*
X117250000Y-135750000D01*
X119284157Y-139789000D02*
X120435157Y-140940000D01*
%TO.N,TXD2*%
X117750000Y-135250000D02*
X120500000Y-138000000D01*
X120500000Y-138000000D02*
X120500000Y-138335157D01*
X106250000Y-135250000D02*
X117750000Y-135250000D01*
X120500000Y-138335157D02*
X120435157Y-138400000D01*
X97770000Y-125460000D02*
X97770000Y-126770000D01*
X97770000Y-126770000D02*
X106250000Y-135250000D01*
%TO.N,PIIB*%
X71000000Y-130500000D02*
X79645000Y-121855000D01*
X72180000Y-140940000D02*
X71000000Y-139760000D01*
X79645000Y-121855000D02*
X81495000Y-121855000D01*
X71000000Y-139760000D02*
X71000000Y-130500000D01*
%TO.N,FA15*%
X72180000Y-129887100D02*
X72180000Y-138400000D01*
X79562100Y-122505000D02*
X72180000Y-129887100D01*
X70250000Y-122500000D02*
X67400000Y-119650000D01*
X67400000Y-117900000D02*
X64939000Y-115439000D01*
X64939000Y-110321000D02*
X66040000Y-109220000D01*
X81495000Y-122505000D02*
X79562100Y-122505000D01*
X67400000Y-119650000D02*
X67400000Y-117900000D01*
X64939000Y-115439000D02*
X64939000Y-110321000D01*
%TO.N,AMS*%
X72000000Y-123250000D02*
X68000000Y-119250000D01*
X79250000Y-123500000D02*
X79500000Y-123500000D01*
X79845000Y-123155000D02*
X81495000Y-123155000D01*
X68000000Y-113720000D02*
X66040000Y-111760000D01*
X73500000Y-139720000D02*
X73500000Y-129250000D01*
X79500000Y-123500000D02*
X79845000Y-123155000D01*
X68000000Y-119250000D02*
X68000000Y-113720000D01*
X73500000Y-129250000D02*
X79250000Y-123500000D01*
X74720000Y-140940000D02*
X73500000Y-139720000D01*
%TO.N,PIRS0*%
X74720000Y-129280000D02*
X74720000Y-138400000D01*
X85768999Y-123909000D02*
X80091000Y-123909000D01*
X86070000Y-124210001D02*
X85768999Y-123909000D01*
X86070000Y-125460000D02*
X86070000Y-124210001D01*
X80091000Y-123909000D02*
X74720000Y-129280000D01*
%TO.N,PIRS1*%
X86338870Y-127011000D02*
X86720000Y-126629870D01*
X76000000Y-139680000D02*
X76000000Y-129000000D01*
X76000000Y-129000000D02*
X77989000Y-127011000D01*
X77260000Y-140940000D02*
X76000000Y-139680000D01*
X77989000Y-127011000D02*
X86338870Y-127011000D01*
X86720000Y-126629870D02*
X86720000Y-125460000D01*
%TO.N,PIRS2*%
X87370000Y-126629870D02*
X87370000Y-125460000D01*
X86499870Y-127500000D02*
X87370000Y-126629870D01*
X77260000Y-128740000D02*
X78500000Y-127500000D01*
X78500000Y-127500000D02*
X86499870Y-127500000D01*
X77260000Y-138400000D02*
X77260000Y-128740000D01*
%TO.N,BE*%
X104295000Y-120555000D02*
X102305000Y-120555000D01*
X68000000Y-104000000D02*
X68000000Y-56160000D01*
X68600000Y-114500000D02*
X68600000Y-104600000D01*
X68600000Y-104600000D02*
X68000000Y-104000000D01*
X68000000Y-56160000D02*
X72120000Y-52040000D01*
X68600000Y-114500000D02*
X68600000Y-118500000D01*
X102305000Y-120555000D02*
X102250000Y-120500000D01*
%TO.N,RUN*%
X69001000Y-104433900D02*
X68401000Y-103833900D01*
X69500000Y-119750000D02*
X69500000Y-114499000D01*
X69001000Y-114000000D02*
X69001000Y-104433900D01*
X68401000Y-103833900D02*
X68401000Y-57599000D01*
X73355200Y-52644800D02*
X73355200Y-50735200D01*
X73355200Y-50735200D02*
X72120000Y-49500000D01*
X69500000Y-114499000D02*
X69001000Y-114000000D01*
X102500000Y-122505000D02*
X104295000Y-122505000D01*
X68401000Y-57599000D02*
X73355200Y-52644800D01*
%TO.N,TG0*%
X72000000Y-112000000D02*
X73500000Y-113500000D01*
X73500000Y-118862190D02*
X73892810Y-119255000D01*
X72004000Y-108500000D02*
X72000000Y-108504000D01*
X72000000Y-108504000D02*
X72000000Y-112000000D01*
X73500000Y-113500000D02*
X73500000Y-118862190D01*
X73892810Y-119255000D02*
X81495000Y-119255000D01*
%TO.N,TG1*%
X72750000Y-119250000D02*
X73374000Y-119874000D01*
X72174265Y-113325735D02*
X72750000Y-113901470D01*
X81464000Y-119874000D02*
X81495000Y-119905000D01*
X73374000Y-119874000D02*
X81464000Y-119874000D01*
X72750000Y-113901470D02*
X72750000Y-119250000D01*
%TO.N,csb4*%
X105400000Y-85600000D02*
X105400000Y-80500000D01*
X125250000Y-77500000D02*
X126250000Y-77500000D01*
X73099000Y-100166100D02*
X73099000Y-86653000D01*
X83470000Y-108500000D02*
X81272000Y-106302000D01*
X73099000Y-86653000D02*
X73152000Y-86600000D01*
X81272000Y-106302000D02*
X79234900Y-106302000D01*
X79234900Y-106302000D02*
X73099000Y-100166100D01*
X105400000Y-80500000D02*
X105400000Y-78000000D01*
D47*
%TO.N,Net-(U5-Pad3)*%
X124040000Y-103820406D02*
X124144594Y-103925000D01*
X120250000Y-104250000D02*
X120250000Y-105480000D01*
X124040000Y-100550000D02*
X124040000Y-103820406D01*
X120250000Y-105480000D02*
X120230000Y-105500000D01*
D44*
%TO.N,CLKOB*%
X69803000Y-113667800D02*
X69803000Y-104101700D01*
X70600000Y-114464800D02*
X69803000Y-113667800D01*
X69500000Y-103798700D02*
X69500000Y-58500000D01*
X69500000Y-58500000D02*
X74500000Y-53500000D01*
X70600000Y-117541714D02*
X70600000Y-114464800D01*
X104295000Y-119255000D02*
X108995000Y-119255000D01*
X102572098Y-119621610D02*
X102938708Y-119255000D01*
X74500000Y-53500000D02*
X74987970Y-53500000D01*
X102938708Y-119255000D02*
X104295000Y-119255000D01*
X103045001Y-119255000D02*
X104295000Y-119255000D01*
X75920600Y-52567370D02*
X75920600Y-50760600D01*
X75920600Y-50760600D02*
X74660000Y-49500000D01*
X108995000Y-119255000D02*
X112250000Y-116000000D01*
X74987970Y-53500000D02*
X75920600Y-52567370D01*
X69803000Y-104101700D02*
X69500000Y-103798700D01*
%TO.N,FCLKOB*%
X69000000Y-103865800D02*
X69000000Y-58000000D01*
X102698530Y-121855000D02*
X104295000Y-121855000D01*
X70000000Y-114431900D02*
X69402000Y-113833900D01*
X107500000Y-123605000D02*
X105750000Y-121855000D01*
X69000000Y-58000000D02*
X74660000Y-52340000D01*
X70096381Y-119096381D02*
X70000000Y-119000000D01*
X70000000Y-119000000D02*
X70000000Y-114431900D01*
X70100000Y-119096381D02*
X70096381Y-119096381D01*
X107500000Y-125750000D02*
X107500000Y-123605000D01*
X69402000Y-104267800D02*
X69000000Y-103865800D01*
X69402000Y-113833900D02*
X69402000Y-104267800D01*
X74660000Y-52340000D02*
X74660000Y-52040000D01*
X105750000Y-121855000D02*
X104295000Y-121855000D01*
X102546765Y-121703235D02*
X102698530Y-121855000D01*
D47*
%TO.N,Net-(D5-A)*%
X147500000Y-70250000D02*
X147500000Y-72250000D01*
D44*
%TO.N,a17_Select*%
X79000000Y-77960000D02*
X80000000Y-76960000D01*
X80000000Y-76960000D02*
X80000000Y-73645439D01*
D46*
%TO.N,Net-(J10-Pin_3)*%
X65000000Y-76275000D02*
X65000000Y-98500000D01*
X63500000Y-100000000D02*
X65000000Y-98500000D01*
X65500000Y-75775000D02*
X65000000Y-76275000D01*
X63500000Y-124970000D02*
X65750000Y-127220000D01*
X63500000Y-100000000D02*
X63500000Y-124970000D01*
D47*
%TO.N,Net-(J13-Pin_11)*%
X142000000Y-139500000D02*
X142000000Y-121000000D01*
%TO.N,Net-(J13-Pin_9)*%
X149614000Y-124266000D02*
X150790000Y-123090000D01*
X143905000Y-122140000D02*
X145636884Y-122140000D01*
X145636884Y-122140000D02*
X147762884Y-124266000D01*
X147762884Y-124266000D02*
X149614000Y-124266000D01*
%TO.N,Net-(J13-Pin_10)*%
X148250000Y-123090000D02*
X144760000Y-119600000D01*
X144760000Y-119600000D02*
X143905000Y-119600000D01*
%TO.N,Net-(J13-Pin_7)*%
X149614000Y-126806000D02*
X150790000Y-125630000D01*
X144319000Y-126806000D02*
X149614000Y-126806000D01*
X143905000Y-127220000D02*
X144319000Y-126806000D01*
%TO.N,Net-(J13-Pin_5)*%
X146859000Y-129346000D02*
X149614000Y-129346000D01*
X143905000Y-132300000D02*
X146859000Y-129346000D01*
X149614000Y-129346000D02*
X150790000Y-128170000D01*
%TO.N,Net-(J13-Pin_8)*%
X147300000Y-124680000D02*
X148250000Y-125630000D01*
X143905000Y-124680000D02*
X147300000Y-124680000D01*
%TO.N,Net-(J13-Pin_4)*%
X148035000Y-130710000D02*
X148250000Y-130710000D01*
X143905000Y-134840000D02*
X148035000Y-130710000D01*
D46*
%TO.N,Net-(J11-Pin_3)*%
X142025000Y-74605000D02*
X142025000Y-71500000D01*
X142975000Y-66000000D02*
X140500000Y-63525000D01*
X142025000Y-68150000D02*
X142025000Y-65050000D01*
D45*
X142025000Y-65050000D02*
X140500000Y-63525000D01*
D46*
X143920000Y-76500000D02*
X142025000Y-74605000D01*
X149000000Y-66000000D02*
X142975000Y-66000000D01*
D47*
%TO.N,Net-(J13-Pin_12)*%
X141000000Y-137000000D02*
X140500000Y-137500000D01*
X141000000Y-118500000D02*
X141000000Y-137000000D01*
%TO.N,Net-(J13-Pin_6)*%
X143905000Y-129760000D02*
X145495000Y-128170000D01*
X145495000Y-128170000D02*
X148250000Y-128170000D01*
%TO.N,Net-(J13-Pin_3)*%
X143905000Y-137380000D02*
X147074000Y-134211000D01*
X149614000Y-131886000D02*
X150790000Y-130710000D01*
X147950884Y-131886000D02*
X149614000Y-131886000D01*
X147074000Y-132762884D02*
X147950884Y-131886000D01*
X147074000Y-134211000D02*
X147074000Y-132762884D01*
%TO.N,Net-(J14-Pin_7)*%
X143905000Y-106900000D02*
X147074000Y-103731000D01*
X149460000Y-101250000D02*
X150790000Y-99920000D01*
X147074000Y-103731000D02*
X147074000Y-101972884D01*
X147074000Y-101972884D02*
X147796884Y-101250000D01*
X147796884Y-101250000D02*
X149460000Y-101250000D01*
%TO.N,Net-(J14-Pin_6)*%
X148250000Y-102460000D02*
X148250000Y-103336884D01*
X148250000Y-103336884D02*
X145031000Y-106555884D01*
X145031000Y-106555884D02*
X145031000Y-108314000D01*
X145031000Y-108314000D02*
X143905000Y-109440000D01*
%TO.N,Net-(J14-Pin_9)*%
X147762884Y-98744000D02*
X149426000Y-98744000D01*
X149426000Y-98744000D02*
X150790000Y-97380000D01*
X143905000Y-101820000D02*
X144686884Y-101820000D01*
X144686884Y-101820000D02*
X147762884Y-98744000D01*
%TO.N,Net-(J14-Pin_5)*%
X150790000Y-102460000D02*
X151966000Y-103636000D01*
X151966000Y-111784000D02*
X151750000Y-112000000D01*
X151966000Y-103636000D02*
X151966000Y-111784000D01*
%TO.N,Net-(J14-Pin_11)*%
X149614000Y-96016000D02*
X150790000Y-94840000D01*
X144629000Y-96016000D02*
X149614000Y-96016000D01*
X143905000Y-96740000D02*
X144629000Y-96016000D01*
%TO.N,Net-(J14-Pin_3)*%
X143905000Y-117060000D02*
X149426000Y-111539000D01*
X149426000Y-111539000D02*
X149426000Y-106364000D01*
X149426000Y-106364000D02*
X150790000Y-105000000D01*
%TO.N,Net-(J14-Pin_4)*%
X147074000Y-106176000D02*
X148250000Y-105000000D01*
X143905000Y-114520000D02*
X147074000Y-111351000D01*
X147074000Y-111351000D02*
X147074000Y-106176000D01*
D44*
%TO.N,MEMCS1B*%
X105400000Y-64446200D02*
X105000000Y-64846200D01*
X123750000Y-63250000D02*
X126250000Y-63250000D01*
X105400000Y-58405439D02*
X105400000Y-64446200D01*
%TO.N,MEMCS2*%
X61000000Y-56000000D02*
X62250000Y-56000000D01*
D47*
%TO.N,Net-(J14-Pin_12)*%
X147610000Y-94200000D02*
X148250000Y-94840000D01*
X143905000Y-94200000D02*
X147610000Y-94200000D01*
%TO.N,Net-(J14-Pin_8)*%
X148250000Y-100015000D02*
X148250000Y-99920000D01*
X143905000Y-104360000D02*
X148250000Y-100015000D01*
%TO.N,Net-(J14-Pin_10)*%
X143905000Y-99280000D02*
X146350000Y-99280000D01*
X146350000Y-99280000D02*
X148250000Y-97380000D01*
%TO.N,Net-(D6-K)*%
X139340000Y-84660000D02*
X139340000Y-81000000D01*
X137750000Y-91500000D02*
X137750000Y-86250000D01*
X137750000Y-86250000D02*
X139340000Y-84660000D01*
%TD*%
M02*
