%TF.GenerationSoftware,KiCad,Pcbnew,9.0.4*%
%TF.CreationDate,2025-09-14T15:15:17-04:00*%
%TF.ProjectId,Mench Reloaded,4d656e63-6820-4526-956c-6f616465642e,rev?*%
%TF.SameCoordinates,Original*%
%TF.FileFunction,Soldermask,Bot*%
%TF.FilePolarity,Negative*%
%FSLAX46Y46*%
G04 Gerber Fmt 4.6, Leading zero omitted, Abs format (unit mm)*
G04 Created by KiCad (PCBNEW 9.0.4) date 2025-09-14 15:15:17*
%MOMM*%
%LPD*%
G01*
G04 APERTURE LIST*
G04 Aperture macros list*
%AMRoundRect*
0 Rectangle with rounded corners*
0 $1 Rounding radius*
0 $2 $3 $4 $5 $6 $7 $8 $9 X,Y pos of 4 corners*
0 Add a 4 corners polygon primitive as box body*
4,1,4,$2,$3,$4,$5,$6,$7,$8,$9,$2,$3,0*
0 Add four circle primitives for the rounded corners*
1,1,$1+$1,$2,$3*
1,1,$1+$1,$4,$5*
1,1,$1+$1,$6,$7*
1,1,$1+$1,$8,$9*
0 Add four rect primitives between the rounded corners*
20,1,$1+$1,$2,$3,$4,$5,0*
20,1,$1+$1,$4,$5,$6,$7,0*
20,1,$1+$1,$6,$7,$8,$9,0*
20,1,$1+$1,$8,$9,$2,$3,0*%
G04 Aperture macros list end*
%ADD10R,1.700000X1.700000*%
%ADD11C,1.700000*%
%ADD12RoundRect,0.250000X0.550000X-0.550000X0.550000X0.550000X-0.550000X0.550000X-0.550000X-0.550000X0*%
%ADD13C,1.600000*%
%ADD14R,3.500000X3.500000*%
%ADD15RoundRect,0.750000X-1.000000X0.750000X-1.000000X-0.750000X1.000000X-0.750000X1.000000X0.750000X0*%
%ADD16RoundRect,0.875000X-0.875000X0.875000X-0.875000X-0.875000X0.875000X-0.875000X0.875000X0.875000X0*%
%ADD17C,3.200000*%
%ADD18C,2.000000*%
%ADD19C,1.000000*%
%ADD20RoundRect,0.250000X-0.550000X-0.550000X0.550000X-0.550000X0.550000X0.550000X-0.550000X0.550000X0*%
%ADD21C,1.500000*%
%ADD22R,1.600000X1.600000*%
%ADD23RoundRect,0.250000X0.550000X0.550000X-0.550000X0.550000X-0.550000X-0.550000X0.550000X-0.550000X0*%
%ADD24RoundRect,0.249999X-0.850001X-0.850001X0.850001X-0.850001X0.850001X0.850001X-0.850001X0.850001X0*%
%ADD25C,2.200000*%
G04 APERTURE END LIST*
D10*
%TO.C,J9*%
X58000000Y-74500000D03*
D11*
X60540000Y-74500000D03*
X63080000Y-74500000D03*
%TD*%
D10*
%TO.C,J1*%
X128000000Y-49500000D03*
D11*
X128000000Y-52040000D03*
X125460000Y-49500000D03*
X125460000Y-52040000D03*
X122920000Y-49500000D03*
X122920000Y-52040000D03*
X120380000Y-49500000D03*
X120380000Y-52040000D03*
X117840000Y-49500000D03*
X117840000Y-52040000D03*
X115300000Y-49500000D03*
X115300000Y-52040000D03*
X112760000Y-49500000D03*
X112760000Y-52040000D03*
X110220000Y-49500000D03*
X110220000Y-52040000D03*
X107680000Y-49500000D03*
X107680000Y-52040000D03*
X105140000Y-49500000D03*
X105140000Y-52040000D03*
X102600000Y-49500000D03*
X102600000Y-52040000D03*
X100060000Y-49500000D03*
X100060000Y-52040000D03*
X97520000Y-49500000D03*
X97520000Y-52040000D03*
X94980000Y-49500000D03*
X94980000Y-52040000D03*
X92440000Y-49500000D03*
X92440000Y-52040000D03*
X89900000Y-49500000D03*
X89900000Y-52040000D03*
X87360000Y-49500000D03*
X87360000Y-52040000D03*
X84820000Y-49500000D03*
X84820000Y-52040000D03*
X82280000Y-49500000D03*
X82280000Y-52040000D03*
X79740000Y-49500000D03*
X79740000Y-52040000D03*
X77200000Y-49500000D03*
X77200000Y-52040000D03*
X74660000Y-49500000D03*
X74660000Y-52040000D03*
X72120000Y-49500000D03*
X72120000Y-52040000D03*
X69580000Y-49500000D03*
X69580000Y-52040000D03*
X67040000Y-49500000D03*
X67040000Y-52040000D03*
%TD*%
D10*
%TO.C,J14*%
X150790000Y-107540000D03*
D11*
X148250000Y-107540000D03*
X150790000Y-105000000D03*
X148250000Y-105000000D03*
X150790000Y-102460000D03*
X148250000Y-102460000D03*
X150790000Y-99920000D03*
X148250000Y-99920000D03*
X150790000Y-97380000D03*
X148250000Y-97380000D03*
X150790000Y-94840000D03*
X148250000Y-94840000D03*
X150790000Y-92300000D03*
X148250000Y-92300000D03*
%TD*%
D12*
%TO.C,U2*%
X80000000Y-73645439D03*
D13*
X82540000Y-73645439D03*
X85080000Y-73645439D03*
X87620000Y-73645439D03*
X90160000Y-73645439D03*
X92700000Y-73645439D03*
X95240000Y-73645439D03*
X97780000Y-73645439D03*
X100320000Y-73645439D03*
X102860000Y-73645439D03*
X105400000Y-73645439D03*
X107940000Y-73645439D03*
X110480000Y-73645439D03*
X113020000Y-73645439D03*
X115560000Y-73645439D03*
X118100000Y-73645439D03*
X118100000Y-58405439D03*
X115560000Y-58405439D03*
X113020000Y-58405439D03*
X110480000Y-58405439D03*
X107940000Y-58405439D03*
X105400000Y-58405439D03*
X102860000Y-58405439D03*
X100320000Y-58405439D03*
X97780000Y-58405439D03*
X95240000Y-58405439D03*
X92700000Y-58405439D03*
X90160000Y-58405439D03*
X87620000Y-58405439D03*
X85080000Y-58405439D03*
X82540000Y-58405439D03*
X80000000Y-58405439D03*
%TD*%
D14*
%TO.C,J8*%
X140657500Y-59340000D03*
D15*
X140657500Y-53340000D03*
D16*
X135957500Y-56340000D03*
%TD*%
D10*
%TO.C,J2*%
X60000000Y-105000000D03*
D11*
X60000000Y-107540000D03*
X60000000Y-110080000D03*
X60000000Y-112620000D03*
%TD*%
D10*
%TO.C,J10*%
X65750000Y-132300000D03*
D11*
X65750000Y-129760000D03*
X65750000Y-127220000D03*
X65750000Y-124680000D03*
X65750000Y-122140000D03*
X65750000Y-119600000D03*
%TD*%
D10*
%TO.C,J7*%
X79000000Y-80500000D03*
D11*
X79000000Y-77960000D03*
%TD*%
D17*
%TO.C,MH3*%
X150000000Y-50000000D03*
%TD*%
D18*
%TO.C,SW1*%
X62250000Y-90000000D03*
X62250000Y-96500000D03*
X57750000Y-90000000D03*
X57750000Y-96500000D03*
%TD*%
D17*
%TO.C,MH2*%
X60000000Y-140000000D03*
%TD*%
D19*
%TO.C,Y1*%
X114250000Y-119900000D03*
X114250000Y-118000000D03*
%TD*%
D10*
%TO.C,J4*%
X67100000Y-140940000D03*
D11*
X67100000Y-138400000D03*
X69640000Y-140940000D03*
X69640000Y-138400000D03*
X72180000Y-140940000D03*
X72180000Y-138400000D03*
X74720000Y-140940000D03*
X74720000Y-138400000D03*
X77260000Y-140940000D03*
X77260000Y-138400000D03*
%TD*%
D20*
%TO.C,C9*%
X149000000Y-58000000D03*
D13*
X151500000Y-58000000D03*
%TD*%
D17*
%TO.C,MH4*%
X150000000Y-140000000D03*
%TD*%
D10*
%TO.C,J13*%
X150790000Y-133250000D03*
D11*
X148250000Y-133250000D03*
X150790000Y-130710000D03*
X148250000Y-130710000D03*
X150790000Y-128170000D03*
X148250000Y-128170000D03*
X150790000Y-125630000D03*
X148250000Y-125630000D03*
X150790000Y-123090000D03*
X148250000Y-123090000D03*
X150790000Y-120550000D03*
X148250000Y-120550000D03*
X150790000Y-118010000D03*
X148250000Y-118010000D03*
%TD*%
D10*
%TO.C,J6*%
X112815157Y-140940000D03*
D11*
X112815157Y-138400000D03*
X115355157Y-140940000D03*
X115355157Y-138400000D03*
X117895157Y-140940000D03*
X117895157Y-138400000D03*
X120435157Y-140940000D03*
X120435157Y-138400000D03*
X122975157Y-140940000D03*
X122975157Y-138400000D03*
%TD*%
D21*
%TO.C,Y2*%
X117000000Y-128769394D03*
X112120000Y-128769394D03*
%TD*%
D22*
%TO.C,RN1*%
X66040000Y-101600000D03*
D13*
X66040000Y-104140000D03*
X66040000Y-106680000D03*
X66040000Y-109220000D03*
X66040000Y-111760000D03*
X66040000Y-114300000D03*
%TD*%
D10*
%TO.C,J3*%
X60000000Y-59000000D03*
D11*
X62540000Y-59000000D03*
X60000000Y-61540000D03*
X62540000Y-61540000D03*
X60000000Y-64080000D03*
X62540000Y-64080000D03*
X60000000Y-66620000D03*
X62540000Y-66620000D03*
%TD*%
D23*
%TO.C,U6*%
X143905000Y-139920000D03*
D13*
X143905000Y-137380000D03*
X143905000Y-134840000D03*
X143905000Y-132300000D03*
X143905000Y-129760000D03*
X143905000Y-127220000D03*
X143905000Y-124680000D03*
X143905000Y-122140000D03*
X143905000Y-119600000D03*
X143905000Y-117060000D03*
X143905000Y-114520000D03*
X143905000Y-111980000D03*
X143905000Y-109440000D03*
X143905000Y-106900000D03*
X143905000Y-104360000D03*
X143905000Y-101820000D03*
X143905000Y-99280000D03*
X143905000Y-96740000D03*
X143905000Y-94200000D03*
X143905000Y-91660000D03*
X128665000Y-91660000D03*
X128665000Y-94200000D03*
X128665000Y-96740000D03*
X128665000Y-99280000D03*
X128665000Y-101820000D03*
X128665000Y-104360000D03*
X128665000Y-106900000D03*
X128665000Y-109440000D03*
X128665000Y-111980000D03*
X128665000Y-114520000D03*
X128665000Y-117060000D03*
X128665000Y-119600000D03*
X128665000Y-122140000D03*
X128665000Y-124680000D03*
X128665000Y-127220000D03*
X128665000Y-129760000D03*
X128665000Y-132300000D03*
X128665000Y-134840000D03*
X128665000Y-137380000D03*
X128665000Y-139920000D03*
%TD*%
D17*
%TO.C,MH1*%
X60000000Y-50000000D03*
%TD*%
D10*
%TO.C,J11*%
X149000000Y-76500000D03*
D11*
X146460000Y-76500000D03*
X143920000Y-76500000D03*
%TD*%
D10*
%TO.C,J5*%
X89905942Y-140940000D03*
D11*
X89905942Y-138400000D03*
X92445942Y-140940000D03*
X92445942Y-138400000D03*
X94985942Y-140940000D03*
X94985942Y-138400000D03*
X97525942Y-140940000D03*
X97525942Y-138400000D03*
X100065942Y-140940000D03*
X100065942Y-138400000D03*
%TD*%
D20*
%TO.C,C10*%
X149000000Y-66000000D03*
D13*
X151500000Y-66000000D03*
%TD*%
%TO.C,U3*%
X85156500Y-93750000D03*
X87696500Y-93750000D03*
X90236500Y-93750000D03*
X92776500Y-93750000D03*
X95316500Y-93750000D03*
X97856500Y-93750000D03*
X100396500Y-93750000D03*
X102936500Y-93750000D03*
X105476500Y-93750000D03*
X108016500Y-93750000D03*
X110556500Y-93750000D03*
X113096500Y-93750000D03*
X115636500Y-93750000D03*
X118176500Y-93750000D03*
X118176500Y-78510000D03*
X115636500Y-78510000D03*
X113096500Y-78510000D03*
X110556500Y-78510000D03*
X108016500Y-78510000D03*
X105476500Y-78510000D03*
X102936500Y-78510000D03*
X100396500Y-78510000D03*
X97856500Y-78510000D03*
X95316500Y-78510000D03*
X92776500Y-78510000D03*
X90236500Y-78510000D03*
X87696500Y-78510000D03*
X85156500Y-78510000D03*
%TD*%
D10*
%TO.C,J12*%
X143975000Y-86750000D03*
D11*
X146515000Y-86750000D03*
X149055000Y-86750000D03*
%TD*%
D24*
%TO.C,D6*%
X139340000Y-81000000D03*
D25*
X149500000Y-81000000D03*
%TD*%
M02*
