%TF.GenerationSoftware,KiCad,Pcbnew,9.0.4*%
%TF.CreationDate,2025-09-14T15:15:17-04:00*%
%TF.ProjectId,Mench Reloaded,4d656e63-6820-4526-956c-6f616465642e,rev?*%
%TF.SameCoordinates,Original*%
%TF.FileFunction,Legend,Top*%
%TF.FilePolarity,Positive*%
%FSLAX46Y46*%
G04 Gerber Fmt 4.6, Leading zero omitted, Abs format (unit mm)*
G04 Created by KiCad (PCBNEW 9.0.4) date 2025-09-14 15:15:17*
%MOMM*%
%LPD*%
G01*
G04 APERTURE LIST*
%ADD10C,0.150000*%
%ADD11C,0.120000*%
%ADD12C,0.127000*%
%ADD13O,1.320800X2.641600*%
G04 APERTURE END LIST*
D10*
X58583333Y-78954819D02*
X58250000Y-78478628D01*
X58011905Y-78954819D02*
X58011905Y-77954819D01*
X58011905Y-77954819D02*
X58392857Y-77954819D01*
X58392857Y-77954819D02*
X58488095Y-78002438D01*
X58488095Y-78002438D02*
X58535714Y-78050057D01*
X58535714Y-78050057D02*
X58583333Y-78145295D01*
X58583333Y-78145295D02*
X58583333Y-78288152D01*
X58583333Y-78288152D02*
X58535714Y-78383390D01*
X58535714Y-78383390D02*
X58488095Y-78431009D01*
X58488095Y-78431009D02*
X58392857Y-78478628D01*
X58392857Y-78478628D02*
X58011905Y-78478628D01*
X59535714Y-78954819D02*
X58964286Y-78954819D01*
X59250000Y-78954819D02*
X59250000Y-77954819D01*
X59250000Y-77954819D02*
X59154762Y-78097676D01*
X59154762Y-78097676D02*
X59059524Y-78192914D01*
X59059524Y-78192914D02*
X58964286Y-78240533D01*
X115857142Y-98359580D02*
X115809523Y-98407200D01*
X115809523Y-98407200D02*
X115666666Y-98454819D01*
X115666666Y-98454819D02*
X115571428Y-98454819D01*
X115571428Y-98454819D02*
X115428571Y-98407200D01*
X115428571Y-98407200D02*
X115333333Y-98311961D01*
X115333333Y-98311961D02*
X115285714Y-98216723D01*
X115285714Y-98216723D02*
X115238095Y-98026247D01*
X115238095Y-98026247D02*
X115238095Y-97883390D01*
X115238095Y-97883390D02*
X115285714Y-97692914D01*
X115285714Y-97692914D02*
X115333333Y-97597676D01*
X115333333Y-97597676D02*
X115428571Y-97502438D01*
X115428571Y-97502438D02*
X115571428Y-97454819D01*
X115571428Y-97454819D02*
X115666666Y-97454819D01*
X115666666Y-97454819D02*
X115809523Y-97502438D01*
X115809523Y-97502438D02*
X115857142Y-97550057D01*
X116809523Y-98454819D02*
X116238095Y-98454819D01*
X116523809Y-98454819D02*
X116523809Y-97454819D01*
X116523809Y-97454819D02*
X116428571Y-97597676D01*
X116428571Y-97597676D02*
X116333333Y-97692914D01*
X116333333Y-97692914D02*
X116238095Y-97740533D01*
X117142857Y-97454819D02*
X117761904Y-97454819D01*
X117761904Y-97454819D02*
X117428571Y-97835771D01*
X117428571Y-97835771D02*
X117571428Y-97835771D01*
X117571428Y-97835771D02*
X117666666Y-97883390D01*
X117666666Y-97883390D02*
X117714285Y-97931009D01*
X117714285Y-97931009D02*
X117761904Y-98026247D01*
X117761904Y-98026247D02*
X117761904Y-98264342D01*
X117761904Y-98264342D02*
X117714285Y-98359580D01*
X117714285Y-98359580D02*
X117666666Y-98407200D01*
X117666666Y-98407200D02*
X117571428Y-98454819D01*
X117571428Y-98454819D02*
X117285714Y-98454819D01*
X117285714Y-98454819D02*
X117190476Y-98407200D01*
X117190476Y-98407200D02*
X117142857Y-98359580D01*
X76093738Y-113013094D02*
X75093738Y-113013094D01*
X75093738Y-113013094D02*
X75093738Y-112774999D01*
X75093738Y-112774999D02*
X75141357Y-112632142D01*
X75141357Y-112632142D02*
X75236595Y-112536904D01*
X75236595Y-112536904D02*
X75331833Y-112489285D01*
X75331833Y-112489285D02*
X75522309Y-112441666D01*
X75522309Y-112441666D02*
X75665166Y-112441666D01*
X75665166Y-112441666D02*
X75855642Y-112489285D01*
X75855642Y-112489285D02*
X75950880Y-112536904D01*
X75950880Y-112536904D02*
X76046119Y-112632142D01*
X76046119Y-112632142D02*
X76093738Y-112774999D01*
X76093738Y-112774999D02*
X76093738Y-113013094D01*
X75188976Y-112060713D02*
X75141357Y-112013094D01*
X75141357Y-112013094D02*
X75093738Y-111917856D01*
X75093738Y-111917856D02*
X75093738Y-111679761D01*
X75093738Y-111679761D02*
X75141357Y-111584523D01*
X75141357Y-111584523D02*
X75188976Y-111536904D01*
X75188976Y-111536904D02*
X75284214Y-111489285D01*
X75284214Y-111489285D02*
X75379452Y-111489285D01*
X75379452Y-111489285D02*
X75522309Y-111536904D01*
X75522309Y-111536904D02*
X76093738Y-112108332D01*
X76093738Y-112108332D02*
X76093738Y-111489285D01*
X146511905Y-74454819D02*
X146511905Y-73454819D01*
X146511905Y-73454819D02*
X146750000Y-73454819D01*
X146750000Y-73454819D02*
X146892857Y-73502438D01*
X146892857Y-73502438D02*
X146988095Y-73597676D01*
X146988095Y-73597676D02*
X147035714Y-73692914D01*
X147035714Y-73692914D02*
X147083333Y-73883390D01*
X147083333Y-73883390D02*
X147083333Y-74026247D01*
X147083333Y-74026247D02*
X147035714Y-74216723D01*
X147035714Y-74216723D02*
X146988095Y-74311961D01*
X146988095Y-74311961D02*
X146892857Y-74407200D01*
X146892857Y-74407200D02*
X146750000Y-74454819D01*
X146750000Y-74454819D02*
X146511905Y-74454819D01*
X147988095Y-73454819D02*
X147511905Y-73454819D01*
X147511905Y-73454819D02*
X147464286Y-73931009D01*
X147464286Y-73931009D02*
X147511905Y-73883390D01*
X147511905Y-73883390D02*
X147607143Y-73835771D01*
X147607143Y-73835771D02*
X147845238Y-73835771D01*
X147845238Y-73835771D02*
X147940476Y-73883390D01*
X147940476Y-73883390D02*
X147988095Y-73931009D01*
X147988095Y-73931009D02*
X148035714Y-74026247D01*
X148035714Y-74026247D02*
X148035714Y-74264342D01*
X148035714Y-74264342D02*
X147988095Y-74359580D01*
X147988095Y-74359580D02*
X147940476Y-74407200D01*
X147940476Y-74407200D02*
X147845238Y-74454819D01*
X147845238Y-74454819D02*
X147607143Y-74454819D01*
X147607143Y-74454819D02*
X147511905Y-74407200D01*
X147511905Y-74407200D02*
X147464286Y-74359580D01*
X129784819Y-51103333D02*
X130499104Y-51103333D01*
X130499104Y-51103333D02*
X130641961Y-51150952D01*
X130641961Y-51150952D02*
X130737200Y-51246190D01*
X130737200Y-51246190D02*
X130784819Y-51389047D01*
X130784819Y-51389047D02*
X130784819Y-51484285D01*
X130784819Y-50103333D02*
X130784819Y-50674761D01*
X130784819Y-50389047D02*
X129784819Y-50389047D01*
X129784819Y-50389047D02*
X129927676Y-50484285D01*
X129927676Y-50484285D02*
X130022914Y-50579523D01*
X130022914Y-50579523D02*
X130070533Y-50674761D01*
X126704819Y-98416666D02*
X126228628Y-98749999D01*
X126704819Y-98988094D02*
X125704819Y-98988094D01*
X125704819Y-98988094D02*
X125704819Y-98607142D01*
X125704819Y-98607142D02*
X125752438Y-98511904D01*
X125752438Y-98511904D02*
X125800057Y-98464285D01*
X125800057Y-98464285D02*
X125895295Y-98416666D01*
X125895295Y-98416666D02*
X126038152Y-98416666D01*
X126038152Y-98416666D02*
X126133390Y-98464285D01*
X126133390Y-98464285D02*
X126181009Y-98511904D01*
X126181009Y-98511904D02*
X126228628Y-98607142D01*
X126228628Y-98607142D02*
X126228628Y-98988094D01*
X125704819Y-97559523D02*
X125704819Y-97749999D01*
X125704819Y-97749999D02*
X125752438Y-97845237D01*
X125752438Y-97845237D02*
X125800057Y-97892856D01*
X125800057Y-97892856D02*
X125942914Y-97988094D01*
X125942914Y-97988094D02*
X126133390Y-98035713D01*
X126133390Y-98035713D02*
X126514342Y-98035713D01*
X126514342Y-98035713D02*
X126609580Y-97988094D01*
X126609580Y-97988094D02*
X126657200Y-97940475D01*
X126657200Y-97940475D02*
X126704819Y-97845237D01*
X126704819Y-97845237D02*
X126704819Y-97654761D01*
X126704819Y-97654761D02*
X126657200Y-97559523D01*
X126657200Y-97559523D02*
X126609580Y-97511904D01*
X126609580Y-97511904D02*
X126514342Y-97464285D01*
X126514342Y-97464285D02*
X126276247Y-97464285D01*
X126276247Y-97464285D02*
X126181009Y-97511904D01*
X126181009Y-97511904D02*
X126133390Y-97559523D01*
X126133390Y-97559523D02*
X126085771Y-97654761D01*
X126085771Y-97654761D02*
X126085771Y-97845237D01*
X126085771Y-97845237D02*
X126133390Y-97940475D01*
X126133390Y-97940475D02*
X126181009Y-97988094D01*
X126181009Y-97988094D02*
X126276247Y-98035713D01*
X75897080Y-72392857D02*
X75944700Y-72440476D01*
X75944700Y-72440476D02*
X75992319Y-72583333D01*
X75992319Y-72583333D02*
X75992319Y-72678571D01*
X75992319Y-72678571D02*
X75944700Y-72821428D01*
X75944700Y-72821428D02*
X75849461Y-72916666D01*
X75849461Y-72916666D02*
X75754223Y-72964285D01*
X75754223Y-72964285D02*
X75563747Y-73011904D01*
X75563747Y-73011904D02*
X75420890Y-73011904D01*
X75420890Y-73011904D02*
X75230414Y-72964285D01*
X75230414Y-72964285D02*
X75135176Y-72916666D01*
X75135176Y-72916666D02*
X75039938Y-72821428D01*
X75039938Y-72821428D02*
X74992319Y-72678571D01*
X74992319Y-72678571D02*
X74992319Y-72583333D01*
X74992319Y-72583333D02*
X75039938Y-72440476D01*
X75039938Y-72440476D02*
X75087557Y-72392857D01*
X75992319Y-71440476D02*
X75992319Y-72011904D01*
X75992319Y-71726190D02*
X74992319Y-71726190D01*
X74992319Y-71726190D02*
X75135176Y-71821428D01*
X75135176Y-71821428D02*
X75230414Y-71916666D01*
X75230414Y-71916666D02*
X75278033Y-72011904D01*
X75992319Y-70488095D02*
X75992319Y-71059523D01*
X75992319Y-70773809D02*
X74992319Y-70773809D01*
X74992319Y-70773809D02*
X75135176Y-70869047D01*
X75135176Y-70869047D02*
X75230414Y-70964285D01*
X75230414Y-70964285D02*
X75278033Y-71059523D01*
X144454819Y-69326904D02*
X145264342Y-69326904D01*
X145264342Y-69326904D02*
X145359580Y-69279285D01*
X145359580Y-69279285D02*
X145407200Y-69231666D01*
X145407200Y-69231666D02*
X145454819Y-69136428D01*
X145454819Y-69136428D02*
X145454819Y-68945952D01*
X145454819Y-68945952D02*
X145407200Y-68850714D01*
X145407200Y-68850714D02*
X145359580Y-68803095D01*
X145359580Y-68803095D02*
X145264342Y-68755476D01*
X145264342Y-68755476D02*
X144454819Y-68755476D01*
X144788152Y-67850714D02*
X145454819Y-67850714D01*
X144407200Y-68088809D02*
X145121485Y-68326904D01*
X145121485Y-68326904D02*
X145121485Y-67707857D01*
X128454819Y-90488094D02*
X127454819Y-90488094D01*
X127454819Y-90488094D02*
X127454819Y-90249999D01*
X127454819Y-90249999D02*
X127502438Y-90107142D01*
X127502438Y-90107142D02*
X127597676Y-90011904D01*
X127597676Y-90011904D02*
X127692914Y-89964285D01*
X127692914Y-89964285D02*
X127883390Y-89916666D01*
X127883390Y-89916666D02*
X128026247Y-89916666D01*
X128026247Y-89916666D02*
X128216723Y-89964285D01*
X128216723Y-89964285D02*
X128311961Y-90011904D01*
X128311961Y-90011904D02*
X128407200Y-90107142D01*
X128407200Y-90107142D02*
X128454819Y-90249999D01*
X128454819Y-90249999D02*
X128454819Y-90488094D01*
X128454819Y-88964285D02*
X128454819Y-89535713D01*
X128454819Y-89249999D02*
X127454819Y-89249999D01*
X127454819Y-89249999D02*
X127597676Y-89345237D01*
X127597676Y-89345237D02*
X127692914Y-89440475D01*
X127692914Y-89440475D02*
X127740533Y-89535713D01*
X148710476Y-109324819D02*
X148710476Y-110039104D01*
X148710476Y-110039104D02*
X148662857Y-110181961D01*
X148662857Y-110181961D02*
X148567619Y-110277200D01*
X148567619Y-110277200D02*
X148424762Y-110324819D01*
X148424762Y-110324819D02*
X148329524Y-110324819D01*
X149710476Y-110324819D02*
X149139048Y-110324819D01*
X149424762Y-110324819D02*
X149424762Y-109324819D01*
X149424762Y-109324819D02*
X149329524Y-109467676D01*
X149329524Y-109467676D02*
X149234286Y-109562914D01*
X149234286Y-109562914D02*
X149139048Y-109610533D01*
X150567619Y-109658152D02*
X150567619Y-110324819D01*
X150329524Y-109277200D02*
X150091429Y-109991485D01*
X150091429Y-109991485D02*
X150710476Y-109991485D01*
X111204819Y-120666666D02*
X110728628Y-120999999D01*
X111204819Y-121238094D02*
X110204819Y-121238094D01*
X110204819Y-121238094D02*
X110204819Y-120857142D01*
X110204819Y-120857142D02*
X110252438Y-120761904D01*
X110252438Y-120761904D02*
X110300057Y-120714285D01*
X110300057Y-120714285D02*
X110395295Y-120666666D01*
X110395295Y-120666666D02*
X110538152Y-120666666D01*
X110538152Y-120666666D02*
X110633390Y-120714285D01*
X110633390Y-120714285D02*
X110681009Y-120761904D01*
X110681009Y-120761904D02*
X110728628Y-120857142D01*
X110728628Y-120857142D02*
X110728628Y-121238094D01*
X110300057Y-120285713D02*
X110252438Y-120238094D01*
X110252438Y-120238094D02*
X110204819Y-120142856D01*
X110204819Y-120142856D02*
X110204819Y-119904761D01*
X110204819Y-119904761D02*
X110252438Y-119809523D01*
X110252438Y-119809523D02*
X110300057Y-119761904D01*
X110300057Y-119761904D02*
X110395295Y-119714285D01*
X110395295Y-119714285D02*
X110490533Y-119714285D01*
X110490533Y-119714285D02*
X110633390Y-119761904D01*
X110633390Y-119761904D02*
X111204819Y-120333332D01*
X111204819Y-120333332D02*
X111204819Y-119714285D01*
X77609580Y-119416666D02*
X77657200Y-119464285D01*
X77657200Y-119464285D02*
X77704819Y-119607142D01*
X77704819Y-119607142D02*
X77704819Y-119702380D01*
X77704819Y-119702380D02*
X77657200Y-119845237D01*
X77657200Y-119845237D02*
X77561961Y-119940475D01*
X77561961Y-119940475D02*
X77466723Y-119988094D01*
X77466723Y-119988094D02*
X77276247Y-120035713D01*
X77276247Y-120035713D02*
X77133390Y-120035713D01*
X77133390Y-120035713D02*
X76942914Y-119988094D01*
X76942914Y-119988094D02*
X76847676Y-119940475D01*
X76847676Y-119940475D02*
X76752438Y-119845237D01*
X76752438Y-119845237D02*
X76704819Y-119702380D01*
X76704819Y-119702380D02*
X76704819Y-119607142D01*
X76704819Y-119607142D02*
X76752438Y-119464285D01*
X76752438Y-119464285D02*
X76800057Y-119416666D01*
X77133390Y-118845237D02*
X77085771Y-118940475D01*
X77085771Y-118940475D02*
X77038152Y-118988094D01*
X77038152Y-118988094D02*
X76942914Y-119035713D01*
X76942914Y-119035713D02*
X76895295Y-119035713D01*
X76895295Y-119035713D02*
X76800057Y-118988094D01*
X76800057Y-118988094D02*
X76752438Y-118940475D01*
X76752438Y-118940475D02*
X76704819Y-118845237D01*
X76704819Y-118845237D02*
X76704819Y-118654761D01*
X76704819Y-118654761D02*
X76752438Y-118559523D01*
X76752438Y-118559523D02*
X76800057Y-118511904D01*
X76800057Y-118511904D02*
X76895295Y-118464285D01*
X76895295Y-118464285D02*
X76942914Y-118464285D01*
X76942914Y-118464285D02*
X77038152Y-118511904D01*
X77038152Y-118511904D02*
X77085771Y-118559523D01*
X77085771Y-118559523D02*
X77133390Y-118654761D01*
X77133390Y-118654761D02*
X77133390Y-118845237D01*
X77133390Y-118845237D02*
X77181009Y-118940475D01*
X77181009Y-118940475D02*
X77228628Y-118988094D01*
X77228628Y-118988094D02*
X77323866Y-119035713D01*
X77323866Y-119035713D02*
X77514342Y-119035713D01*
X77514342Y-119035713D02*
X77609580Y-118988094D01*
X77609580Y-118988094D02*
X77657200Y-118940475D01*
X77657200Y-118940475D02*
X77704819Y-118845237D01*
X77704819Y-118845237D02*
X77704819Y-118654761D01*
X77704819Y-118654761D02*
X77657200Y-118559523D01*
X77657200Y-118559523D02*
X77609580Y-118511904D01*
X77609580Y-118511904D02*
X77514342Y-118464285D01*
X77514342Y-118464285D02*
X77323866Y-118464285D01*
X77323866Y-118464285D02*
X77228628Y-118511904D01*
X77228628Y-118511904D02*
X77181009Y-118559523D01*
X77181009Y-118559523D02*
X77133390Y-118654761D01*
X128354819Y-79666666D02*
X127878628Y-79999999D01*
X128354819Y-80238094D02*
X127354819Y-80238094D01*
X127354819Y-80238094D02*
X127354819Y-79857142D01*
X127354819Y-79857142D02*
X127402438Y-79761904D01*
X127402438Y-79761904D02*
X127450057Y-79714285D01*
X127450057Y-79714285D02*
X127545295Y-79666666D01*
X127545295Y-79666666D02*
X127688152Y-79666666D01*
X127688152Y-79666666D02*
X127783390Y-79714285D01*
X127783390Y-79714285D02*
X127831009Y-79761904D01*
X127831009Y-79761904D02*
X127878628Y-79857142D01*
X127878628Y-79857142D02*
X127878628Y-80238094D01*
X127783390Y-79095237D02*
X127735771Y-79190475D01*
X127735771Y-79190475D02*
X127688152Y-79238094D01*
X127688152Y-79238094D02*
X127592914Y-79285713D01*
X127592914Y-79285713D02*
X127545295Y-79285713D01*
X127545295Y-79285713D02*
X127450057Y-79238094D01*
X127450057Y-79238094D02*
X127402438Y-79190475D01*
X127402438Y-79190475D02*
X127354819Y-79095237D01*
X127354819Y-79095237D02*
X127354819Y-78904761D01*
X127354819Y-78904761D02*
X127402438Y-78809523D01*
X127402438Y-78809523D02*
X127450057Y-78761904D01*
X127450057Y-78761904D02*
X127545295Y-78714285D01*
X127545295Y-78714285D02*
X127592914Y-78714285D01*
X127592914Y-78714285D02*
X127688152Y-78761904D01*
X127688152Y-78761904D02*
X127735771Y-78809523D01*
X127735771Y-78809523D02*
X127783390Y-78904761D01*
X127783390Y-78904761D02*
X127783390Y-79095237D01*
X127783390Y-79095237D02*
X127831009Y-79190475D01*
X127831009Y-79190475D02*
X127878628Y-79238094D01*
X127878628Y-79238094D02*
X127973866Y-79285713D01*
X127973866Y-79285713D02*
X128164342Y-79285713D01*
X128164342Y-79285713D02*
X128259580Y-79238094D01*
X128259580Y-79238094D02*
X128307200Y-79190475D01*
X128307200Y-79190475D02*
X128354819Y-79095237D01*
X128354819Y-79095237D02*
X128354819Y-78904761D01*
X128354819Y-78904761D02*
X128307200Y-78809523D01*
X128307200Y-78809523D02*
X128259580Y-78761904D01*
X128259580Y-78761904D02*
X128164342Y-78714285D01*
X128164342Y-78714285D02*
X127973866Y-78714285D01*
X127973866Y-78714285D02*
X127878628Y-78761904D01*
X127878628Y-78761904D02*
X127831009Y-78809523D01*
X127831009Y-78809523D02*
X127783390Y-78904761D01*
X91008333Y-131109580D02*
X90960714Y-131157200D01*
X90960714Y-131157200D02*
X90817857Y-131204819D01*
X90817857Y-131204819D02*
X90722619Y-131204819D01*
X90722619Y-131204819D02*
X90579762Y-131157200D01*
X90579762Y-131157200D02*
X90484524Y-131061961D01*
X90484524Y-131061961D02*
X90436905Y-130966723D01*
X90436905Y-130966723D02*
X90389286Y-130776247D01*
X90389286Y-130776247D02*
X90389286Y-130633390D01*
X90389286Y-130633390D02*
X90436905Y-130442914D01*
X90436905Y-130442914D02*
X90484524Y-130347676D01*
X90484524Y-130347676D02*
X90579762Y-130252438D01*
X90579762Y-130252438D02*
X90722619Y-130204819D01*
X90722619Y-130204819D02*
X90817857Y-130204819D01*
X90817857Y-130204819D02*
X90960714Y-130252438D01*
X90960714Y-130252438D02*
X91008333Y-130300057D01*
X91913095Y-130204819D02*
X91436905Y-130204819D01*
X91436905Y-130204819D02*
X91389286Y-130681009D01*
X91389286Y-130681009D02*
X91436905Y-130633390D01*
X91436905Y-130633390D02*
X91532143Y-130585771D01*
X91532143Y-130585771D02*
X91770238Y-130585771D01*
X91770238Y-130585771D02*
X91865476Y-130633390D01*
X91865476Y-130633390D02*
X91913095Y-130681009D01*
X91913095Y-130681009D02*
X91960714Y-130776247D01*
X91960714Y-130776247D02*
X91960714Y-131014342D01*
X91960714Y-131014342D02*
X91913095Y-131109580D01*
X91913095Y-131109580D02*
X91865476Y-131157200D01*
X91865476Y-131157200D02*
X91770238Y-131204819D01*
X91770238Y-131204819D02*
X91532143Y-131204819D01*
X91532143Y-131204819D02*
X91436905Y-131157200D01*
X91436905Y-131157200D02*
X91389286Y-131109580D01*
X77124819Y-66787343D02*
X77934342Y-66787343D01*
X77934342Y-66787343D02*
X78029580Y-66739724D01*
X78029580Y-66739724D02*
X78077200Y-66692105D01*
X78077200Y-66692105D02*
X78124819Y-66596867D01*
X78124819Y-66596867D02*
X78124819Y-66406391D01*
X78124819Y-66406391D02*
X78077200Y-66311153D01*
X78077200Y-66311153D02*
X78029580Y-66263534D01*
X78029580Y-66263534D02*
X77934342Y-66215915D01*
X77934342Y-66215915D02*
X77124819Y-66215915D01*
X77220057Y-65787343D02*
X77172438Y-65739724D01*
X77172438Y-65739724D02*
X77124819Y-65644486D01*
X77124819Y-65644486D02*
X77124819Y-65406391D01*
X77124819Y-65406391D02*
X77172438Y-65311153D01*
X77172438Y-65311153D02*
X77220057Y-65263534D01*
X77220057Y-65263534D02*
X77315295Y-65215915D01*
X77315295Y-65215915D02*
X77410533Y-65215915D01*
X77410533Y-65215915D02*
X77553390Y-65263534D01*
X77553390Y-65263534D02*
X78124819Y-65834962D01*
X78124819Y-65834962D02*
X78124819Y-65215915D01*
X121609580Y-124666666D02*
X121657200Y-124714285D01*
X121657200Y-124714285D02*
X121704819Y-124857142D01*
X121704819Y-124857142D02*
X121704819Y-124952380D01*
X121704819Y-124952380D02*
X121657200Y-125095237D01*
X121657200Y-125095237D02*
X121561961Y-125190475D01*
X121561961Y-125190475D02*
X121466723Y-125238094D01*
X121466723Y-125238094D02*
X121276247Y-125285713D01*
X121276247Y-125285713D02*
X121133390Y-125285713D01*
X121133390Y-125285713D02*
X120942914Y-125238094D01*
X120942914Y-125238094D02*
X120847676Y-125190475D01*
X120847676Y-125190475D02*
X120752438Y-125095237D01*
X120752438Y-125095237D02*
X120704819Y-124952380D01*
X120704819Y-124952380D02*
X120704819Y-124857142D01*
X120704819Y-124857142D02*
X120752438Y-124714285D01*
X120752438Y-124714285D02*
X120800057Y-124666666D01*
X120704819Y-124333332D02*
X120704819Y-123714285D01*
X120704819Y-123714285D02*
X121085771Y-124047618D01*
X121085771Y-124047618D02*
X121085771Y-123904761D01*
X121085771Y-123904761D02*
X121133390Y-123809523D01*
X121133390Y-123809523D02*
X121181009Y-123761904D01*
X121181009Y-123761904D02*
X121276247Y-123714285D01*
X121276247Y-123714285D02*
X121514342Y-123714285D01*
X121514342Y-123714285D02*
X121609580Y-123761904D01*
X121609580Y-123761904D02*
X121657200Y-123809523D01*
X121657200Y-123809523D02*
X121704819Y-123904761D01*
X121704819Y-123904761D02*
X121704819Y-124190475D01*
X121704819Y-124190475D02*
X121657200Y-124285713D01*
X121657200Y-124285713D02*
X121609580Y-124333332D01*
X107859580Y-133666666D02*
X107907200Y-133714285D01*
X107907200Y-133714285D02*
X107954819Y-133857142D01*
X107954819Y-133857142D02*
X107954819Y-133952380D01*
X107954819Y-133952380D02*
X107907200Y-134095237D01*
X107907200Y-134095237D02*
X107811961Y-134190475D01*
X107811961Y-134190475D02*
X107716723Y-134238094D01*
X107716723Y-134238094D02*
X107526247Y-134285713D01*
X107526247Y-134285713D02*
X107383390Y-134285713D01*
X107383390Y-134285713D02*
X107192914Y-134238094D01*
X107192914Y-134238094D02*
X107097676Y-134190475D01*
X107097676Y-134190475D02*
X107002438Y-134095237D01*
X107002438Y-134095237D02*
X106954819Y-133952380D01*
X106954819Y-133952380D02*
X106954819Y-133857142D01*
X106954819Y-133857142D02*
X107002438Y-133714285D01*
X107002438Y-133714285D02*
X107050057Y-133666666D01*
X107288152Y-132809523D02*
X107954819Y-132809523D01*
X106907200Y-133047618D02*
X107621485Y-133285713D01*
X107621485Y-133285713D02*
X107621485Y-132666666D01*
X134362319Y-51223333D02*
X135076604Y-51223333D01*
X135076604Y-51223333D02*
X135219461Y-51270952D01*
X135219461Y-51270952D02*
X135314700Y-51366190D01*
X135314700Y-51366190D02*
X135362319Y-51509047D01*
X135362319Y-51509047D02*
X135362319Y-51604285D01*
X134790890Y-50604285D02*
X134743271Y-50699523D01*
X134743271Y-50699523D02*
X134695652Y-50747142D01*
X134695652Y-50747142D02*
X134600414Y-50794761D01*
X134600414Y-50794761D02*
X134552795Y-50794761D01*
X134552795Y-50794761D02*
X134457557Y-50747142D01*
X134457557Y-50747142D02*
X134409938Y-50699523D01*
X134409938Y-50699523D02*
X134362319Y-50604285D01*
X134362319Y-50604285D02*
X134362319Y-50413809D01*
X134362319Y-50413809D02*
X134409938Y-50318571D01*
X134409938Y-50318571D02*
X134457557Y-50270952D01*
X134457557Y-50270952D02*
X134552795Y-50223333D01*
X134552795Y-50223333D02*
X134600414Y-50223333D01*
X134600414Y-50223333D02*
X134695652Y-50270952D01*
X134695652Y-50270952D02*
X134743271Y-50318571D01*
X134743271Y-50318571D02*
X134790890Y-50413809D01*
X134790890Y-50413809D02*
X134790890Y-50604285D01*
X134790890Y-50604285D02*
X134838509Y-50699523D01*
X134838509Y-50699523D02*
X134886128Y-50747142D01*
X134886128Y-50747142D02*
X134981366Y-50794761D01*
X134981366Y-50794761D02*
X135171842Y-50794761D01*
X135171842Y-50794761D02*
X135267080Y-50747142D01*
X135267080Y-50747142D02*
X135314700Y-50699523D01*
X135314700Y-50699523D02*
X135362319Y-50604285D01*
X135362319Y-50604285D02*
X135362319Y-50413809D01*
X135362319Y-50413809D02*
X135314700Y-50318571D01*
X135314700Y-50318571D02*
X135267080Y-50270952D01*
X135267080Y-50270952D02*
X135171842Y-50223333D01*
X135171842Y-50223333D02*
X134981366Y-50223333D01*
X134981366Y-50223333D02*
X134886128Y-50270952D01*
X134886128Y-50270952D02*
X134838509Y-50318571D01*
X134838509Y-50318571D02*
X134790890Y-50413809D01*
X59666666Y-102124819D02*
X59666666Y-102839104D01*
X59666666Y-102839104D02*
X59619047Y-102981961D01*
X59619047Y-102981961D02*
X59523809Y-103077200D01*
X59523809Y-103077200D02*
X59380952Y-103124819D01*
X59380952Y-103124819D02*
X59285714Y-103124819D01*
X60095238Y-102220057D02*
X60142857Y-102172438D01*
X60142857Y-102172438D02*
X60238095Y-102124819D01*
X60238095Y-102124819D02*
X60476190Y-102124819D01*
X60476190Y-102124819D02*
X60571428Y-102172438D01*
X60571428Y-102172438D02*
X60619047Y-102220057D01*
X60619047Y-102220057D02*
X60666666Y-102315295D01*
X60666666Y-102315295D02*
X60666666Y-102410533D01*
X60666666Y-102410533D02*
X60619047Y-102553390D01*
X60619047Y-102553390D02*
X60047619Y-103124819D01*
X60047619Y-103124819D02*
X60666666Y-103124819D01*
X128454819Y-71263094D02*
X127454819Y-71263094D01*
X127454819Y-71263094D02*
X127454819Y-71024999D01*
X127454819Y-71024999D02*
X127502438Y-70882142D01*
X127502438Y-70882142D02*
X127597676Y-70786904D01*
X127597676Y-70786904D02*
X127692914Y-70739285D01*
X127692914Y-70739285D02*
X127883390Y-70691666D01*
X127883390Y-70691666D02*
X128026247Y-70691666D01*
X128026247Y-70691666D02*
X128216723Y-70739285D01*
X128216723Y-70739285D02*
X128311961Y-70786904D01*
X128311961Y-70786904D02*
X128407200Y-70882142D01*
X128407200Y-70882142D02*
X128454819Y-71024999D01*
X128454819Y-71024999D02*
X128454819Y-71263094D01*
X127788152Y-69834523D02*
X128454819Y-69834523D01*
X127407200Y-70072618D02*
X128121485Y-70310713D01*
X128121485Y-70310713D02*
X128121485Y-69691666D01*
X78649819Y-117741904D02*
X79459342Y-117741904D01*
X79459342Y-117741904D02*
X79554580Y-117694285D01*
X79554580Y-117694285D02*
X79602200Y-117646666D01*
X79602200Y-117646666D02*
X79649819Y-117551428D01*
X79649819Y-117551428D02*
X79649819Y-117360952D01*
X79649819Y-117360952D02*
X79602200Y-117265714D01*
X79602200Y-117265714D02*
X79554580Y-117218095D01*
X79554580Y-117218095D02*
X79459342Y-117170476D01*
X79459342Y-117170476D02*
X78649819Y-117170476D01*
X79649819Y-116170476D02*
X79649819Y-116741904D01*
X79649819Y-116456190D02*
X78649819Y-116456190D01*
X78649819Y-116456190D02*
X78792676Y-116551428D01*
X78792676Y-116551428D02*
X78887914Y-116646666D01*
X78887914Y-116646666D02*
X78935533Y-116741904D01*
X60555476Y-134024819D02*
X60555476Y-134739104D01*
X60555476Y-134739104D02*
X60507857Y-134881961D01*
X60507857Y-134881961D02*
X60412619Y-134977200D01*
X60412619Y-134977200D02*
X60269762Y-135024819D01*
X60269762Y-135024819D02*
X60174524Y-135024819D01*
X61555476Y-135024819D02*
X60984048Y-135024819D01*
X61269762Y-135024819D02*
X61269762Y-134024819D01*
X61269762Y-134024819D02*
X61174524Y-134167676D01*
X61174524Y-134167676D02*
X61079286Y-134262914D01*
X61079286Y-134262914D02*
X60984048Y-134310533D01*
X62174524Y-134024819D02*
X62269762Y-134024819D01*
X62269762Y-134024819D02*
X62365000Y-134072438D01*
X62365000Y-134072438D02*
X62412619Y-134120057D01*
X62412619Y-134120057D02*
X62460238Y-134215295D01*
X62460238Y-134215295D02*
X62507857Y-134405771D01*
X62507857Y-134405771D02*
X62507857Y-134643866D01*
X62507857Y-134643866D02*
X62460238Y-134834342D01*
X62460238Y-134834342D02*
X62412619Y-134929580D01*
X62412619Y-134929580D02*
X62365000Y-134977200D01*
X62365000Y-134977200D02*
X62269762Y-135024819D01*
X62269762Y-135024819D02*
X62174524Y-135024819D01*
X62174524Y-135024819D02*
X62079286Y-134977200D01*
X62079286Y-134977200D02*
X62031667Y-134929580D01*
X62031667Y-134929580D02*
X61984048Y-134834342D01*
X61984048Y-134834342D02*
X61936429Y-134643866D01*
X61936429Y-134643866D02*
X61936429Y-134405771D01*
X61936429Y-134405771D02*
X61984048Y-134215295D01*
X61984048Y-134215295D02*
X62031667Y-134120057D01*
X62031667Y-134120057D02*
X62079286Y-134072438D01*
X62079286Y-134072438D02*
X62174524Y-134024819D01*
X128454819Y-65416666D02*
X127978628Y-65749999D01*
X128454819Y-65988094D02*
X127454819Y-65988094D01*
X127454819Y-65988094D02*
X127454819Y-65607142D01*
X127454819Y-65607142D02*
X127502438Y-65511904D01*
X127502438Y-65511904D02*
X127550057Y-65464285D01*
X127550057Y-65464285D02*
X127645295Y-65416666D01*
X127645295Y-65416666D02*
X127788152Y-65416666D01*
X127788152Y-65416666D02*
X127883390Y-65464285D01*
X127883390Y-65464285D02*
X127931009Y-65511904D01*
X127931009Y-65511904D02*
X127978628Y-65607142D01*
X127978628Y-65607142D02*
X127978628Y-65988094D01*
X128454819Y-64940475D02*
X128454819Y-64749999D01*
X128454819Y-64749999D02*
X128407200Y-64654761D01*
X128407200Y-64654761D02*
X128359580Y-64607142D01*
X128359580Y-64607142D02*
X128216723Y-64511904D01*
X128216723Y-64511904D02*
X128026247Y-64464285D01*
X128026247Y-64464285D02*
X127645295Y-64464285D01*
X127645295Y-64464285D02*
X127550057Y-64511904D01*
X127550057Y-64511904D02*
X127502438Y-64559523D01*
X127502438Y-64559523D02*
X127454819Y-64654761D01*
X127454819Y-64654761D02*
X127454819Y-64845237D01*
X127454819Y-64845237D02*
X127502438Y-64940475D01*
X127502438Y-64940475D02*
X127550057Y-64988094D01*
X127550057Y-64988094D02*
X127645295Y-65035713D01*
X127645295Y-65035713D02*
X127883390Y-65035713D01*
X127883390Y-65035713D02*
X127978628Y-64988094D01*
X127978628Y-64988094D02*
X128026247Y-64940475D01*
X128026247Y-64940475D02*
X128073866Y-64845237D01*
X128073866Y-64845237D02*
X128073866Y-64654761D01*
X128073866Y-64654761D02*
X128026247Y-64559523D01*
X128026247Y-64559523D02*
X127978628Y-64511904D01*
X127978628Y-64511904D02*
X127883390Y-64464285D01*
X78666666Y-82334819D02*
X78666666Y-83049104D01*
X78666666Y-83049104D02*
X78619047Y-83191961D01*
X78619047Y-83191961D02*
X78523809Y-83287200D01*
X78523809Y-83287200D02*
X78380952Y-83334819D01*
X78380952Y-83334819D02*
X78285714Y-83334819D01*
X79047619Y-82334819D02*
X79714285Y-82334819D01*
X79714285Y-82334819D02*
X79285714Y-83334819D01*
X128354819Y-85213094D02*
X127354819Y-85213094D01*
X127354819Y-85213094D02*
X127354819Y-84974999D01*
X127354819Y-84974999D02*
X127402438Y-84832142D01*
X127402438Y-84832142D02*
X127497676Y-84736904D01*
X127497676Y-84736904D02*
X127592914Y-84689285D01*
X127592914Y-84689285D02*
X127783390Y-84641666D01*
X127783390Y-84641666D02*
X127926247Y-84641666D01*
X127926247Y-84641666D02*
X128116723Y-84689285D01*
X128116723Y-84689285D02*
X128211961Y-84736904D01*
X128211961Y-84736904D02*
X128307200Y-84832142D01*
X128307200Y-84832142D02*
X128354819Y-84974999D01*
X128354819Y-84974999D02*
X128354819Y-85213094D01*
X127354819Y-84308332D02*
X127354819Y-83689285D01*
X127354819Y-83689285D02*
X127735771Y-84022618D01*
X127735771Y-84022618D02*
X127735771Y-83879761D01*
X127735771Y-83879761D02*
X127783390Y-83784523D01*
X127783390Y-83784523D02*
X127831009Y-83736904D01*
X127831009Y-83736904D02*
X127926247Y-83689285D01*
X127926247Y-83689285D02*
X128164342Y-83689285D01*
X128164342Y-83689285D02*
X128259580Y-83736904D01*
X128259580Y-83736904D02*
X128307200Y-83784523D01*
X128307200Y-83784523D02*
X128354819Y-83879761D01*
X128354819Y-83879761D02*
X128354819Y-84165475D01*
X128354819Y-84165475D02*
X128307200Y-84260713D01*
X128307200Y-84260713D02*
X128259580Y-84308332D01*
X64657200Y-94583332D02*
X64704819Y-94440475D01*
X64704819Y-94440475D02*
X64704819Y-94202380D01*
X64704819Y-94202380D02*
X64657200Y-94107142D01*
X64657200Y-94107142D02*
X64609580Y-94059523D01*
X64609580Y-94059523D02*
X64514342Y-94011904D01*
X64514342Y-94011904D02*
X64419104Y-94011904D01*
X64419104Y-94011904D02*
X64323866Y-94059523D01*
X64323866Y-94059523D02*
X64276247Y-94107142D01*
X64276247Y-94107142D02*
X64228628Y-94202380D01*
X64228628Y-94202380D02*
X64181009Y-94392856D01*
X64181009Y-94392856D02*
X64133390Y-94488094D01*
X64133390Y-94488094D02*
X64085771Y-94535713D01*
X64085771Y-94535713D02*
X63990533Y-94583332D01*
X63990533Y-94583332D02*
X63895295Y-94583332D01*
X63895295Y-94583332D02*
X63800057Y-94535713D01*
X63800057Y-94535713D02*
X63752438Y-94488094D01*
X63752438Y-94488094D02*
X63704819Y-94392856D01*
X63704819Y-94392856D02*
X63704819Y-94154761D01*
X63704819Y-94154761D02*
X63752438Y-94011904D01*
X63704819Y-93678570D02*
X64704819Y-93440475D01*
X64704819Y-93440475D02*
X63990533Y-93249999D01*
X63990533Y-93249999D02*
X64704819Y-93059523D01*
X64704819Y-93059523D02*
X63704819Y-92821428D01*
X64704819Y-91916666D02*
X64704819Y-92488094D01*
X64704819Y-92202380D02*
X63704819Y-92202380D01*
X63704819Y-92202380D02*
X63847676Y-92297618D01*
X63847676Y-92297618D02*
X63942914Y-92392856D01*
X63942914Y-92392856D02*
X63990533Y-92488094D01*
X110658333Y-114954819D02*
X110325000Y-114478628D01*
X110086905Y-114954819D02*
X110086905Y-113954819D01*
X110086905Y-113954819D02*
X110467857Y-113954819D01*
X110467857Y-113954819D02*
X110563095Y-114002438D01*
X110563095Y-114002438D02*
X110610714Y-114050057D01*
X110610714Y-114050057D02*
X110658333Y-114145295D01*
X110658333Y-114145295D02*
X110658333Y-114288152D01*
X110658333Y-114288152D02*
X110610714Y-114383390D01*
X110610714Y-114383390D02*
X110563095Y-114431009D01*
X110563095Y-114431009D02*
X110467857Y-114478628D01*
X110467857Y-114478628D02*
X110086905Y-114478628D01*
X111563095Y-113954819D02*
X111086905Y-113954819D01*
X111086905Y-113954819D02*
X111039286Y-114431009D01*
X111039286Y-114431009D02*
X111086905Y-114383390D01*
X111086905Y-114383390D02*
X111182143Y-114335771D01*
X111182143Y-114335771D02*
X111420238Y-114335771D01*
X111420238Y-114335771D02*
X111515476Y-114383390D01*
X111515476Y-114383390D02*
X111563095Y-114431009D01*
X111563095Y-114431009D02*
X111610714Y-114526247D01*
X111610714Y-114526247D02*
X111610714Y-114764342D01*
X111610714Y-114764342D02*
X111563095Y-114859580D01*
X111563095Y-114859580D02*
X111515476Y-114907200D01*
X111515476Y-114907200D02*
X111420238Y-114954819D01*
X111420238Y-114954819D02*
X111182143Y-114954819D01*
X111182143Y-114954819D02*
X111086905Y-114907200D01*
X111086905Y-114907200D02*
X111039286Y-114859580D01*
X110833333Y-123704819D02*
X110500000Y-123228628D01*
X110261905Y-123704819D02*
X110261905Y-122704819D01*
X110261905Y-122704819D02*
X110642857Y-122704819D01*
X110642857Y-122704819D02*
X110738095Y-122752438D01*
X110738095Y-122752438D02*
X110785714Y-122800057D01*
X110785714Y-122800057D02*
X110833333Y-122895295D01*
X110833333Y-122895295D02*
X110833333Y-123038152D01*
X110833333Y-123038152D02*
X110785714Y-123133390D01*
X110785714Y-123133390D02*
X110738095Y-123181009D01*
X110738095Y-123181009D02*
X110642857Y-123228628D01*
X110642857Y-123228628D02*
X110261905Y-123228628D01*
X111166667Y-122704819D02*
X111785714Y-122704819D01*
X111785714Y-122704819D02*
X111452381Y-123085771D01*
X111452381Y-123085771D02*
X111595238Y-123085771D01*
X111595238Y-123085771D02*
X111690476Y-123133390D01*
X111690476Y-123133390D02*
X111738095Y-123181009D01*
X111738095Y-123181009D02*
X111785714Y-123276247D01*
X111785714Y-123276247D02*
X111785714Y-123514342D01*
X111785714Y-123514342D02*
X111738095Y-123609580D01*
X111738095Y-123609580D02*
X111690476Y-123657200D01*
X111690476Y-123657200D02*
X111595238Y-123704819D01*
X111595238Y-123704819D02*
X111309524Y-123704819D01*
X111309524Y-123704819D02*
X111214286Y-123657200D01*
X111214286Y-123657200D02*
X111166667Y-123609580D01*
X116273809Y-116478628D02*
X116273809Y-116954819D01*
X115940476Y-115954819D02*
X116273809Y-116478628D01*
X116273809Y-116478628D02*
X116607142Y-115954819D01*
X117464285Y-116954819D02*
X116892857Y-116954819D01*
X117178571Y-116954819D02*
X117178571Y-115954819D01*
X117178571Y-115954819D02*
X117083333Y-116097676D01*
X117083333Y-116097676D02*
X116988095Y-116192914D01*
X116988095Y-116192914D02*
X116892857Y-116240533D01*
X64224819Y-140003333D02*
X64939104Y-140003333D01*
X64939104Y-140003333D02*
X65081961Y-140050952D01*
X65081961Y-140050952D02*
X65177200Y-140146190D01*
X65177200Y-140146190D02*
X65224819Y-140289047D01*
X65224819Y-140289047D02*
X65224819Y-140384285D01*
X64558152Y-139098571D02*
X65224819Y-139098571D01*
X64177200Y-139336666D02*
X64891485Y-139574761D01*
X64891485Y-139574761D02*
X64891485Y-138955714D01*
X148583333Y-55109580D02*
X148535714Y-55157200D01*
X148535714Y-55157200D02*
X148392857Y-55204819D01*
X148392857Y-55204819D02*
X148297619Y-55204819D01*
X148297619Y-55204819D02*
X148154762Y-55157200D01*
X148154762Y-55157200D02*
X148059524Y-55061961D01*
X148059524Y-55061961D02*
X148011905Y-54966723D01*
X148011905Y-54966723D02*
X147964286Y-54776247D01*
X147964286Y-54776247D02*
X147964286Y-54633390D01*
X147964286Y-54633390D02*
X148011905Y-54442914D01*
X148011905Y-54442914D02*
X148059524Y-54347676D01*
X148059524Y-54347676D02*
X148154762Y-54252438D01*
X148154762Y-54252438D02*
X148297619Y-54204819D01*
X148297619Y-54204819D02*
X148392857Y-54204819D01*
X148392857Y-54204819D02*
X148535714Y-54252438D01*
X148535714Y-54252438D02*
X148583333Y-54300057D01*
X149059524Y-55204819D02*
X149250000Y-55204819D01*
X149250000Y-55204819D02*
X149345238Y-55157200D01*
X149345238Y-55157200D02*
X149392857Y-55109580D01*
X149392857Y-55109580D02*
X149488095Y-54966723D01*
X149488095Y-54966723D02*
X149535714Y-54776247D01*
X149535714Y-54776247D02*
X149535714Y-54395295D01*
X149535714Y-54395295D02*
X149488095Y-54300057D01*
X149488095Y-54300057D02*
X149440476Y-54252438D01*
X149440476Y-54252438D02*
X149345238Y-54204819D01*
X149345238Y-54204819D02*
X149154762Y-54204819D01*
X149154762Y-54204819D02*
X149059524Y-54252438D01*
X149059524Y-54252438D02*
X149011905Y-54300057D01*
X149011905Y-54300057D02*
X148964286Y-54395295D01*
X148964286Y-54395295D02*
X148964286Y-54633390D01*
X148964286Y-54633390D02*
X149011905Y-54728628D01*
X149011905Y-54728628D02*
X149059524Y-54776247D01*
X149059524Y-54776247D02*
X149154762Y-54823866D01*
X149154762Y-54823866D02*
X149345238Y-54823866D01*
X149345238Y-54823866D02*
X149440476Y-54776247D01*
X149440476Y-54776247D02*
X149488095Y-54728628D01*
X149488095Y-54728628D02*
X149535714Y-54633390D01*
X78179580Y-86930357D02*
X78227200Y-86977976D01*
X78227200Y-86977976D02*
X78274819Y-87120833D01*
X78274819Y-87120833D02*
X78274819Y-87216071D01*
X78274819Y-87216071D02*
X78227200Y-87358928D01*
X78227200Y-87358928D02*
X78131961Y-87454166D01*
X78131961Y-87454166D02*
X78036723Y-87501785D01*
X78036723Y-87501785D02*
X77846247Y-87549404D01*
X77846247Y-87549404D02*
X77703390Y-87549404D01*
X77703390Y-87549404D02*
X77512914Y-87501785D01*
X77512914Y-87501785D02*
X77417676Y-87454166D01*
X77417676Y-87454166D02*
X77322438Y-87358928D01*
X77322438Y-87358928D02*
X77274819Y-87216071D01*
X77274819Y-87216071D02*
X77274819Y-87120833D01*
X77274819Y-87120833D02*
X77322438Y-86977976D01*
X77322438Y-86977976D02*
X77370057Y-86930357D01*
X78274819Y-85977976D02*
X78274819Y-86549404D01*
X78274819Y-86263690D02*
X77274819Y-86263690D01*
X77274819Y-86263690D02*
X77417676Y-86358928D01*
X77417676Y-86358928D02*
X77512914Y-86454166D01*
X77512914Y-86454166D02*
X77560533Y-86549404D01*
X77370057Y-85597023D02*
X77322438Y-85549404D01*
X77322438Y-85549404D02*
X77274819Y-85454166D01*
X77274819Y-85454166D02*
X77274819Y-85216071D01*
X77274819Y-85216071D02*
X77322438Y-85120833D01*
X77322438Y-85120833D02*
X77370057Y-85073214D01*
X77370057Y-85073214D02*
X77465295Y-85025595D01*
X77465295Y-85025595D02*
X77560533Y-85025595D01*
X77560533Y-85025595D02*
X77703390Y-85073214D01*
X77703390Y-85073214D02*
X78274819Y-85644642D01*
X78274819Y-85644642D02*
X78274819Y-85025595D01*
X109109580Y-119416666D02*
X109157200Y-119464285D01*
X109157200Y-119464285D02*
X109204819Y-119607142D01*
X109204819Y-119607142D02*
X109204819Y-119702380D01*
X109204819Y-119702380D02*
X109157200Y-119845237D01*
X109157200Y-119845237D02*
X109061961Y-119940475D01*
X109061961Y-119940475D02*
X108966723Y-119988094D01*
X108966723Y-119988094D02*
X108776247Y-120035713D01*
X108776247Y-120035713D02*
X108633390Y-120035713D01*
X108633390Y-120035713D02*
X108442914Y-119988094D01*
X108442914Y-119988094D02*
X108347676Y-119940475D01*
X108347676Y-119940475D02*
X108252438Y-119845237D01*
X108252438Y-119845237D02*
X108204819Y-119702380D01*
X108204819Y-119702380D02*
X108204819Y-119607142D01*
X108204819Y-119607142D02*
X108252438Y-119464285D01*
X108252438Y-119464285D02*
X108300057Y-119416666D01*
X108204819Y-119083332D02*
X108204819Y-118416666D01*
X108204819Y-118416666D02*
X109204819Y-118845237D01*
X148710476Y-135034819D02*
X148710476Y-135749104D01*
X148710476Y-135749104D02*
X148662857Y-135891961D01*
X148662857Y-135891961D02*
X148567619Y-135987200D01*
X148567619Y-135987200D02*
X148424762Y-136034819D01*
X148424762Y-136034819D02*
X148329524Y-136034819D01*
X149710476Y-136034819D02*
X149139048Y-136034819D01*
X149424762Y-136034819D02*
X149424762Y-135034819D01*
X149424762Y-135034819D02*
X149329524Y-135177676D01*
X149329524Y-135177676D02*
X149234286Y-135272914D01*
X149234286Y-135272914D02*
X149139048Y-135320533D01*
X150043810Y-135034819D02*
X150662857Y-135034819D01*
X150662857Y-135034819D02*
X150329524Y-135415771D01*
X150329524Y-135415771D02*
X150472381Y-135415771D01*
X150472381Y-135415771D02*
X150567619Y-135463390D01*
X150567619Y-135463390D02*
X150615238Y-135511009D01*
X150615238Y-135511009D02*
X150662857Y-135606247D01*
X150662857Y-135606247D02*
X150662857Y-135844342D01*
X150662857Y-135844342D02*
X150615238Y-135939580D01*
X150615238Y-135939580D02*
X150567619Y-135987200D01*
X150567619Y-135987200D02*
X150472381Y-136034819D01*
X150472381Y-136034819D02*
X150186667Y-136034819D01*
X150186667Y-136034819D02*
X150091429Y-135987200D01*
X150091429Y-135987200D02*
X150043810Y-135939580D01*
X109939976Y-140003333D02*
X110654261Y-140003333D01*
X110654261Y-140003333D02*
X110797118Y-140050952D01*
X110797118Y-140050952D02*
X110892357Y-140146190D01*
X110892357Y-140146190D02*
X110939976Y-140289047D01*
X110939976Y-140289047D02*
X110939976Y-140384285D01*
X109939976Y-139098571D02*
X109939976Y-139289047D01*
X109939976Y-139289047D02*
X109987595Y-139384285D01*
X109987595Y-139384285D02*
X110035214Y-139431904D01*
X110035214Y-139431904D02*
X110178071Y-139527142D01*
X110178071Y-139527142D02*
X110368547Y-139574761D01*
X110368547Y-139574761D02*
X110749499Y-139574761D01*
X110749499Y-139574761D02*
X110844737Y-139527142D01*
X110844737Y-139527142D02*
X110892357Y-139479523D01*
X110892357Y-139479523D02*
X110939976Y-139384285D01*
X110939976Y-139384285D02*
X110939976Y-139193809D01*
X110939976Y-139193809D02*
X110892357Y-139098571D01*
X110892357Y-139098571D02*
X110844737Y-139050952D01*
X110844737Y-139050952D02*
X110749499Y-139003333D01*
X110749499Y-139003333D02*
X110511404Y-139003333D01*
X110511404Y-139003333D02*
X110416166Y-139050952D01*
X110416166Y-139050952D02*
X110368547Y-139098571D01*
X110368547Y-139098571D02*
X110320928Y-139193809D01*
X110320928Y-139193809D02*
X110320928Y-139384285D01*
X110320928Y-139384285D02*
X110368547Y-139479523D01*
X110368547Y-139479523D02*
X110416166Y-139527142D01*
X110416166Y-139527142D02*
X110511404Y-139574761D01*
X109773809Y-132228628D02*
X109773809Y-132704819D01*
X109440476Y-131704819D02*
X109773809Y-132228628D01*
X109773809Y-132228628D02*
X110107142Y-131704819D01*
X110392857Y-131800057D02*
X110440476Y-131752438D01*
X110440476Y-131752438D02*
X110535714Y-131704819D01*
X110535714Y-131704819D02*
X110773809Y-131704819D01*
X110773809Y-131704819D02*
X110869047Y-131752438D01*
X110869047Y-131752438D02*
X110916666Y-131800057D01*
X110916666Y-131800057D02*
X110964285Y-131895295D01*
X110964285Y-131895295D02*
X110964285Y-131990533D01*
X110964285Y-131990533D02*
X110916666Y-132133390D01*
X110916666Y-132133390D02*
X110345238Y-132704819D01*
X110345238Y-132704819D02*
X110964285Y-132704819D01*
X106204819Y-128166666D02*
X105728628Y-128499999D01*
X106204819Y-128738094D02*
X105204819Y-128738094D01*
X105204819Y-128738094D02*
X105204819Y-128357142D01*
X105204819Y-128357142D02*
X105252438Y-128261904D01*
X105252438Y-128261904D02*
X105300057Y-128214285D01*
X105300057Y-128214285D02*
X105395295Y-128166666D01*
X105395295Y-128166666D02*
X105538152Y-128166666D01*
X105538152Y-128166666D02*
X105633390Y-128214285D01*
X105633390Y-128214285D02*
X105681009Y-128261904D01*
X105681009Y-128261904D02*
X105728628Y-128357142D01*
X105728628Y-128357142D02*
X105728628Y-128738094D01*
X105538152Y-127309523D02*
X106204819Y-127309523D01*
X105157200Y-127547618D02*
X105871485Y-127785713D01*
X105871485Y-127785713D02*
X105871485Y-127166666D01*
X58607142Y-54954819D02*
X58273809Y-54478628D01*
X58035714Y-54954819D02*
X58035714Y-53954819D01*
X58035714Y-53954819D02*
X58416666Y-53954819D01*
X58416666Y-53954819D02*
X58511904Y-54002438D01*
X58511904Y-54002438D02*
X58559523Y-54050057D01*
X58559523Y-54050057D02*
X58607142Y-54145295D01*
X58607142Y-54145295D02*
X58607142Y-54288152D01*
X58607142Y-54288152D02*
X58559523Y-54383390D01*
X58559523Y-54383390D02*
X58511904Y-54431009D01*
X58511904Y-54431009D02*
X58416666Y-54478628D01*
X58416666Y-54478628D02*
X58035714Y-54478628D01*
X59559523Y-54954819D02*
X58988095Y-54954819D01*
X59273809Y-54954819D02*
X59273809Y-53954819D01*
X59273809Y-53954819D02*
X59178571Y-54097676D01*
X59178571Y-54097676D02*
X59083333Y-54192914D01*
X59083333Y-54192914D02*
X58988095Y-54240533D01*
X60178571Y-53954819D02*
X60273809Y-53954819D01*
X60273809Y-53954819D02*
X60369047Y-54002438D01*
X60369047Y-54002438D02*
X60416666Y-54050057D01*
X60416666Y-54050057D02*
X60464285Y-54145295D01*
X60464285Y-54145295D02*
X60511904Y-54335771D01*
X60511904Y-54335771D02*
X60511904Y-54573866D01*
X60511904Y-54573866D02*
X60464285Y-54764342D01*
X60464285Y-54764342D02*
X60416666Y-54859580D01*
X60416666Y-54859580D02*
X60369047Y-54907200D01*
X60369047Y-54907200D02*
X60273809Y-54954819D01*
X60273809Y-54954819D02*
X60178571Y-54954819D01*
X60178571Y-54954819D02*
X60083333Y-54907200D01*
X60083333Y-54907200D02*
X60035714Y-54859580D01*
X60035714Y-54859580D02*
X59988095Y-54764342D01*
X59988095Y-54764342D02*
X59940476Y-54573866D01*
X59940476Y-54573866D02*
X59940476Y-54335771D01*
X59940476Y-54335771D02*
X59988095Y-54145295D01*
X59988095Y-54145295D02*
X60035714Y-54050057D01*
X60035714Y-54050057D02*
X60083333Y-54002438D01*
X60083333Y-54002438D02*
X60178571Y-53954819D01*
X68894819Y-109910476D02*
X68418628Y-110243809D01*
X68894819Y-110481904D02*
X67894819Y-110481904D01*
X67894819Y-110481904D02*
X67894819Y-110100952D01*
X67894819Y-110100952D02*
X67942438Y-110005714D01*
X67942438Y-110005714D02*
X67990057Y-109958095D01*
X67990057Y-109958095D02*
X68085295Y-109910476D01*
X68085295Y-109910476D02*
X68228152Y-109910476D01*
X68228152Y-109910476D02*
X68323390Y-109958095D01*
X68323390Y-109958095D02*
X68371009Y-110005714D01*
X68371009Y-110005714D02*
X68418628Y-110100952D01*
X68418628Y-110100952D02*
X68418628Y-110481904D01*
X68894819Y-109481904D02*
X67894819Y-109481904D01*
X67894819Y-109481904D02*
X68894819Y-108910476D01*
X68894819Y-108910476D02*
X67894819Y-108910476D01*
X68894819Y-107910476D02*
X68894819Y-108481904D01*
X68894819Y-108196190D02*
X67894819Y-108196190D01*
X67894819Y-108196190D02*
X68037676Y-108291428D01*
X68037676Y-108291428D02*
X68132914Y-108386666D01*
X68132914Y-108386666D02*
X68180533Y-108481904D01*
X91083333Y-103929580D02*
X91035714Y-103977200D01*
X91035714Y-103977200D02*
X90892857Y-104024819D01*
X90892857Y-104024819D02*
X90797619Y-104024819D01*
X90797619Y-104024819D02*
X90654762Y-103977200D01*
X90654762Y-103977200D02*
X90559524Y-103881961D01*
X90559524Y-103881961D02*
X90511905Y-103786723D01*
X90511905Y-103786723D02*
X90464286Y-103596247D01*
X90464286Y-103596247D02*
X90464286Y-103453390D01*
X90464286Y-103453390D02*
X90511905Y-103262914D01*
X90511905Y-103262914D02*
X90559524Y-103167676D01*
X90559524Y-103167676D02*
X90654762Y-103072438D01*
X90654762Y-103072438D02*
X90797619Y-103024819D01*
X90797619Y-103024819D02*
X90892857Y-103024819D01*
X90892857Y-103024819D02*
X91035714Y-103072438D01*
X91035714Y-103072438D02*
X91083333Y-103120057D01*
X91940476Y-103024819D02*
X91750000Y-103024819D01*
X91750000Y-103024819D02*
X91654762Y-103072438D01*
X91654762Y-103072438D02*
X91607143Y-103120057D01*
X91607143Y-103120057D02*
X91511905Y-103262914D01*
X91511905Y-103262914D02*
X91464286Y-103453390D01*
X91464286Y-103453390D02*
X91464286Y-103834342D01*
X91464286Y-103834342D02*
X91511905Y-103929580D01*
X91511905Y-103929580D02*
X91559524Y-103977200D01*
X91559524Y-103977200D02*
X91654762Y-104024819D01*
X91654762Y-104024819D02*
X91845238Y-104024819D01*
X91845238Y-104024819D02*
X91940476Y-103977200D01*
X91940476Y-103977200D02*
X91988095Y-103929580D01*
X91988095Y-103929580D02*
X92035714Y-103834342D01*
X92035714Y-103834342D02*
X92035714Y-103596247D01*
X92035714Y-103596247D02*
X91988095Y-103501009D01*
X91988095Y-103501009D02*
X91940476Y-103453390D01*
X91940476Y-103453390D02*
X91845238Y-103405771D01*
X91845238Y-103405771D02*
X91654762Y-103405771D01*
X91654762Y-103405771D02*
X91559524Y-103453390D01*
X91559524Y-103453390D02*
X91511905Y-103501009D01*
X91511905Y-103501009D02*
X91464286Y-103596247D01*
X116109580Y-124666666D02*
X116157200Y-124714285D01*
X116157200Y-124714285D02*
X116204819Y-124857142D01*
X116204819Y-124857142D02*
X116204819Y-124952380D01*
X116204819Y-124952380D02*
X116157200Y-125095237D01*
X116157200Y-125095237D02*
X116061961Y-125190475D01*
X116061961Y-125190475D02*
X115966723Y-125238094D01*
X115966723Y-125238094D02*
X115776247Y-125285713D01*
X115776247Y-125285713D02*
X115633390Y-125285713D01*
X115633390Y-125285713D02*
X115442914Y-125238094D01*
X115442914Y-125238094D02*
X115347676Y-125190475D01*
X115347676Y-125190475D02*
X115252438Y-125095237D01*
X115252438Y-125095237D02*
X115204819Y-124952380D01*
X115204819Y-124952380D02*
X115204819Y-124857142D01*
X115204819Y-124857142D02*
X115252438Y-124714285D01*
X115252438Y-124714285D02*
X115300057Y-124666666D01*
X116204819Y-123714285D02*
X116204819Y-124285713D01*
X116204819Y-123999999D02*
X115204819Y-123999999D01*
X115204819Y-123999999D02*
X115347676Y-124095237D01*
X115347676Y-124095237D02*
X115442914Y-124190475D01*
X115442914Y-124190475D02*
X115490533Y-124285713D01*
X135523095Y-141704819D02*
X135523095Y-142514342D01*
X135523095Y-142514342D02*
X135570714Y-142609580D01*
X135570714Y-142609580D02*
X135618333Y-142657200D01*
X135618333Y-142657200D02*
X135713571Y-142704819D01*
X135713571Y-142704819D02*
X135904047Y-142704819D01*
X135904047Y-142704819D02*
X135999285Y-142657200D01*
X135999285Y-142657200D02*
X136046904Y-142609580D01*
X136046904Y-142609580D02*
X136094523Y-142514342D01*
X136094523Y-142514342D02*
X136094523Y-141704819D01*
X136999285Y-141704819D02*
X136808809Y-141704819D01*
X136808809Y-141704819D02*
X136713571Y-141752438D01*
X136713571Y-141752438D02*
X136665952Y-141800057D01*
X136665952Y-141800057D02*
X136570714Y-141942914D01*
X136570714Y-141942914D02*
X136523095Y-142133390D01*
X136523095Y-142133390D02*
X136523095Y-142514342D01*
X136523095Y-142514342D02*
X136570714Y-142609580D01*
X136570714Y-142609580D02*
X136618333Y-142657200D01*
X136618333Y-142657200D02*
X136713571Y-142704819D01*
X136713571Y-142704819D02*
X136904047Y-142704819D01*
X136904047Y-142704819D02*
X136999285Y-142657200D01*
X136999285Y-142657200D02*
X137046904Y-142609580D01*
X137046904Y-142609580D02*
X137094523Y-142514342D01*
X137094523Y-142514342D02*
X137094523Y-142276247D01*
X137094523Y-142276247D02*
X137046904Y-142181009D01*
X137046904Y-142181009D02*
X136999285Y-142133390D01*
X136999285Y-142133390D02*
X136904047Y-142085771D01*
X136904047Y-142085771D02*
X136713571Y-142085771D01*
X136713571Y-142085771D02*
X136618333Y-142133390D01*
X136618333Y-142133390D02*
X136570714Y-142181009D01*
X136570714Y-142181009D02*
X136523095Y-142276247D01*
X151107142Y-70204819D02*
X150773809Y-69728628D01*
X150535714Y-70204819D02*
X150535714Y-69204819D01*
X150535714Y-69204819D02*
X150916666Y-69204819D01*
X150916666Y-69204819D02*
X151011904Y-69252438D01*
X151011904Y-69252438D02*
X151059523Y-69300057D01*
X151059523Y-69300057D02*
X151107142Y-69395295D01*
X151107142Y-69395295D02*
X151107142Y-69538152D01*
X151107142Y-69538152D02*
X151059523Y-69633390D01*
X151059523Y-69633390D02*
X151011904Y-69681009D01*
X151011904Y-69681009D02*
X150916666Y-69728628D01*
X150916666Y-69728628D02*
X150535714Y-69728628D01*
X152059523Y-70204819D02*
X151488095Y-70204819D01*
X151773809Y-70204819D02*
X151773809Y-69204819D01*
X151773809Y-69204819D02*
X151678571Y-69347676D01*
X151678571Y-69347676D02*
X151583333Y-69442914D01*
X151583333Y-69442914D02*
X151488095Y-69490533D01*
X153011904Y-70204819D02*
X152440476Y-70204819D01*
X152726190Y-70204819D02*
X152726190Y-69204819D01*
X152726190Y-69204819D02*
X152630952Y-69347676D01*
X152630952Y-69347676D02*
X152535714Y-69442914D01*
X152535714Y-69442914D02*
X152440476Y-69490533D01*
X133857142Y-87359580D02*
X133809523Y-87407200D01*
X133809523Y-87407200D02*
X133666666Y-87454819D01*
X133666666Y-87454819D02*
X133571428Y-87454819D01*
X133571428Y-87454819D02*
X133428571Y-87407200D01*
X133428571Y-87407200D02*
X133333333Y-87311961D01*
X133333333Y-87311961D02*
X133285714Y-87216723D01*
X133285714Y-87216723D02*
X133238095Y-87026247D01*
X133238095Y-87026247D02*
X133238095Y-86883390D01*
X133238095Y-86883390D02*
X133285714Y-86692914D01*
X133285714Y-86692914D02*
X133333333Y-86597676D01*
X133333333Y-86597676D02*
X133428571Y-86502438D01*
X133428571Y-86502438D02*
X133571428Y-86454819D01*
X133571428Y-86454819D02*
X133666666Y-86454819D01*
X133666666Y-86454819D02*
X133809523Y-86502438D01*
X133809523Y-86502438D02*
X133857142Y-86550057D01*
X134809523Y-87454819D02*
X134238095Y-87454819D01*
X134523809Y-87454819D02*
X134523809Y-86454819D01*
X134523809Y-86454819D02*
X134428571Y-86597676D01*
X134428571Y-86597676D02*
X134333333Y-86692914D01*
X134333333Y-86692914D02*
X134238095Y-86740533D01*
X135666666Y-86788152D02*
X135666666Y-87454819D01*
X135428571Y-86407200D02*
X135190476Y-87121485D01*
X135190476Y-87121485D02*
X135809523Y-87121485D01*
X140954819Y-77309523D02*
X141669104Y-77309523D01*
X141669104Y-77309523D02*
X141811961Y-77357142D01*
X141811961Y-77357142D02*
X141907200Y-77452380D01*
X141907200Y-77452380D02*
X141954819Y-77595237D01*
X141954819Y-77595237D02*
X141954819Y-77690475D01*
X141954819Y-76309523D02*
X141954819Y-76880951D01*
X141954819Y-76595237D02*
X140954819Y-76595237D01*
X140954819Y-76595237D02*
X141097676Y-76690475D01*
X141097676Y-76690475D02*
X141192914Y-76785713D01*
X141192914Y-76785713D02*
X141240533Y-76880951D01*
X141954819Y-75357142D02*
X141954819Y-75928570D01*
X141954819Y-75642856D02*
X140954819Y-75642856D01*
X140954819Y-75642856D02*
X141097676Y-75738094D01*
X141097676Y-75738094D02*
X141192914Y-75833332D01*
X141192914Y-75833332D02*
X141240533Y-75928570D01*
X87030761Y-140003333D02*
X87745046Y-140003333D01*
X87745046Y-140003333D02*
X87887903Y-140050952D01*
X87887903Y-140050952D02*
X87983142Y-140146190D01*
X87983142Y-140146190D02*
X88030761Y-140289047D01*
X88030761Y-140289047D02*
X88030761Y-140384285D01*
X87030761Y-139050952D02*
X87030761Y-139527142D01*
X87030761Y-139527142D02*
X87506951Y-139574761D01*
X87506951Y-139574761D02*
X87459332Y-139527142D01*
X87459332Y-139527142D02*
X87411713Y-139431904D01*
X87411713Y-139431904D02*
X87411713Y-139193809D01*
X87411713Y-139193809D02*
X87459332Y-139098571D01*
X87459332Y-139098571D02*
X87506951Y-139050952D01*
X87506951Y-139050952D02*
X87602189Y-139003333D01*
X87602189Y-139003333D02*
X87840284Y-139003333D01*
X87840284Y-139003333D02*
X87935522Y-139050952D01*
X87935522Y-139050952D02*
X87983142Y-139098571D01*
X87983142Y-139098571D02*
X88030761Y-139193809D01*
X88030761Y-139193809D02*
X88030761Y-139431904D01*
X88030761Y-139431904D02*
X87983142Y-139527142D01*
X87983142Y-139527142D02*
X87935522Y-139574761D01*
X147357142Y-62859580D02*
X147309523Y-62907200D01*
X147309523Y-62907200D02*
X147166666Y-62954819D01*
X147166666Y-62954819D02*
X147071428Y-62954819D01*
X147071428Y-62954819D02*
X146928571Y-62907200D01*
X146928571Y-62907200D02*
X146833333Y-62811961D01*
X146833333Y-62811961D02*
X146785714Y-62716723D01*
X146785714Y-62716723D02*
X146738095Y-62526247D01*
X146738095Y-62526247D02*
X146738095Y-62383390D01*
X146738095Y-62383390D02*
X146785714Y-62192914D01*
X146785714Y-62192914D02*
X146833333Y-62097676D01*
X146833333Y-62097676D02*
X146928571Y-62002438D01*
X146928571Y-62002438D02*
X147071428Y-61954819D01*
X147071428Y-61954819D02*
X147166666Y-61954819D01*
X147166666Y-61954819D02*
X147309523Y-62002438D01*
X147309523Y-62002438D02*
X147357142Y-62050057D01*
X148309523Y-62954819D02*
X147738095Y-62954819D01*
X148023809Y-62954819D02*
X148023809Y-61954819D01*
X148023809Y-61954819D02*
X147928571Y-62097676D01*
X147928571Y-62097676D02*
X147833333Y-62192914D01*
X147833333Y-62192914D02*
X147738095Y-62240533D01*
X148928571Y-61954819D02*
X149023809Y-61954819D01*
X149023809Y-61954819D02*
X149119047Y-62002438D01*
X149119047Y-62002438D02*
X149166666Y-62050057D01*
X149166666Y-62050057D02*
X149214285Y-62145295D01*
X149214285Y-62145295D02*
X149261904Y-62335771D01*
X149261904Y-62335771D02*
X149261904Y-62573866D01*
X149261904Y-62573866D02*
X149214285Y-62764342D01*
X149214285Y-62764342D02*
X149166666Y-62859580D01*
X149166666Y-62859580D02*
X149119047Y-62907200D01*
X149119047Y-62907200D02*
X149023809Y-62954819D01*
X149023809Y-62954819D02*
X148928571Y-62954819D01*
X148928571Y-62954819D02*
X148833333Y-62907200D01*
X148833333Y-62907200D02*
X148785714Y-62859580D01*
X148785714Y-62859580D02*
X148738095Y-62764342D01*
X148738095Y-62764342D02*
X148690476Y-62573866D01*
X148690476Y-62573866D02*
X148690476Y-62335771D01*
X148690476Y-62335771D02*
X148738095Y-62145295D01*
X148738095Y-62145295D02*
X148785714Y-62050057D01*
X148785714Y-62050057D02*
X148833333Y-62002438D01*
X148833333Y-62002438D02*
X148928571Y-61954819D01*
X79333333Y-107454819D02*
X79000000Y-106978628D01*
X78761905Y-107454819D02*
X78761905Y-106454819D01*
X78761905Y-106454819D02*
X79142857Y-106454819D01*
X79142857Y-106454819D02*
X79238095Y-106502438D01*
X79238095Y-106502438D02*
X79285714Y-106550057D01*
X79285714Y-106550057D02*
X79333333Y-106645295D01*
X79333333Y-106645295D02*
X79333333Y-106788152D01*
X79333333Y-106788152D02*
X79285714Y-106883390D01*
X79285714Y-106883390D02*
X79238095Y-106931009D01*
X79238095Y-106931009D02*
X79142857Y-106978628D01*
X79142857Y-106978628D02*
X78761905Y-106978628D01*
X79666667Y-106454819D02*
X80333333Y-106454819D01*
X80333333Y-106454819D02*
X79904762Y-107454819D01*
X79386319Y-94761904D02*
X80195842Y-94761904D01*
X80195842Y-94761904D02*
X80291080Y-94714285D01*
X80291080Y-94714285D02*
X80338700Y-94666666D01*
X80338700Y-94666666D02*
X80386319Y-94571428D01*
X80386319Y-94571428D02*
X80386319Y-94380952D01*
X80386319Y-94380952D02*
X80338700Y-94285714D01*
X80338700Y-94285714D02*
X80291080Y-94238095D01*
X80291080Y-94238095D02*
X80195842Y-94190476D01*
X80195842Y-94190476D02*
X79386319Y-94190476D01*
X79386319Y-93809523D02*
X79386319Y-93190476D01*
X79386319Y-93190476D02*
X79767271Y-93523809D01*
X79767271Y-93523809D02*
X79767271Y-93380952D01*
X79767271Y-93380952D02*
X79814890Y-93285714D01*
X79814890Y-93285714D02*
X79862509Y-93238095D01*
X79862509Y-93238095D02*
X79957747Y-93190476D01*
X79957747Y-93190476D02*
X80195842Y-93190476D01*
X80195842Y-93190476D02*
X80291080Y-93238095D01*
X80291080Y-93238095D02*
X80338700Y-93285714D01*
X80338700Y-93285714D02*
X80386319Y-93380952D01*
X80386319Y-93380952D02*
X80386319Y-93666666D01*
X80386319Y-93666666D02*
X80338700Y-93761904D01*
X80338700Y-93761904D02*
X80291080Y-93809523D01*
X115674819Y-103786904D02*
X116484342Y-103786904D01*
X116484342Y-103786904D02*
X116579580Y-103739285D01*
X116579580Y-103739285D02*
X116627200Y-103691666D01*
X116627200Y-103691666D02*
X116674819Y-103596428D01*
X116674819Y-103596428D02*
X116674819Y-103405952D01*
X116674819Y-103405952D02*
X116627200Y-103310714D01*
X116627200Y-103310714D02*
X116579580Y-103263095D01*
X116579580Y-103263095D02*
X116484342Y-103215476D01*
X116484342Y-103215476D02*
X115674819Y-103215476D01*
X115674819Y-102263095D02*
X115674819Y-102739285D01*
X115674819Y-102739285D02*
X116151009Y-102786904D01*
X116151009Y-102786904D02*
X116103390Y-102739285D01*
X116103390Y-102739285D02*
X116055771Y-102644047D01*
X116055771Y-102644047D02*
X116055771Y-102405952D01*
X116055771Y-102405952D02*
X116103390Y-102310714D01*
X116103390Y-102310714D02*
X116151009Y-102263095D01*
X116151009Y-102263095D02*
X116246247Y-102215476D01*
X116246247Y-102215476D02*
X116484342Y-102215476D01*
X116484342Y-102215476D02*
X116579580Y-102263095D01*
X116579580Y-102263095D02*
X116627200Y-102310714D01*
X116627200Y-102310714D02*
X116674819Y-102405952D01*
X116674819Y-102405952D02*
X116674819Y-102644047D01*
X116674819Y-102644047D02*
X116627200Y-102739285D01*
X116627200Y-102739285D02*
X116579580Y-102786904D01*
X141099819Y-87559523D02*
X141814104Y-87559523D01*
X141814104Y-87559523D02*
X141956961Y-87607142D01*
X141956961Y-87607142D02*
X142052200Y-87702380D01*
X142052200Y-87702380D02*
X142099819Y-87845237D01*
X142099819Y-87845237D02*
X142099819Y-87940475D01*
X142099819Y-86559523D02*
X142099819Y-87130951D01*
X142099819Y-86845237D02*
X141099819Y-86845237D01*
X141099819Y-86845237D02*
X141242676Y-86940475D01*
X141242676Y-86940475D02*
X141337914Y-87035713D01*
X141337914Y-87035713D02*
X141385533Y-87130951D01*
X141195057Y-86178570D02*
X141147438Y-86130951D01*
X141147438Y-86130951D02*
X141099819Y-86035713D01*
X141099819Y-86035713D02*
X141099819Y-85797618D01*
X141099819Y-85797618D02*
X141147438Y-85702380D01*
X141147438Y-85702380D02*
X141195057Y-85654761D01*
X141195057Y-85654761D02*
X141290295Y-85607142D01*
X141290295Y-85607142D02*
X141385533Y-85607142D01*
X141385533Y-85607142D02*
X141528390Y-85654761D01*
X141528390Y-85654761D02*
X142099819Y-86226189D01*
X142099819Y-86226189D02*
X142099819Y-85607142D01*
X123609580Y-132129166D02*
X123657200Y-132176785D01*
X123657200Y-132176785D02*
X123704819Y-132319642D01*
X123704819Y-132319642D02*
X123704819Y-132414880D01*
X123704819Y-132414880D02*
X123657200Y-132557737D01*
X123657200Y-132557737D02*
X123561961Y-132652975D01*
X123561961Y-132652975D02*
X123466723Y-132700594D01*
X123466723Y-132700594D02*
X123276247Y-132748213D01*
X123276247Y-132748213D02*
X123133390Y-132748213D01*
X123133390Y-132748213D02*
X122942914Y-132700594D01*
X122942914Y-132700594D02*
X122847676Y-132652975D01*
X122847676Y-132652975D02*
X122752438Y-132557737D01*
X122752438Y-132557737D02*
X122704819Y-132414880D01*
X122704819Y-132414880D02*
X122704819Y-132319642D01*
X122704819Y-132319642D02*
X122752438Y-132176785D01*
X122752438Y-132176785D02*
X122800057Y-132129166D01*
X122800057Y-131748213D02*
X122752438Y-131700594D01*
X122752438Y-131700594D02*
X122704819Y-131605356D01*
X122704819Y-131605356D02*
X122704819Y-131367261D01*
X122704819Y-131367261D02*
X122752438Y-131272023D01*
X122752438Y-131272023D02*
X122800057Y-131224404D01*
X122800057Y-131224404D02*
X122895295Y-131176785D01*
X122895295Y-131176785D02*
X122990533Y-131176785D01*
X122990533Y-131176785D02*
X123133390Y-131224404D01*
X123133390Y-131224404D02*
X123704819Y-131795832D01*
X123704819Y-131795832D02*
X123704819Y-131176785D01*
X142601905Y-83954819D02*
X142601905Y-82954819D01*
X142601905Y-82954819D02*
X142840000Y-82954819D01*
X142840000Y-82954819D02*
X142982857Y-83002438D01*
X142982857Y-83002438D02*
X143078095Y-83097676D01*
X143078095Y-83097676D02*
X143125714Y-83192914D01*
X143125714Y-83192914D02*
X143173333Y-83383390D01*
X143173333Y-83383390D02*
X143173333Y-83526247D01*
X143173333Y-83526247D02*
X143125714Y-83716723D01*
X143125714Y-83716723D02*
X143078095Y-83811961D01*
X143078095Y-83811961D02*
X142982857Y-83907200D01*
X142982857Y-83907200D02*
X142840000Y-83954819D01*
X142840000Y-83954819D02*
X142601905Y-83954819D01*
X144030476Y-82954819D02*
X143840000Y-82954819D01*
X143840000Y-82954819D02*
X143744762Y-83002438D01*
X143744762Y-83002438D02*
X143697143Y-83050057D01*
X143697143Y-83050057D02*
X143601905Y-83192914D01*
X143601905Y-83192914D02*
X143554286Y-83383390D01*
X143554286Y-83383390D02*
X143554286Y-83764342D01*
X143554286Y-83764342D02*
X143601905Y-83859580D01*
X143601905Y-83859580D02*
X143649524Y-83907200D01*
X143649524Y-83907200D02*
X143744762Y-83954819D01*
X143744762Y-83954819D02*
X143935238Y-83954819D01*
X143935238Y-83954819D02*
X144030476Y-83907200D01*
X144030476Y-83907200D02*
X144078095Y-83859580D01*
X144078095Y-83859580D02*
X144125714Y-83764342D01*
X144125714Y-83764342D02*
X144125714Y-83526247D01*
X144125714Y-83526247D02*
X144078095Y-83431009D01*
X144078095Y-83431009D02*
X144030476Y-83383390D01*
X144030476Y-83383390D02*
X143935238Y-83335771D01*
X143935238Y-83335771D02*
X143744762Y-83335771D01*
X143744762Y-83335771D02*
X143649524Y-83383390D01*
X143649524Y-83383390D02*
X143601905Y-83431009D01*
X143601905Y-83431009D02*
X143554286Y-83526247D01*
X139078095Y-83954819D02*
X139078095Y-82954819D01*
X139649523Y-83954819D02*
X139220952Y-83383390D01*
X139649523Y-82954819D02*
X139078095Y-83526247D01*
D11*
%TO.C,R1*%
X60227064Y-79265000D02*
X59772936Y-79265000D01*
X60227064Y-80735000D02*
X59772936Y-80735000D01*
%TO.C,C13*%
X119488748Y-97265000D02*
X120011252Y-97265000D01*
X119488748Y-98735000D02*
X120011252Y-98735000D01*
%TO.C,J9*%
X56620000Y-75880000D02*
X56620000Y-74500000D01*
X58000000Y-75880000D02*
X56620000Y-75880000D01*
X59270000Y-73120000D02*
X64460000Y-73120000D01*
X59270000Y-75880000D02*
X59270000Y-73120000D01*
X59270000Y-75880000D02*
X64460000Y-75880000D01*
X64460000Y-75880000D02*
X64460000Y-73120000D01*
%TO.C,D2*%
X76290000Y-108890000D02*
X76290000Y-111750000D01*
X78210000Y-108890000D02*
X76290000Y-108890000D01*
X78210000Y-111750000D02*
X78210000Y-108890000D01*
%TO.C,D5*%
X147525000Y-73210000D02*
X150385000Y-73210000D01*
X150385000Y-71290000D02*
X147525000Y-71290000D01*
X150385000Y-73210000D02*
X150385000Y-71290000D01*
%TO.C,J1*%
X65660000Y-48120000D02*
X65660000Y-53420000D01*
X126730000Y-48120000D02*
X65660000Y-48120000D01*
X126730000Y-48120000D02*
X126730000Y-50770000D01*
X126730000Y-50770000D02*
X129380000Y-50770000D01*
X128000000Y-48120000D02*
X129380000Y-48120000D01*
X129380000Y-48120000D02*
X129380000Y-49500000D01*
X129380000Y-50770000D02*
X129380000Y-53420000D01*
X129380000Y-53420000D02*
X65660000Y-53420000D01*
%TO.C,R6*%
X125515000Y-93977064D02*
X125515000Y-93522936D01*
X126985000Y-93977064D02*
X126985000Y-93522936D01*
%TO.C,C11*%
X76515000Y-69988748D02*
X76515000Y-70511252D01*
X77985000Y-69988748D02*
X77985000Y-70511252D01*
%TO.C,U4*%
X137050000Y-65255000D02*
X137320000Y-65255000D01*
X137050000Y-71675000D02*
X137050000Y-65255000D01*
X143950000Y-65255000D02*
X143680000Y-65255000D01*
X143950000Y-71675000D02*
X143950000Y-65255000D01*
X144110000Y-63865000D02*
X143640000Y-63525000D01*
X144110000Y-63185000D01*
X144110000Y-63865000D01*
G36*
X144110000Y-63865000D02*
G01*
X143640000Y-63525000D01*
X144110000Y-63185000D01*
X144110000Y-63865000D01*
G37*
%TO.C,D1*%
X125290000Y-87975000D02*
X125290000Y-90835000D01*
X125290000Y-90835000D02*
X127210000Y-90835000D01*
X127210000Y-90835000D02*
X127210000Y-87975000D01*
%TO.C,J14*%
X146870000Y-108920000D02*
X146870000Y-90920000D01*
X149520000Y-106270000D02*
X149520000Y-108920000D01*
X149520000Y-108920000D02*
X146870000Y-108920000D01*
X152170000Y-90920000D02*
X146870000Y-90920000D01*
X152170000Y-106270000D02*
X149520000Y-106270000D01*
X152170000Y-106270000D02*
X152170000Y-90920000D01*
X152170000Y-107540000D02*
X152170000Y-108920000D01*
X152170000Y-108920000D02*
X150790000Y-108920000D01*
%TO.C,R2*%
X111765000Y-118772936D02*
X111765000Y-119227064D01*
X113235000Y-118772936D02*
X113235000Y-119227064D01*
%TO.C,C8*%
X76515000Y-115951248D02*
X76515000Y-116473752D01*
X77985000Y-115951248D02*
X77985000Y-116473752D01*
%TO.C,R8*%
X125515000Y-78272936D02*
X125515000Y-78727064D01*
X126985000Y-78272936D02*
X126985000Y-78727064D01*
%TO.C,C5*%
X92201248Y-128265000D02*
X92723752Y-128265000D01*
X92201248Y-129735000D02*
X92723752Y-129735000D01*
%TO.C,U2*%
X78670000Y-59565439D02*
X78670000Y-65025439D01*
X78670000Y-67025439D02*
X78670000Y-72485439D01*
X78670000Y-72485439D02*
X119430000Y-72485439D01*
X119430000Y-59565439D02*
X78670000Y-59565439D01*
X119430000Y-72485439D02*
X119430000Y-59565439D01*
X78610000Y-74975439D02*
X119490000Y-74975439D01*
X119490000Y-57075439D01*
X78610000Y-57075439D01*
X78610000Y-74975439D01*
X78670000Y-65025439D02*
G75*
G02*
X78670000Y-67025439I0J-1000000D01*
G01*
%TO.C,C3*%
X118765000Y-122488748D02*
X118765000Y-123011252D01*
X120235000Y-122488748D02*
X120235000Y-123011252D01*
%TO.C,C4*%
X106765000Y-130488748D02*
X106765000Y-131011252D01*
X108235000Y-130488748D02*
X108235000Y-131011252D01*
%TO.C,J8*%
X136057500Y-45540000D02*
X145257500Y-45540000D01*
X136057500Y-54340000D02*
X136057500Y-45540000D01*
X136057500Y-60240000D02*
X136057500Y-58340000D01*
X138757500Y-60240000D02*
X136057500Y-60240000D01*
X144407500Y-60440000D02*
X145457500Y-60440000D01*
X145257500Y-45540000D02*
X145257500Y-60240000D01*
X145257500Y-60240000D02*
X142657500Y-60240000D01*
X145457500Y-59390000D02*
X145457500Y-60440000D01*
%TO.C,J2*%
X58620000Y-103620000D02*
X60000000Y-103620000D01*
X58620000Y-105000000D02*
X58620000Y-103620000D01*
X58620000Y-106270000D02*
X58620000Y-114000000D01*
X58620000Y-106270000D02*
X61380000Y-106270000D01*
X58620000Y-114000000D02*
X61380000Y-114000000D01*
X61380000Y-106270000D02*
X61380000Y-114000000D01*
%TO.C,D4*%
X125290000Y-67140000D02*
X125290000Y-70000000D01*
X127210000Y-67140000D02*
X125290000Y-67140000D01*
X127210000Y-70000000D02*
X127210000Y-67140000D01*
%TO.C,U1*%
X82785000Y-109870000D02*
X83010000Y-109870000D01*
X82785000Y-110345000D02*
X82785000Y-109870000D01*
X82785000Y-123615000D02*
X82785000Y-124090000D01*
X82785000Y-124090000D02*
X83010000Y-124090000D01*
X83010000Y-124090000D02*
X83010000Y-126580000D01*
X103005000Y-109870000D02*
X102780000Y-109870000D01*
X103005000Y-110345000D02*
X103005000Y-109870000D01*
X103005000Y-123615000D02*
X103005000Y-124090000D01*
X103005000Y-124090000D02*
X102780000Y-124090000D01*
%TO.C,J10*%
X55600000Y-119170000D02*
X61600000Y-119170000D01*
X55600000Y-120030000D02*
X55600000Y-119170000D01*
X55600000Y-121710000D02*
X61600000Y-121710000D01*
X55600000Y-122570000D02*
X55600000Y-121710000D01*
X55600000Y-124250000D02*
X61600000Y-124250000D01*
X55600000Y-125110000D02*
X55600000Y-124250000D01*
X55600000Y-126790000D02*
X61600000Y-126790000D01*
X55600000Y-127650000D02*
X55600000Y-126790000D01*
X55600000Y-129330000D02*
X61600000Y-129330000D01*
X55600000Y-130190000D02*
X55600000Y-129330000D01*
X61600000Y-118220000D02*
X61600000Y-133680000D01*
X61600000Y-120030000D02*
X55600000Y-120030000D01*
X61600000Y-122570000D02*
X55600000Y-122570000D01*
X61600000Y-125110000D02*
X55600000Y-125110000D01*
X61600000Y-127650000D02*
X55600000Y-127650000D01*
X61600000Y-130190000D02*
X55600000Y-130190000D01*
X61600000Y-133680000D02*
X64360000Y-133680000D01*
X64360000Y-118220000D02*
X61600000Y-118220000D01*
X64360000Y-120870000D02*
X61600000Y-120870000D01*
X64360000Y-123410000D02*
X61600000Y-123410000D01*
X64360000Y-125950000D02*
X61600000Y-125950000D01*
X64360000Y-128490000D02*
X61600000Y-128490000D01*
X64360000Y-131030000D02*
X61600000Y-131030000D01*
X64360000Y-133680000D02*
X64360000Y-118220000D01*
X64590000Y-131870000D02*
X64360000Y-131870000D01*
X64590000Y-132730000D02*
X64360000Y-132730000D01*
X64672642Y-119170000D02*
X64360000Y-119170000D01*
X64672642Y-120030000D02*
X64360000Y-120030000D01*
X64672642Y-121710000D02*
X64360000Y-121710000D01*
X64672642Y-122570000D02*
X64360000Y-122570000D01*
X64672642Y-124250000D02*
X64360000Y-124250000D01*
X64672642Y-125110000D02*
X64360000Y-125110000D01*
X64672642Y-126790000D02*
X64360000Y-126790000D01*
X64672642Y-127650000D02*
X64360000Y-127650000D01*
X64672642Y-129330000D02*
X64360000Y-129330000D01*
X64672642Y-130190000D02*
X64360000Y-130190000D01*
X67020000Y-132300000D02*
X67020000Y-133570000D01*
X67020000Y-133570000D02*
X65750000Y-133570000D01*
X61600000Y-132730000D02*
X55600000Y-132730000D01*
X55600000Y-131870000D01*
X61600000Y-131870000D01*
X61600000Y-132730000D01*
G36*
X61600000Y-132730000D02*
G01*
X55600000Y-132730000D01*
X55600000Y-131870000D01*
X61600000Y-131870000D01*
X61600000Y-132730000D01*
G37*
%TO.C,R9*%
X125515000Y-64022936D02*
X125515000Y-64477064D01*
X126985000Y-64022936D02*
X126985000Y-64477064D01*
%TO.C,J7*%
X77620000Y-79230000D02*
X77620000Y-76580000D01*
X80380000Y-76580000D02*
X77620000Y-76580000D01*
X80380000Y-79230000D02*
X77620000Y-79230000D01*
X80380000Y-79230000D02*
X80380000Y-76580000D01*
X80380000Y-80500000D02*
X80380000Y-81880000D01*
X80380000Y-81880000D02*
X79000000Y-81880000D01*
%TO.C,D3*%
X125290000Y-81415000D02*
X125290000Y-84275000D01*
X127210000Y-81415000D02*
X125290000Y-81415000D01*
X127210000Y-84275000D02*
X127210000Y-81415000D01*
%TO.C,SW1*%
X56750000Y-91000000D02*
X56750000Y-95500000D01*
X59250000Y-96750000D02*
X60750000Y-96750000D01*
X60750000Y-89750000D02*
X59250000Y-89750000D01*
X63250000Y-95500000D02*
X63250000Y-91000000D01*
%TO.C,R5*%
X113477064Y-115265000D02*
X113022936Y-115265000D01*
X113477064Y-116735000D02*
X113022936Y-116735000D01*
%TO.C,R3*%
X112022936Y-124015000D02*
X112477064Y-124015000D01*
X112022936Y-125485000D02*
X112477064Y-125485000D01*
%TO.C,Y1*%
X115120000Y-118000000D02*
X114810000Y-118000000D01*
X115120000Y-119900000D02*
X114810000Y-119900000D01*
X115990000Y-118600000D02*
X115120000Y-118000000D01*
X115990000Y-119300000D02*
X115120000Y-119900000D01*
X115990000Y-120240000D02*
X123010000Y-120240000D01*
X123010000Y-117660000D01*
X115990000Y-117660000D01*
X115990000Y-120240000D01*
%TO.C,J4*%
X65720000Y-137020000D02*
X78640000Y-137020000D01*
X65720000Y-139670000D02*
X65720000Y-137020000D01*
X65720000Y-142320000D02*
X65720000Y-140940000D01*
X67100000Y-142320000D02*
X65720000Y-142320000D01*
X68370000Y-139670000D02*
X65720000Y-139670000D01*
X68370000Y-142320000D02*
X68370000Y-139670000D01*
X68370000Y-142320000D02*
X78640000Y-142320000D01*
X78640000Y-142320000D02*
X78640000Y-137020000D01*
%TO.C,C9*%
X147445225Y-56525000D02*
X147945225Y-56525000D01*
X147695225Y-56275000D02*
X147695225Y-56775000D01*
X150250000Y-55420000D02*
X150250000Y-60580000D01*
X150290000Y-55420000D02*
X150290000Y-60580000D01*
X150330000Y-55421000D02*
X150330000Y-60579000D01*
X150370000Y-55423000D02*
X150370000Y-60577000D01*
X150410000Y-55425000D02*
X150410000Y-60575000D01*
X150450000Y-55428000D02*
X150450000Y-60572000D01*
X150490000Y-55431000D02*
X150490000Y-56960000D01*
X150490000Y-59040000D02*
X150490000Y-60569000D01*
X150530000Y-55435000D02*
X150530000Y-56960000D01*
X150530000Y-59040000D02*
X150530000Y-60565000D01*
X150570000Y-55440000D02*
X150570000Y-56960000D01*
X150570000Y-59040000D02*
X150570000Y-60560000D01*
X150610000Y-55445000D02*
X150610000Y-56960000D01*
X150610000Y-59040000D02*
X150610000Y-60555000D01*
X150650000Y-55451000D02*
X150650000Y-56960000D01*
X150650000Y-59040000D02*
X150650000Y-60549000D01*
X150690000Y-55457000D02*
X150690000Y-56960000D01*
X150690000Y-59040000D02*
X150690000Y-60543000D01*
X150730000Y-55464000D02*
X150730000Y-56960000D01*
X150730000Y-59040000D02*
X150730000Y-60536000D01*
X150770000Y-55472000D02*
X150770000Y-56960000D01*
X150770000Y-59040000D02*
X150770000Y-60528000D01*
X150810000Y-55481000D02*
X150810000Y-56960000D01*
X150810000Y-59040000D02*
X150810000Y-60519000D01*
X150850000Y-55490000D02*
X150850000Y-56960000D01*
X150850000Y-59040000D02*
X150850000Y-60510000D01*
X150890000Y-55499000D02*
X150890000Y-56960000D01*
X150890000Y-59040000D02*
X150890000Y-60501000D01*
X150930000Y-55510000D02*
X150930000Y-56960000D01*
X150930000Y-59040000D02*
X150930000Y-60490000D01*
X150970000Y-55521000D02*
X150970000Y-56960000D01*
X150970000Y-59040000D02*
X150970000Y-60479000D01*
X151010000Y-55533000D02*
X151010000Y-56960000D01*
X151010000Y-59040000D02*
X151010000Y-60467000D01*
X151050000Y-55545000D02*
X151050000Y-56960000D01*
X151050000Y-59040000D02*
X151050000Y-60455000D01*
X151090000Y-55558000D02*
X151090000Y-56960000D01*
X151090000Y-59040000D02*
X151090000Y-60442000D01*
X151130000Y-55572000D02*
X151130000Y-56960000D01*
X151130000Y-59040000D02*
X151130000Y-60428000D01*
X151170000Y-55587000D02*
X151170000Y-56960000D01*
X151170000Y-59040000D02*
X151170000Y-60413000D01*
X151210000Y-55602000D02*
X151210000Y-56960000D01*
X151210000Y-59040000D02*
X151210000Y-60398000D01*
X151250000Y-55618000D02*
X151250000Y-56960000D01*
X151250000Y-59040000D02*
X151250000Y-60382000D01*
X151290000Y-55635000D02*
X151290000Y-56960000D01*
X151290000Y-59040000D02*
X151290000Y-60365000D01*
X151330000Y-55653000D02*
X151330000Y-56960000D01*
X151330000Y-59040000D02*
X151330000Y-60347000D01*
X151370000Y-55671000D02*
X151370000Y-56960000D01*
X151370000Y-59040000D02*
X151370000Y-60329000D01*
X151410000Y-55691000D02*
X151410000Y-56960000D01*
X151410000Y-59040000D02*
X151410000Y-60309000D01*
X151450000Y-55711000D02*
X151450000Y-56960000D01*
X151450000Y-59040000D02*
X151450000Y-60289000D01*
X151490000Y-55732000D02*
X151490000Y-56960000D01*
X151490000Y-59040000D02*
X151490000Y-60268000D01*
X151530000Y-55754000D02*
X151530000Y-56960000D01*
X151530000Y-59040000D02*
X151530000Y-60246000D01*
X151570000Y-55777000D02*
X151570000Y-56960000D01*
X151570000Y-59040000D02*
X151570000Y-60223000D01*
X151610000Y-55801000D02*
X151610000Y-56960000D01*
X151610000Y-59040000D02*
X151610000Y-60199000D01*
X151650000Y-55825000D02*
X151650000Y-56960000D01*
X151650000Y-59040000D02*
X151650000Y-60175000D01*
X151690000Y-55851000D02*
X151690000Y-56960000D01*
X151690000Y-59040000D02*
X151690000Y-60149000D01*
X151730000Y-55878000D02*
X151730000Y-56960000D01*
X151730000Y-59040000D02*
X151730000Y-60122000D01*
X151770000Y-55906000D02*
X151770000Y-56960000D01*
X151770000Y-59040000D02*
X151770000Y-60094000D01*
X151810000Y-55935000D02*
X151810000Y-56960000D01*
X151810000Y-59040000D02*
X151810000Y-60065000D01*
X151850000Y-55965000D02*
X151850000Y-56960000D01*
X151850000Y-59040000D02*
X151850000Y-60035000D01*
X151890000Y-55997000D02*
X151890000Y-56960000D01*
X151890000Y-59040000D02*
X151890000Y-60003000D01*
X151930000Y-56030000D02*
X151930000Y-56960000D01*
X151930000Y-59040000D02*
X151930000Y-59970000D01*
X151970000Y-56064000D02*
X151970000Y-56960000D01*
X151970000Y-59040000D02*
X151970000Y-59936000D01*
X152010000Y-56099000D02*
X152010000Y-56960000D01*
X152010000Y-59040000D02*
X152010000Y-59901000D01*
X152050000Y-56136000D02*
X152050000Y-56960000D01*
X152050000Y-59040000D02*
X152050000Y-59864000D01*
X152090000Y-56175000D02*
X152090000Y-56960000D01*
X152090000Y-59040000D02*
X152090000Y-59825000D01*
X152130000Y-56215000D02*
X152130000Y-56960000D01*
X152130000Y-59040000D02*
X152130000Y-59785000D01*
X152170000Y-56257000D02*
X152170000Y-56960000D01*
X152170000Y-59040000D02*
X152170000Y-59743000D01*
X152210000Y-56301000D02*
X152210000Y-56960000D01*
X152210000Y-59040000D02*
X152210000Y-59699000D01*
X152250000Y-56348000D02*
X152250000Y-56960000D01*
X152250000Y-59040000D02*
X152250000Y-59652000D01*
X152290000Y-56396000D02*
X152290000Y-56960000D01*
X152290000Y-59040000D02*
X152290000Y-59604000D01*
X152330000Y-56447000D02*
X152330000Y-56960000D01*
X152330000Y-59040000D02*
X152330000Y-59553000D01*
X152370000Y-56501000D02*
X152370000Y-56960000D01*
X152370000Y-59040000D02*
X152370000Y-59499000D01*
X152410000Y-56557000D02*
X152410000Y-56960000D01*
X152410000Y-59040000D02*
X152410000Y-59443000D01*
X152450000Y-56617000D02*
X152450000Y-56960000D01*
X152450000Y-59040000D02*
X152450000Y-59383000D01*
X152490000Y-56681000D02*
X152490000Y-56960000D01*
X152490000Y-59040000D02*
X152490000Y-59319000D01*
X152530000Y-56749000D02*
X152530000Y-56960000D01*
X152530000Y-59040000D02*
X152530000Y-59251000D01*
X152570000Y-56823000D02*
X152570000Y-59177000D01*
X152610000Y-56902000D02*
X152610000Y-59098000D01*
X152650000Y-56989000D02*
X152650000Y-59011000D01*
X152690000Y-57086000D02*
X152690000Y-58914000D01*
X152730000Y-57195000D02*
X152730000Y-58805000D01*
X152770000Y-57323000D02*
X152770000Y-58677000D01*
X152810000Y-57483000D02*
X152810000Y-58517000D01*
X152850000Y-57717000D02*
X152850000Y-58283000D01*
X152870000Y-58000000D02*
G75*
G02*
X147630000Y-58000000I-2620000J0D01*
G01*
X147630000Y-58000000D02*
G75*
G02*
X152870000Y-58000000I2620000J0D01*
G01*
%TO.C,C12*%
X78765000Y-86548752D02*
X78765000Y-86026248D01*
X80235000Y-86548752D02*
X80235000Y-86026248D01*
%TO.C,C7*%
X108015000Y-116201248D02*
X108015000Y-116723752D01*
X109485000Y-116201248D02*
X109485000Y-116723752D01*
%TO.C,J13*%
X146870000Y-134630000D02*
X146870000Y-116630000D01*
X149520000Y-131980000D02*
X149520000Y-134630000D01*
X149520000Y-134630000D02*
X146870000Y-134630000D01*
X152170000Y-116630000D02*
X146870000Y-116630000D01*
X152170000Y-131980000D02*
X149520000Y-131980000D01*
X152170000Y-131980000D02*
X152170000Y-116630000D01*
X152170000Y-133250000D02*
X152170000Y-134630000D01*
X152170000Y-134630000D02*
X150790000Y-134630000D01*
%TO.C,J6*%
X111435157Y-137020000D02*
X124355157Y-137020000D01*
X111435157Y-139670000D02*
X111435157Y-137020000D01*
X111435157Y-142320000D02*
X111435157Y-140940000D01*
X112815157Y-142320000D02*
X111435157Y-142320000D01*
X114085157Y-139670000D02*
X111435157Y-139670000D01*
X114085157Y-142320000D02*
X114085157Y-139670000D01*
X114085157Y-142320000D02*
X124355157Y-142320000D01*
X124355157Y-142320000D02*
X124355157Y-137020000D01*
%TO.C,Y2*%
X111435000Y-126334394D02*
X117685000Y-126334394D01*
X117685000Y-131204394D02*
X111435000Y-131204394D01*
X111435000Y-131204394D02*
G75*
G02*
X111435000Y-126334394I0J2435000D01*
G01*
X117685000Y-126334394D02*
G75*
G02*
X117685000Y-131204394I0J-2435000D01*
G01*
%TO.C,R4*%
X106765000Y-126977064D02*
X106765000Y-126522936D01*
X108235000Y-126977064D02*
X108235000Y-126522936D01*
%TO.C,R10*%
X59772936Y-55265000D02*
X60227064Y-55265000D01*
X59772936Y-56735000D02*
X60227064Y-56735000D01*
%TO.C,RN1*%
X64730000Y-100250000D02*
X64730000Y-115650000D01*
X64730000Y-115650000D02*
X67350000Y-115650000D01*
X67350000Y-100250000D02*
X64730000Y-100250000D01*
X67350000Y-102870000D02*
X64730000Y-102870000D01*
X67350000Y-115650000D02*
X67350000Y-100250000D01*
%TO.C,J3*%
X58620000Y-57620000D02*
X60000000Y-57620000D01*
X58620000Y-59000000D02*
X58620000Y-57620000D01*
X58620000Y-60270000D02*
X58620000Y-68000000D01*
X58620000Y-60270000D02*
X61270000Y-60270000D01*
X58620000Y-68000000D02*
X63920000Y-68000000D01*
X61270000Y-57620000D02*
X63920000Y-57620000D01*
X61270000Y-60270000D02*
X61270000Y-57620000D01*
X63920000Y-57620000D02*
X63920000Y-68000000D01*
%TO.C,C6*%
X92738748Y-104515000D02*
X93261252Y-104515000D01*
X92738748Y-105985000D02*
X93261252Y-105985000D01*
%TO.C,C1*%
X116515000Y-122451248D02*
X116515000Y-122973752D01*
X117985000Y-122451248D02*
X117985000Y-122973752D01*
%TO.C,U6*%
X129825000Y-90330000D02*
X129825000Y-141250000D01*
X129825000Y-141250000D02*
X135285000Y-141250000D01*
X137285000Y-141250000D02*
X142745000Y-141250000D01*
X142745000Y-90330000D02*
X129825000Y-90330000D01*
X142745000Y-141250000D02*
X142745000Y-90330000D01*
X135285000Y-141250000D02*
G75*
G02*
X137285000Y-141250000I1000000J0D01*
G01*
%TO.C,R11*%
X148727064Y-69515000D02*
X148272936Y-69515000D01*
X148727064Y-70985000D02*
X148272936Y-70985000D01*
%TO.C,C14*%
X138011252Y-86515000D02*
X137488748Y-86515000D01*
X138011252Y-87985000D02*
X137488748Y-87985000D01*
%TO.C,J11*%
X142540000Y-75120000D02*
X142540000Y-77880000D01*
X147730000Y-75120000D02*
X142540000Y-75120000D01*
X147730000Y-75120000D02*
X147730000Y-77880000D01*
X147730000Y-77880000D02*
X142540000Y-77880000D01*
X149000000Y-75120000D02*
X150380000Y-75120000D01*
X150380000Y-75120000D02*
X150380000Y-76500000D01*
%TO.C,J5*%
X88525942Y-137020000D02*
X101445942Y-137020000D01*
X88525942Y-139670000D02*
X88525942Y-137020000D01*
X88525942Y-142320000D02*
X88525942Y-140940000D01*
X89905942Y-142320000D02*
X88525942Y-142320000D01*
X91175942Y-139670000D02*
X88525942Y-139670000D01*
X91175942Y-142320000D02*
X91175942Y-139670000D01*
X91175942Y-142320000D02*
X101445942Y-142320000D01*
X101445942Y-142320000D02*
X101445942Y-137020000D01*
%TO.C,C10*%
X147445225Y-64525000D02*
X147945225Y-64525000D01*
X147695225Y-64275000D02*
X147695225Y-64775000D01*
X150250000Y-63420000D02*
X150250000Y-68580000D01*
X150290000Y-63420000D02*
X150290000Y-68580000D01*
X150330000Y-63421000D02*
X150330000Y-68579000D01*
X150370000Y-63423000D02*
X150370000Y-68577000D01*
X150410000Y-63425000D02*
X150410000Y-68575000D01*
X150450000Y-63428000D02*
X150450000Y-68572000D01*
X150490000Y-63431000D02*
X150490000Y-64960000D01*
X150490000Y-67040000D02*
X150490000Y-68569000D01*
X150530000Y-63435000D02*
X150530000Y-64960000D01*
X150530000Y-67040000D02*
X150530000Y-68565000D01*
X150570000Y-63440000D02*
X150570000Y-64960000D01*
X150570000Y-67040000D02*
X150570000Y-68560000D01*
X150610000Y-63445000D02*
X150610000Y-64960000D01*
X150610000Y-67040000D02*
X150610000Y-68555000D01*
X150650000Y-63451000D02*
X150650000Y-64960000D01*
X150650000Y-67040000D02*
X150650000Y-68549000D01*
X150690000Y-63457000D02*
X150690000Y-64960000D01*
X150690000Y-67040000D02*
X150690000Y-68543000D01*
X150730000Y-63464000D02*
X150730000Y-64960000D01*
X150730000Y-67040000D02*
X150730000Y-68536000D01*
X150770000Y-63472000D02*
X150770000Y-64960000D01*
X150770000Y-67040000D02*
X150770000Y-68528000D01*
X150810000Y-63481000D02*
X150810000Y-64960000D01*
X150810000Y-67040000D02*
X150810000Y-68519000D01*
X150850000Y-63490000D02*
X150850000Y-64960000D01*
X150850000Y-67040000D02*
X150850000Y-68510000D01*
X150890000Y-63499000D02*
X150890000Y-64960000D01*
X150890000Y-67040000D02*
X150890000Y-68501000D01*
X150930000Y-63510000D02*
X150930000Y-64960000D01*
X150930000Y-67040000D02*
X150930000Y-68490000D01*
X150970000Y-63521000D02*
X150970000Y-64960000D01*
X150970000Y-67040000D02*
X150970000Y-68479000D01*
X151010000Y-63533000D02*
X151010000Y-64960000D01*
X151010000Y-67040000D02*
X151010000Y-68467000D01*
X151050000Y-63545000D02*
X151050000Y-64960000D01*
X151050000Y-67040000D02*
X151050000Y-68455000D01*
X151090000Y-63558000D02*
X151090000Y-64960000D01*
X151090000Y-67040000D02*
X151090000Y-68442000D01*
X151130000Y-63572000D02*
X151130000Y-64960000D01*
X151130000Y-67040000D02*
X151130000Y-68428000D01*
X151170000Y-63587000D02*
X151170000Y-64960000D01*
X151170000Y-67040000D02*
X151170000Y-68413000D01*
X151210000Y-63602000D02*
X151210000Y-64960000D01*
X151210000Y-67040000D02*
X151210000Y-68398000D01*
X151250000Y-63618000D02*
X151250000Y-64960000D01*
X151250000Y-67040000D02*
X151250000Y-68382000D01*
X151290000Y-63635000D02*
X151290000Y-64960000D01*
X151290000Y-67040000D02*
X151290000Y-68365000D01*
X151330000Y-63653000D02*
X151330000Y-64960000D01*
X151330000Y-67040000D02*
X151330000Y-68347000D01*
X151370000Y-63671000D02*
X151370000Y-64960000D01*
X151370000Y-67040000D02*
X151370000Y-68329000D01*
X151410000Y-63691000D02*
X151410000Y-64960000D01*
X151410000Y-67040000D02*
X151410000Y-68309000D01*
X151450000Y-63711000D02*
X151450000Y-64960000D01*
X151450000Y-67040000D02*
X151450000Y-68289000D01*
X151490000Y-63732000D02*
X151490000Y-64960000D01*
X151490000Y-67040000D02*
X151490000Y-68268000D01*
X151530000Y-63754000D02*
X151530000Y-64960000D01*
X151530000Y-67040000D02*
X151530000Y-68246000D01*
X151570000Y-63777000D02*
X151570000Y-64960000D01*
X151570000Y-67040000D02*
X151570000Y-68223000D01*
X151610000Y-63801000D02*
X151610000Y-64960000D01*
X151610000Y-67040000D02*
X151610000Y-68199000D01*
X151650000Y-63825000D02*
X151650000Y-64960000D01*
X151650000Y-67040000D02*
X151650000Y-68175000D01*
X151690000Y-63851000D02*
X151690000Y-64960000D01*
X151690000Y-67040000D02*
X151690000Y-68149000D01*
X151730000Y-63878000D02*
X151730000Y-64960000D01*
X151730000Y-67040000D02*
X151730000Y-68122000D01*
X151770000Y-63906000D02*
X151770000Y-64960000D01*
X151770000Y-67040000D02*
X151770000Y-68094000D01*
X151810000Y-63935000D02*
X151810000Y-64960000D01*
X151810000Y-67040000D02*
X151810000Y-68065000D01*
X151850000Y-63965000D02*
X151850000Y-64960000D01*
X151850000Y-67040000D02*
X151850000Y-68035000D01*
X151890000Y-63997000D02*
X151890000Y-64960000D01*
X151890000Y-67040000D02*
X151890000Y-68003000D01*
X151930000Y-64030000D02*
X151930000Y-64960000D01*
X151930000Y-67040000D02*
X151930000Y-67970000D01*
X151970000Y-64064000D02*
X151970000Y-64960000D01*
X151970000Y-67040000D02*
X151970000Y-67936000D01*
X152010000Y-64099000D02*
X152010000Y-64960000D01*
X152010000Y-67040000D02*
X152010000Y-67901000D01*
X152050000Y-64136000D02*
X152050000Y-64960000D01*
X152050000Y-67040000D02*
X152050000Y-67864000D01*
X152090000Y-64175000D02*
X152090000Y-64960000D01*
X152090000Y-67040000D02*
X152090000Y-67825000D01*
X152130000Y-64215000D02*
X152130000Y-64960000D01*
X152130000Y-67040000D02*
X152130000Y-67785000D01*
X152170000Y-64257000D02*
X152170000Y-64960000D01*
X152170000Y-67040000D02*
X152170000Y-67743000D01*
X152210000Y-64301000D02*
X152210000Y-64960000D01*
X152210000Y-67040000D02*
X152210000Y-67699000D01*
X152250000Y-64348000D02*
X152250000Y-64960000D01*
X152250000Y-67040000D02*
X152250000Y-67652000D01*
X152290000Y-64396000D02*
X152290000Y-64960000D01*
X152290000Y-67040000D02*
X152290000Y-67604000D01*
X152330000Y-64447000D02*
X152330000Y-64960000D01*
X152330000Y-67040000D02*
X152330000Y-67553000D01*
X152370000Y-64501000D02*
X152370000Y-64960000D01*
X152370000Y-67040000D02*
X152370000Y-67499000D01*
X152410000Y-64557000D02*
X152410000Y-64960000D01*
X152410000Y-67040000D02*
X152410000Y-67443000D01*
X152450000Y-64617000D02*
X152450000Y-64960000D01*
X152450000Y-67040000D02*
X152450000Y-67383000D01*
X152490000Y-64681000D02*
X152490000Y-64960000D01*
X152490000Y-67040000D02*
X152490000Y-67319000D01*
X152530000Y-64749000D02*
X152530000Y-64960000D01*
X152530000Y-67040000D02*
X152530000Y-67251000D01*
X152570000Y-64823000D02*
X152570000Y-67177000D01*
X152610000Y-64902000D02*
X152610000Y-67098000D01*
X152650000Y-64989000D02*
X152650000Y-67011000D01*
X152690000Y-65086000D02*
X152690000Y-66914000D01*
X152730000Y-65195000D02*
X152730000Y-66805000D01*
X152770000Y-65323000D02*
X152770000Y-66677000D01*
X152810000Y-65483000D02*
X152810000Y-66517000D01*
X152850000Y-65717000D02*
X152850000Y-66283000D01*
X152870000Y-66000000D02*
G75*
G02*
X147630000Y-66000000I-2620000J0D01*
G01*
X147630000Y-66000000D02*
G75*
G02*
X152870000Y-66000000I2620000J0D01*
G01*
D12*
%TO.C,IC1*%
X58157040Y-85901000D02*
X62342960Y-85901000D01*
X58847920Y-84377000D02*
X57588080Y-84377000D01*
X59114620Y-84377000D02*
X58847920Y-84377000D01*
X61385380Y-84377000D02*
X59114620Y-84377000D01*
X61652080Y-84377000D02*
X61385380Y-84377000D01*
X62911920Y-84377000D02*
X61652080Y-84377000D01*
X57837000Y-83114620D02*
G75*
G02*
X62660944Y-83110260I2413000J-1135380D01*
G01*
X57837000Y-85385380D02*
G75*
G02*
X57837071Y-83114470I2412998J1135380D01*
G01*
X58157040Y-85901000D02*
G75*
G02*
X57839288Y-85387871I2092947J1650992D01*
G01*
X62663000Y-83114620D02*
G75*
G02*
X62662929Y-85385530I-2413000J-1135380D01*
G01*
X62673160Y-85359980D02*
G75*
G02*
X62344214Y-85898644I-2423160J1109980D01*
G01*
D11*
%TO.C,R7*%
X80727064Y-107765000D02*
X80272936Y-107765000D01*
X80727064Y-109235000D02*
X80272936Y-109235000D01*
%TO.C,U3*%
X80931500Y-75810000D02*
X80931500Y-82690000D01*
X80931500Y-82690000D02*
X81546500Y-82690000D01*
X80931500Y-89569999D02*
X80931500Y-96449999D01*
X80931500Y-96449999D02*
X125068500Y-96450000D01*
X81546500Y-82690000D02*
X81546500Y-89569999D01*
X81546500Y-89569999D02*
X80931500Y-89569999D01*
X125068500Y-75810001D02*
X80931500Y-75810000D01*
X125068500Y-96450000D02*
X125068500Y-75810001D01*
%TO.C,U5*%
X117065000Y-103025000D02*
X117065000Y-101075000D01*
X117065000Y-103025000D02*
X117065000Y-104975000D01*
X125935000Y-103025000D02*
X125935000Y-101075000D01*
X125935000Y-103025000D02*
X125935000Y-104975000D01*
X117130000Y-105725000D02*
X116800000Y-105965000D01*
X116800000Y-105485000D01*
X117130000Y-105725000D01*
G36*
X117130000Y-105725000D02*
G01*
X116800000Y-105965000D01*
X116800000Y-105485000D01*
X117130000Y-105725000D01*
G37*
%TO.C,J12*%
X142595000Y-88130000D02*
X142595000Y-86750000D01*
X143975000Y-88130000D02*
X142595000Y-88130000D01*
X145245000Y-85370000D02*
X150435000Y-85370000D01*
X145245000Y-88130000D02*
X145245000Y-85370000D01*
X145245000Y-88130000D02*
X150435000Y-88130000D01*
X150435000Y-88130000D02*
X150435000Y-85370000D01*
%TO.C,C2*%
X120765000Y-130488748D02*
X120765000Y-131011252D01*
X122235000Y-130488748D02*
X122235000Y-131011252D01*
%TO.C,D6*%
X140680000Y-81000000D02*
X141700000Y-81000000D01*
X142480000Y-79530000D02*
X142480000Y-82470000D01*
X142600000Y-79530000D02*
X142600000Y-82470000D01*
X142720000Y-79530000D02*
X142720000Y-82470000D01*
X148160000Y-81000000D02*
X147140000Y-81000000D01*
X141700000Y-79530000D02*
X147140000Y-79530000D01*
X147140000Y-82470000D01*
X141700000Y-82470000D01*
X141700000Y-79530000D01*
%TD*%
D13*
%TO.C,IC1*%
X57710000Y-84250000D03*
X60250000Y-84250000D03*
X62790000Y-84250000D03*
%TD*%
M02*
