%TF.GenerationSoftware,KiCad,Pcbnew,9.0.4*%
%TF.CreationDate,2025-09-14T15:15:17-04:00*%
%TF.ProjectId,Mench Reloaded,4d656e63-6820-4526-956c-6f616465642e,rev?*%
%TF.SameCoordinates,Original*%
%TF.FileFunction,Soldermask,Top*%
%TF.FilePolarity,Negative*%
%FSLAX46Y46*%
G04 Gerber Fmt 4.6, Leading zero omitted, Abs format (unit mm)*
G04 Created by KiCad (PCBNEW 9.0.4) date 2025-09-14 15:15:17*
%MOMM*%
%LPD*%
G01*
G04 APERTURE LIST*
G04 Aperture macros list*
%AMRoundRect*
0 Rectangle with rounded corners*
0 $1 Rounding radius*
0 $2 $3 $4 $5 $6 $7 $8 $9 X,Y pos of 4 corners*
0 Add a 4 corners polygon primitive as box body*
4,1,4,$2,$3,$4,$5,$6,$7,$8,$9,$2,$3,0*
0 Add four circle primitives for the rounded corners*
1,1,$1+$1,$2,$3*
1,1,$1+$1,$4,$5*
1,1,$1+$1,$6,$7*
1,1,$1+$1,$8,$9*
0 Add four rect primitives between the rounded corners*
20,1,$1+$1,$2,$3,$4,$5,0*
20,1,$1+$1,$4,$5,$6,$7,0*
20,1,$1+$1,$6,$7,$8,$9,0*
20,1,$1+$1,$8,$9,$2,$3,0*%
G04 Aperture macros list end*
%ADD10RoundRect,0.250000X0.350000X0.450000X-0.350000X0.450000X-0.350000X-0.450000X0.350000X-0.450000X0*%
%ADD11RoundRect,0.250000X-0.337500X-0.475000X0.337500X-0.475000X0.337500X0.475000X-0.337500X0.475000X0*%
%ADD12R,1.700000X1.700000*%
%ADD13C,1.700000*%
%ADD14RoundRect,0.250000X-0.450000X0.325000X-0.450000X-0.325000X0.450000X-0.325000X0.450000X0.325000X0*%
%ADD15RoundRect,0.250000X0.325000X0.450000X-0.325000X0.450000X-0.325000X-0.450000X0.325000X-0.450000X0*%
%ADD16RoundRect,0.250000X0.450000X-0.350000X0.450000X0.350000X-0.450000X0.350000X-0.450000X-0.350000X0*%
%ADD17RoundRect,0.250000X-0.475000X0.337500X-0.475000X-0.337500X0.475000X-0.337500X0.475000X0.337500X0*%
%ADD18RoundRect,0.250000X-0.350000X0.850000X-0.350000X-0.850000X0.350000X-0.850000X0.350000X0.850000X0*%
%ADD19RoundRect,0.249997X-2.650003X2.950003X-2.650003X-2.950003X2.650003X-2.950003X2.650003X2.950003X0*%
%ADD20RoundRect,0.250000X0.450000X-0.325000X0.450000X0.325000X-0.450000X0.325000X-0.450000X-0.325000X0*%
%ADD21RoundRect,0.250000X-0.450000X0.350000X-0.450000X-0.350000X0.450000X-0.350000X0.450000X0.350000X0*%
%ADD22RoundRect,0.250000X0.550000X-0.550000X0.550000X0.550000X-0.550000X0.550000X-0.550000X-0.550000X0*%
%ADD23C,1.600000*%
%ADD24R,3.500000X3.500000*%
%ADD25RoundRect,0.750000X-1.000000X0.750000X-1.000000X-0.750000X1.000000X-0.750000X1.000000X0.750000X0*%
%ADD26RoundRect,0.875000X-0.875000X0.875000X-0.875000X-0.875000X0.875000X-0.875000X0.875000X0.875000X0*%
%ADD27RoundRect,0.100000X0.100000X-1.150000X0.100000X1.150000X-0.100000X1.150000X-0.100000X-1.150000X0*%
%ADD28RoundRect,0.100000X1.150000X-0.100000X1.150000X0.100000X-1.150000X0.100000X-1.150000X-0.100000X0*%
%ADD29C,3.200000*%
%ADD30C,2.000000*%
%ADD31RoundRect,0.250000X-0.350000X-0.450000X0.350000X-0.450000X0.350000X0.450000X-0.350000X0.450000X0*%
%ADD32C,1.000000*%
%ADD33RoundRect,0.250000X-0.550000X-0.550000X0.550000X-0.550000X0.550000X0.550000X-0.550000X0.550000X0*%
%ADD34RoundRect,0.250000X0.475000X-0.337500X0.475000X0.337500X-0.475000X0.337500X-0.475000X-0.337500X0*%
%ADD35C,1.500000*%
%ADD36R,1.600000X1.600000*%
%ADD37RoundRect,0.250000X0.550000X0.550000X-0.550000X0.550000X-0.550000X-0.550000X0.550000X-0.550000X0*%
%ADD38RoundRect,0.250000X0.337500X0.475000X-0.337500X0.475000X-0.337500X-0.475000X0.337500X-0.475000X0*%
%ADD39O,1.320800X2.641600*%
%ADD40RoundRect,0.150000X0.150000X-0.825000X0.150000X0.825000X-0.150000X0.825000X-0.150000X-0.825000X0*%
%ADD41RoundRect,0.249999X-0.850001X-0.850001X0.850001X-0.850001X0.850001X0.850001X-0.850001X0.850001X0*%
%ADD42C,2.200000*%
G04 APERTURE END LIST*
D10*
%TO.C,R1*%
X61000000Y-80000000D03*
X59000000Y-80000000D03*
%TD*%
D11*
%TO.C,C13*%
X118712500Y-98000000D03*
X120787500Y-98000000D03*
%TD*%
D12*
%TO.C,J9*%
X58000000Y-74500000D03*
D13*
X60540000Y-74500000D03*
X63080000Y-74500000D03*
%TD*%
D14*
%TO.C,D2*%
X77250000Y-109725000D03*
X77250000Y-111775000D03*
%TD*%
D15*
%TO.C,D5*%
X149550000Y-72250000D03*
X147500000Y-72250000D03*
%TD*%
D12*
%TO.C,J1*%
X128000000Y-49500000D03*
D13*
X128000000Y-52040000D03*
X125460000Y-49500000D03*
X125460000Y-52040000D03*
X122920000Y-49500000D03*
X122920000Y-52040000D03*
X120380000Y-49500000D03*
X120380000Y-52040000D03*
X117840000Y-49500000D03*
X117840000Y-52040000D03*
X115300000Y-49500000D03*
X115300000Y-52040000D03*
X112760000Y-49500000D03*
X112760000Y-52040000D03*
X110220000Y-49500000D03*
X110220000Y-52040000D03*
X107680000Y-49500000D03*
X107680000Y-52040000D03*
X105140000Y-49500000D03*
X105140000Y-52040000D03*
X102600000Y-49500000D03*
X102600000Y-52040000D03*
X100060000Y-49500000D03*
X100060000Y-52040000D03*
X97520000Y-49500000D03*
X97520000Y-52040000D03*
X94980000Y-49500000D03*
X94980000Y-52040000D03*
X92440000Y-49500000D03*
X92440000Y-52040000D03*
X89900000Y-49500000D03*
X89900000Y-52040000D03*
X87360000Y-49500000D03*
X87360000Y-52040000D03*
X84820000Y-49500000D03*
X84820000Y-52040000D03*
X82280000Y-49500000D03*
X82280000Y-52040000D03*
X79740000Y-49500000D03*
X79740000Y-52040000D03*
X77200000Y-49500000D03*
X77200000Y-52040000D03*
X74660000Y-49500000D03*
X74660000Y-52040000D03*
X72120000Y-49500000D03*
X72120000Y-52040000D03*
X69580000Y-49500000D03*
X69580000Y-52040000D03*
X67040000Y-49500000D03*
X67040000Y-52040000D03*
%TD*%
D16*
%TO.C,R6*%
X126250000Y-94750000D03*
X126250000Y-92750000D03*
%TD*%
D17*
%TO.C,C11*%
X77250000Y-69212500D03*
X77250000Y-71287500D03*
%TD*%
D18*
%TO.C,U4*%
X142780000Y-63525000D03*
X140500000Y-63525000D03*
D19*
X140500000Y-69825000D03*
D18*
X138220000Y-63525000D03*
%TD*%
D20*
%TO.C,D1*%
X126250000Y-90000000D03*
X126250000Y-87950000D03*
%TD*%
D12*
%TO.C,J14*%
X150790000Y-107540000D03*
D13*
X148250000Y-107540000D03*
X150790000Y-105000000D03*
X148250000Y-105000000D03*
X150790000Y-102460000D03*
X148250000Y-102460000D03*
X150790000Y-99920000D03*
X148250000Y-99920000D03*
X150790000Y-97380000D03*
X148250000Y-97380000D03*
X150790000Y-94840000D03*
X148250000Y-94840000D03*
X150790000Y-92300000D03*
X148250000Y-92300000D03*
%TD*%
D21*
%TO.C,R2*%
X112500000Y-118000000D03*
X112500000Y-120000000D03*
%TD*%
D17*
%TO.C,C8*%
X77250000Y-115175000D03*
X77250000Y-117250000D03*
%TD*%
D21*
%TO.C,R8*%
X126250000Y-77500000D03*
X126250000Y-79500000D03*
%TD*%
D11*
%TO.C,C5*%
X91425000Y-129000000D03*
X93500000Y-129000000D03*
%TD*%
D22*
%TO.C,U2*%
X80000000Y-73645439D03*
D23*
X82540000Y-73645439D03*
X85080000Y-73645439D03*
X87620000Y-73645439D03*
X90160000Y-73645439D03*
X92700000Y-73645439D03*
X95240000Y-73645439D03*
X97780000Y-73645439D03*
X100320000Y-73645439D03*
X102860000Y-73645439D03*
X105400000Y-73645439D03*
X107940000Y-73645439D03*
X110480000Y-73645439D03*
X113020000Y-73645439D03*
X115560000Y-73645439D03*
X118100000Y-73645439D03*
X118100000Y-58405439D03*
X115560000Y-58405439D03*
X113020000Y-58405439D03*
X110480000Y-58405439D03*
X107940000Y-58405439D03*
X105400000Y-58405439D03*
X102860000Y-58405439D03*
X100320000Y-58405439D03*
X97780000Y-58405439D03*
X95240000Y-58405439D03*
X92700000Y-58405439D03*
X90160000Y-58405439D03*
X87620000Y-58405439D03*
X85080000Y-58405439D03*
X82540000Y-58405439D03*
X80000000Y-58405439D03*
%TD*%
D17*
%TO.C,C3*%
X119500000Y-121712500D03*
X119500000Y-123787500D03*
%TD*%
%TO.C,C4*%
X107500000Y-129712500D03*
X107500000Y-131787500D03*
%TD*%
D24*
%TO.C,J8*%
X140657500Y-59340000D03*
D25*
X140657500Y-53340000D03*
D26*
X135957500Y-56340000D03*
%TD*%
D12*
%TO.C,J2*%
X60000000Y-105000000D03*
D13*
X60000000Y-107540000D03*
X60000000Y-110080000D03*
X60000000Y-112620000D03*
%TD*%
D14*
%TO.C,D4*%
X126250000Y-67975000D03*
X126250000Y-70025000D03*
%TD*%
D27*
%TO.C,U1*%
X83470000Y-125460000D03*
X84120000Y-125460000D03*
X84770000Y-125460000D03*
X85420000Y-125460000D03*
X86070000Y-125460000D03*
X86720000Y-125460000D03*
X87370000Y-125460000D03*
X88020000Y-125460000D03*
X88670000Y-125460000D03*
X89320000Y-125460000D03*
X89970000Y-125460000D03*
X90620000Y-125460000D03*
X91270000Y-125460000D03*
X91920000Y-125460000D03*
X92570000Y-125460000D03*
X93220000Y-125460000D03*
X93870000Y-125460000D03*
X94520000Y-125460000D03*
X95170000Y-125460000D03*
X95820000Y-125460000D03*
X96470000Y-125460000D03*
X97120000Y-125460000D03*
X97770000Y-125460000D03*
X98420000Y-125460000D03*
X99070000Y-125460000D03*
X99720000Y-125460000D03*
X100370000Y-125460000D03*
X101020000Y-125460000D03*
X101670000Y-125460000D03*
X102320000Y-125460000D03*
D28*
X104295000Y-123155000D03*
X104295000Y-122505000D03*
X104295000Y-121855000D03*
X104295000Y-121205000D03*
X104295000Y-120555000D03*
X104295000Y-119905000D03*
X104295000Y-119255000D03*
X104295000Y-118605000D03*
X104295000Y-117955000D03*
X104295000Y-117305000D03*
X104295000Y-116655000D03*
X104295000Y-116005000D03*
X104295000Y-115355000D03*
X104295000Y-114705000D03*
X104295000Y-114055000D03*
X104295000Y-113405000D03*
X104295000Y-112755000D03*
X104295000Y-112105000D03*
X104295000Y-111455000D03*
X104295000Y-110805000D03*
D27*
X102320000Y-108500000D03*
X101670000Y-108500000D03*
X101020000Y-108500000D03*
X100370000Y-108500000D03*
X99720000Y-108500000D03*
X99070000Y-108500000D03*
X98420000Y-108500000D03*
X97770000Y-108500000D03*
X97120000Y-108500000D03*
X96470000Y-108500000D03*
X95820000Y-108500000D03*
X95170000Y-108500000D03*
X94520000Y-108500000D03*
X93870000Y-108500000D03*
X93220000Y-108500000D03*
X92570000Y-108500000D03*
X91920000Y-108500000D03*
X91270000Y-108500000D03*
X90620000Y-108500000D03*
X89970000Y-108500000D03*
X89320000Y-108500000D03*
X88670000Y-108500000D03*
X88020000Y-108500000D03*
X87370000Y-108500000D03*
X86720000Y-108500000D03*
X86070000Y-108500000D03*
X85420000Y-108500000D03*
X84770000Y-108500000D03*
X84120000Y-108500000D03*
X83470000Y-108500000D03*
D28*
X81495000Y-110805000D03*
X81495000Y-111455000D03*
X81495000Y-112105000D03*
X81495000Y-112755000D03*
X81495000Y-113405000D03*
X81495000Y-114055000D03*
X81495000Y-114705000D03*
X81495000Y-115355000D03*
X81495000Y-116005000D03*
X81495000Y-116655000D03*
X81495000Y-117305000D03*
X81495000Y-117955000D03*
X81495000Y-118605000D03*
X81495000Y-119255000D03*
X81495000Y-119905000D03*
X81495000Y-120555000D03*
X81495000Y-121205000D03*
X81495000Y-121855000D03*
X81495000Y-122505000D03*
X81495000Y-123155000D03*
%TD*%
D12*
%TO.C,J10*%
X65750000Y-132300000D03*
D13*
X65750000Y-129760000D03*
X65750000Y-127220000D03*
X65750000Y-124680000D03*
X65750000Y-122140000D03*
X65750000Y-119600000D03*
%TD*%
D21*
%TO.C,R9*%
X126250000Y-63250000D03*
X126250000Y-65250000D03*
%TD*%
D12*
%TO.C,J7*%
X79000000Y-80500000D03*
D13*
X79000000Y-77960000D03*
%TD*%
D14*
%TO.C,D3*%
X126250000Y-82250000D03*
X126250000Y-84300000D03*
%TD*%
D29*
%TO.C,MH3*%
X150000000Y-50000000D03*
%TD*%
D30*
%TO.C,SW1*%
X62250000Y-90000000D03*
X62250000Y-96500000D03*
X57750000Y-90000000D03*
X57750000Y-96500000D03*
%TD*%
D29*
%TO.C,MH2*%
X60000000Y-140000000D03*
%TD*%
D10*
%TO.C,R5*%
X114250000Y-116000000D03*
X112250000Y-116000000D03*
%TD*%
D31*
%TO.C,R3*%
X111250000Y-124750000D03*
X113250000Y-124750000D03*
%TD*%
D32*
%TO.C,Y1*%
X114250000Y-119900000D03*
X114250000Y-118000000D03*
%TD*%
D12*
%TO.C,J4*%
X67100000Y-140940000D03*
D13*
X67100000Y-138400000D03*
X69640000Y-140940000D03*
X69640000Y-138400000D03*
X72180000Y-140940000D03*
X72180000Y-138400000D03*
X74720000Y-140940000D03*
X74720000Y-138400000D03*
X77260000Y-140940000D03*
X77260000Y-138400000D03*
%TD*%
D33*
%TO.C,C9*%
X149000000Y-58000000D03*
D23*
X151500000Y-58000000D03*
%TD*%
D29*
%TO.C,MH4*%
X150000000Y-140000000D03*
%TD*%
D34*
%TO.C,C12*%
X79500000Y-87325000D03*
X79500000Y-85250000D03*
%TD*%
D17*
%TO.C,C7*%
X108750000Y-115425000D03*
X108750000Y-117500000D03*
%TD*%
D12*
%TO.C,J13*%
X150790000Y-133250000D03*
D13*
X148250000Y-133250000D03*
X150790000Y-130710000D03*
X148250000Y-130710000D03*
X150790000Y-128170000D03*
X148250000Y-128170000D03*
X150790000Y-125630000D03*
X148250000Y-125630000D03*
X150790000Y-123090000D03*
X148250000Y-123090000D03*
X150790000Y-120550000D03*
X148250000Y-120550000D03*
X150790000Y-118010000D03*
X148250000Y-118010000D03*
%TD*%
D12*
%TO.C,J6*%
X112815157Y-140940000D03*
D13*
X112815157Y-138400000D03*
X115355157Y-140940000D03*
X115355157Y-138400000D03*
X117895157Y-140940000D03*
X117895157Y-138400000D03*
X120435157Y-140940000D03*
X120435157Y-138400000D03*
X122975157Y-140940000D03*
X122975157Y-138400000D03*
%TD*%
D35*
%TO.C,Y2*%
X117000000Y-128769394D03*
X112120000Y-128769394D03*
%TD*%
D16*
%TO.C,R4*%
X107500000Y-127750000D03*
X107500000Y-125750000D03*
%TD*%
D31*
%TO.C,R10*%
X59000000Y-56000000D03*
X61000000Y-56000000D03*
%TD*%
D36*
%TO.C,RN1*%
X66040000Y-101600000D03*
D23*
X66040000Y-104140000D03*
X66040000Y-106680000D03*
X66040000Y-109220000D03*
X66040000Y-111760000D03*
X66040000Y-114300000D03*
%TD*%
D12*
%TO.C,J3*%
X60000000Y-59000000D03*
D13*
X62540000Y-59000000D03*
X60000000Y-61540000D03*
X62540000Y-61540000D03*
X60000000Y-64080000D03*
X62540000Y-64080000D03*
X60000000Y-66620000D03*
X62540000Y-66620000D03*
%TD*%
D11*
%TO.C,C6*%
X91962500Y-105250000D03*
X94037500Y-105250000D03*
%TD*%
D17*
%TO.C,C1*%
X117250000Y-121675000D03*
X117250000Y-123750000D03*
%TD*%
D37*
%TO.C,U6*%
X143905000Y-139920000D03*
D23*
X143905000Y-137380000D03*
X143905000Y-134840000D03*
X143905000Y-132300000D03*
X143905000Y-129760000D03*
X143905000Y-127220000D03*
X143905000Y-124680000D03*
X143905000Y-122140000D03*
X143905000Y-119600000D03*
X143905000Y-117060000D03*
X143905000Y-114520000D03*
X143905000Y-111980000D03*
X143905000Y-109440000D03*
X143905000Y-106900000D03*
X143905000Y-104360000D03*
X143905000Y-101820000D03*
X143905000Y-99280000D03*
X143905000Y-96740000D03*
X143905000Y-94200000D03*
X143905000Y-91660000D03*
X128665000Y-91660000D03*
X128665000Y-94200000D03*
X128665000Y-96740000D03*
X128665000Y-99280000D03*
X128665000Y-101820000D03*
X128665000Y-104360000D03*
X128665000Y-106900000D03*
X128665000Y-109440000D03*
X128665000Y-111980000D03*
X128665000Y-114520000D03*
X128665000Y-117060000D03*
X128665000Y-119600000D03*
X128665000Y-122140000D03*
X128665000Y-124680000D03*
X128665000Y-127220000D03*
X128665000Y-129760000D03*
X128665000Y-132300000D03*
X128665000Y-134840000D03*
X128665000Y-137380000D03*
X128665000Y-139920000D03*
%TD*%
D29*
%TO.C,MH1*%
X60000000Y-50000000D03*
%TD*%
D10*
%TO.C,R11*%
X149500000Y-70250000D03*
X147500000Y-70250000D03*
%TD*%
D38*
%TO.C,C14*%
X138787500Y-87250000D03*
X136712500Y-87250000D03*
%TD*%
D12*
%TO.C,J11*%
X149000000Y-76500000D03*
D13*
X146460000Y-76500000D03*
X143920000Y-76500000D03*
%TD*%
D12*
%TO.C,J5*%
X89905942Y-140940000D03*
D13*
X89905942Y-138400000D03*
X92445942Y-140940000D03*
X92445942Y-138400000D03*
X94985942Y-140940000D03*
X94985942Y-138400000D03*
X97525942Y-140940000D03*
X97525942Y-138400000D03*
X100065942Y-140940000D03*
X100065942Y-138400000D03*
%TD*%
D33*
%TO.C,C10*%
X149000000Y-66000000D03*
D23*
X151500000Y-66000000D03*
%TD*%
D39*
%TO.C,IC1*%
X57710000Y-84250000D03*
X60250000Y-84250000D03*
X62790000Y-84250000D03*
%TD*%
D10*
%TO.C,R7*%
X81500000Y-108500000D03*
X79500000Y-108500000D03*
%TD*%
D23*
%TO.C,U3*%
X85156500Y-93750000D03*
X87696500Y-93750000D03*
X90236500Y-93750000D03*
X92776500Y-93750000D03*
X95316500Y-93750000D03*
X97856500Y-93750000D03*
X100396500Y-93750000D03*
X102936500Y-93750000D03*
X105476500Y-93750000D03*
X108016500Y-93750000D03*
X110556500Y-93750000D03*
X113096500Y-93750000D03*
X115636500Y-93750000D03*
X118176500Y-93750000D03*
X118176500Y-78510000D03*
X115636500Y-78510000D03*
X113096500Y-78510000D03*
X110556500Y-78510000D03*
X108016500Y-78510000D03*
X105476500Y-78510000D03*
X102936500Y-78510000D03*
X100396500Y-78510000D03*
X97856500Y-78510000D03*
X95316500Y-78510000D03*
X92776500Y-78510000D03*
X90236500Y-78510000D03*
X87696500Y-78510000D03*
X85156500Y-78510000D03*
%TD*%
D40*
%TO.C,U5*%
X117690000Y-105500000D03*
X118960000Y-105500000D03*
X120230000Y-105500000D03*
X121500000Y-105500000D03*
X122770000Y-105500000D03*
X124040000Y-105500000D03*
X125310000Y-105500000D03*
X125310000Y-100550000D03*
X124040000Y-100550000D03*
X122770000Y-100550000D03*
X121500000Y-100550000D03*
X120230000Y-100550000D03*
X118960000Y-100550000D03*
X117690000Y-100550000D03*
%TD*%
D12*
%TO.C,J12*%
X143975000Y-86750000D03*
D13*
X146515000Y-86750000D03*
X149055000Y-86750000D03*
%TD*%
D17*
%TO.C,C2*%
X121500000Y-129712500D03*
X121500000Y-131787500D03*
%TD*%
D41*
%TO.C,D6*%
X139340000Y-81000000D03*
D42*
X149500000Y-81000000D03*
%TD*%
M02*
