%TF.GenerationSoftware,KiCad,Pcbnew,9.0.4*%
%TF.CreationDate,2025-09-14T15:15:17-04:00*%
%TF.ProjectId,Mench Reloaded,4d656e63-6820-4526-956c-6f616465642e,rev?*%
%TF.SameCoordinates,Original*%
%TF.FileFunction,Legend,Bot*%
%TF.FilePolarity,Positive*%
%FSLAX46Y46*%
G04 Gerber Fmt 4.6, Leading zero omitted, Abs format (unit mm)*
G04 Created by KiCad (PCBNEW 9.0.4) date 2025-09-14 15:15:17*
%MOMM*%
%LPD*%
G01*
G04 APERTURE LIST*
%ADD10C,0.088900*%
G04 APERTURE END LIST*
D10*
X57143570Y-87499903D02*
X57143570Y-86229903D01*
X57143570Y-86229903D02*
X57445951Y-86229903D01*
X57445951Y-86229903D02*
X57627380Y-86290379D01*
X57627380Y-86290379D02*
X57748332Y-86411331D01*
X57748332Y-86411331D02*
X57808809Y-86532284D01*
X57808809Y-86532284D02*
X57869285Y-86774188D01*
X57869285Y-86774188D02*
X57869285Y-86955617D01*
X57869285Y-86955617D02*
X57808809Y-87197522D01*
X57808809Y-87197522D02*
X57748332Y-87318474D01*
X57748332Y-87318474D02*
X57627380Y-87439427D01*
X57627380Y-87439427D02*
X57445951Y-87499903D01*
X57445951Y-87499903D02*
X57143570Y-87499903D01*
X58353094Y-87439427D02*
X58534523Y-87499903D01*
X58534523Y-87499903D02*
X58836904Y-87499903D01*
X58836904Y-87499903D02*
X58957856Y-87439427D01*
X58957856Y-87439427D02*
X59018332Y-87378950D01*
X59018332Y-87378950D02*
X59078809Y-87257998D01*
X59078809Y-87257998D02*
X59078809Y-87137046D01*
X59078809Y-87137046D02*
X59018332Y-87016093D01*
X59018332Y-87016093D02*
X58957856Y-86955617D01*
X58957856Y-86955617D02*
X58836904Y-86895141D01*
X58836904Y-86895141D02*
X58594999Y-86834665D01*
X58594999Y-86834665D02*
X58474047Y-86774188D01*
X58474047Y-86774188D02*
X58413570Y-86713712D01*
X58413570Y-86713712D02*
X58353094Y-86592760D01*
X58353094Y-86592760D02*
X58353094Y-86471807D01*
X58353094Y-86471807D02*
X58413570Y-86350855D01*
X58413570Y-86350855D02*
X58474047Y-86290379D01*
X58474047Y-86290379D02*
X58594999Y-86229903D01*
X58594999Y-86229903D02*
X58897380Y-86229903D01*
X58897380Y-86229903D02*
X59078809Y-86290379D01*
X60288333Y-87499903D02*
X59562618Y-87499903D01*
X59925475Y-87499903D02*
X59925475Y-86229903D01*
X59925475Y-86229903D02*
X59804523Y-86411331D01*
X59804523Y-86411331D02*
X59683571Y-86532284D01*
X59683571Y-86532284D02*
X59562618Y-86592760D01*
X61014047Y-86774188D02*
X60893095Y-86713712D01*
X60893095Y-86713712D02*
X60832618Y-86653236D01*
X60832618Y-86653236D02*
X60772142Y-86532284D01*
X60772142Y-86532284D02*
X60772142Y-86471807D01*
X60772142Y-86471807D02*
X60832618Y-86350855D01*
X60832618Y-86350855D02*
X60893095Y-86290379D01*
X60893095Y-86290379D02*
X61014047Y-86229903D01*
X61014047Y-86229903D02*
X61255952Y-86229903D01*
X61255952Y-86229903D02*
X61376904Y-86290379D01*
X61376904Y-86290379D02*
X61437380Y-86350855D01*
X61437380Y-86350855D02*
X61497857Y-86471807D01*
X61497857Y-86471807D02*
X61497857Y-86532284D01*
X61497857Y-86532284D02*
X61437380Y-86653236D01*
X61437380Y-86653236D02*
X61376904Y-86713712D01*
X61376904Y-86713712D02*
X61255952Y-86774188D01*
X61255952Y-86774188D02*
X61014047Y-86774188D01*
X61014047Y-86774188D02*
X60893095Y-86834665D01*
X60893095Y-86834665D02*
X60832618Y-86895141D01*
X60832618Y-86895141D02*
X60772142Y-87016093D01*
X60772142Y-87016093D02*
X60772142Y-87257998D01*
X60772142Y-87257998D02*
X60832618Y-87378950D01*
X60832618Y-87378950D02*
X60893095Y-87439427D01*
X60893095Y-87439427D02*
X61014047Y-87499903D01*
X61014047Y-87499903D02*
X61255952Y-87499903D01*
X61255952Y-87499903D02*
X61376904Y-87439427D01*
X61376904Y-87439427D02*
X61437380Y-87378950D01*
X61437380Y-87378950D02*
X61497857Y-87257998D01*
X61497857Y-87257998D02*
X61497857Y-87016093D01*
X61497857Y-87016093D02*
X61437380Y-86895141D01*
X61437380Y-86895141D02*
X61376904Y-86834665D01*
X61376904Y-86834665D02*
X61255952Y-86774188D01*
X62707381Y-87499903D02*
X61981666Y-87499903D01*
X62344523Y-87499903D02*
X62344523Y-86229903D01*
X62344523Y-86229903D02*
X62223571Y-86411331D01*
X62223571Y-86411331D02*
X62102619Y-86532284D01*
X62102619Y-86532284D02*
X61981666Y-86592760D01*
X63130714Y-86229903D02*
X63916905Y-86229903D01*
X63916905Y-86229903D02*
X63493571Y-86713712D01*
X63493571Y-86713712D02*
X63675000Y-86713712D01*
X63675000Y-86713712D02*
X63795952Y-86774188D01*
X63795952Y-86774188D02*
X63856428Y-86834665D01*
X63856428Y-86834665D02*
X63916905Y-86955617D01*
X63916905Y-86955617D02*
X63916905Y-87257998D01*
X63916905Y-87257998D02*
X63856428Y-87378950D01*
X63856428Y-87378950D02*
X63795952Y-87439427D01*
X63795952Y-87439427D02*
X63675000Y-87499903D01*
X63675000Y-87499903D02*
X63312143Y-87499903D01*
X63312143Y-87499903D02*
X63191190Y-87439427D01*
X63191190Y-87439427D02*
X63130714Y-87378950D01*
M02*
