M48
; DRILL file {KiCad 9.0.4} date 2025-09-14T15:15:25-0400
; FORMAT={-:-/ absolute / metric / decimal}
; #@! TF.CreationDate,2025-09-14T15:15:25-04:00
; #@! TF.GenerationSoftware,Kicad,Pcbnew,9.0.4
; #@! TF.FileFunction,Plated,1,2,PTH
FMAT,2
METRIC
; #@! TA.AperFunction,Plated,PTH,ViaDrill
T1C0.300
; #@! TA.AperFunction,Plated,PTH,ViaDrill
T2C0.400
; #@! TA.AperFunction,Plated,PTH,ComponentDrill
T3C0.500
; #@! TA.AperFunction,Plated,PTH,ComponentDrill
T4C0.800
; #@! TA.AperFunction,Plated,PTH,ComponentDrill
T5C0.813
; #@! TA.AperFunction,Plated,PTH,ComponentDrill
T6C1.000
; #@! TA.AperFunction,Plated,PTH,ComponentDrill
T7C1.100
%
G90
G05
T1
X60.75Y-81.25
X62.25Y-56.0
X65.985Y-91.262
X66.0Y-56.25
X66.4Y-74.5
X66.6Y-90.75
X67.25Y-87.5
X68.6Y-114.5
X68.6Y-118.5
X69.5Y-119.75
X70.1Y-88.25
X70.1Y-119.096
X70.25Y-122.5
X70.6Y-85.5
X70.6Y-117.542
X70.804Y-107.0
X71.1Y-86.125
X71.25Y-120.75
X71.404Y-104.14
X71.801Y-66.62
X72.0Y-123.25
X72.004Y-108.5
X72.174Y-113.326
X72.202Y-65.354
X72.603Y-61.54
X72.692Y-111.808
X72.75Y-121.25
X73.152Y-86.6
X73.205Y-111.006
X73.4Y-60.429
X73.608Y-110.315
X74.1Y-90.5
X75.428Y-55.428
X77.85Y-96.25
X79.5Y-123.5
X79.545Y-121.205
X79.797Y-122.552
X79.918Y-111.329
X80.0Y-112.125
X80.111Y-110.553
X81.439Y-64.0
X82.039Y-75.0
X82.039Y-95.25
X82.639Y-98.25
X82.81Y-70.279
X83.24Y-97.5
X83.737Y-60.597
X84.24Y-68.0
X84.485Y-111.837
X84.557Y-112.633
X84.59Y-110.883
X85.156Y-99.0
X85.157Y-113.257
X85.686Y-69.5
X85.757Y-113.953
X86.5Y-114.25
X87.136Y-114.75
X87.75Y-98.75
X88.0Y-69.0
X88.0Y-115.0
X88.5Y-64.0
X90.5Y-60.5
X90.8Y-96.85
X91.5Y-98.75
X92.25Y-95.25
X93.0Y-68.0
X93.009Y-95.503
X94.0Y-95.15
X94.461Y-70.201
X94.5Y-96.35
X95.1Y-98.1
X95.24Y-67.5
X95.316Y-96.35
X95.75Y-97.55
X96.5Y-100.051
X96.523Y-97.756
X96.945Y-69.6
X97.25Y-98.85
X97.5Y-64.0
X97.82Y-97.55
X97.82Y-99.411
X98.18Y-61.1
X98.915Y-136.25
X99.0Y-69.1
X99.12Y-99.0
X99.295Y-87.75
X99.596Y-98.15
X100.066Y-134.499
X100.174Y-123.674
X100.396Y-98.15
X100.5Y-89.9
X100.72Y-66.75
X101.75Y-61.1
X101.759Y-88.0
X102.25Y-66.1
X102.25Y-120.5
X102.285Y-114.535
X102.375Y-115.375
X102.5Y-122.505
X102.547Y-121.703
X102.572Y-119.622
X102.936Y-98.6
X104.037Y-99.072
X104.115Y-68.1
X104.299Y-88.5
X104.963Y-95.15
X105.0Y-64.846
X105.4Y-80.5
X105.4Y-85.6
X105.885Y-96.95
X106.0Y-65.5
X106.0Y-95.25
X106.781Y-67.6
X106.839Y-88.9
X107.223Y-96.345
X107.604Y-60.5
X108.0Y-97.25
X108.204Y-64.221
X108.25Y-134.15
X108.626Y-97.748
X109.118Y-63.25
X109.35Y-98.472
X109.88Y-60.75
X110.48Y-63.45
X111.08Y-66.7
X111.22Y-105.0
X111.25Y-113.85
X111.82Y-110.0
X112.15Y-66.1
X112.5Y-107.0
X112.5Y-113.35
X113.1Y-61.35
X113.4Y-110.6
X113.989Y-60.02
X114.0Y-113.1
X114.099Y-109.0
X114.12Y-63.0
X114.615Y-59.521
X114.96Y-65.5
X115.0Y-111.2
X115.56Y-61.751
X116.0Y-112.6
X116.66Y-62.351
X117.0Y-112.1
X117.5Y-64.221
X119.0Y-108.0
X119.0Y-113.75
X119.201Y-63.6
X120.38Y-62.951
X121.0Y-137.0
X121.531Y-62.351
X122.5Y-58.405
X122.77Y-101.8
X122.85Y-91.7
X123.25Y-89.9
X123.25Y-113.35
X123.434Y-91.1
X123.75Y-63.25
X124.039Y-90.5
X124.206Y-61.751
X125.25Y-77.5
X125.46Y-61.35
X125.877Y-110.802
X126.25Y-101.82
X126.5Y-111.402
X126.797Y-60.75
X127.365Y-112.002
X130.0Y-111.5
X130.2Y-94.2
X130.25Y-86.4
X130.5Y-108.0
X132.0Y-89.0
X132.5Y-134.5
X132.566Y-88.434
X133.1Y-132.5
X133.131Y-87.869
X133.697Y-87.303
X133.7Y-129.5
X134.3Y-127.0
T2
X57.0Y-57.0
X57.0Y-101.6
X57.0Y-116.0
X65.5Y-75.775
X74.2Y-116.0
X74.2Y-117.25
X77.0Y-72.5
X79.75Y-84.0
X79.75Y-88.5
X79.835Y-62.208
X83.75Y-115.899
X84.257Y-116.761
X85.25Y-88.75
X92.25Y-116.75
X93.0Y-117.5
X102.5Y-116.5
X102.5Y-117.5
X119.75Y-101.75
X120.25Y-104.25
X124.145Y-103.925
X125.0Y-143.15
X125.25Y-102.52
X126.5Y-105.75
X131.0Y-73.645
X131.1Y-46.85
X136.75Y-90.211
X137.75Y-91.5
X140.5Y-137.5
X141.0Y-118.5
X142.0Y-121.0
X142.0Y-139.5
X151.75Y-112.0
X152.5Y-62.0
X153.15Y-72.25
T3
X114.25Y-118.0
X114.25Y-119.9
T4
X66.04Y-101.6
X66.04Y-104.14
X66.04Y-106.68
X66.04Y-109.22
X66.04Y-111.76
X66.04Y-114.3
X80.0Y-58.405
X80.0Y-73.645
X82.54Y-58.405
X82.54Y-73.645
X85.08Y-58.405
X85.08Y-73.645
X85.156Y-78.51
X85.156Y-93.75
X87.62Y-58.405
X87.62Y-73.645
X87.697Y-78.51
X87.697Y-93.75
X90.16Y-58.405
X90.16Y-73.645
X90.236Y-78.51
X90.236Y-93.75
X92.7Y-58.405
X92.7Y-73.645
X92.776Y-78.51
X92.776Y-93.75
X95.24Y-58.405
X95.24Y-73.645
X95.316Y-78.51
X95.316Y-93.75
X97.78Y-58.405
X97.78Y-73.645
X97.856Y-78.51
X97.856Y-93.75
X100.32Y-58.405
X100.32Y-73.645
X100.396Y-78.51
X100.396Y-93.75
X102.86Y-58.405
X102.86Y-73.645
X102.936Y-78.51
X102.936Y-93.75
X105.4Y-58.405
X105.4Y-73.645
X105.477Y-78.51
X105.477Y-93.75
X107.94Y-58.405
X107.94Y-73.645
X108.016Y-78.51
X108.016Y-93.75
X110.48Y-58.405
X110.48Y-73.645
X110.556Y-78.51
X110.556Y-93.75
X112.12Y-128.769
X113.02Y-58.405
X113.02Y-73.645
X113.096Y-78.51
X113.096Y-93.75
X115.56Y-58.405
X115.56Y-73.645
X115.636Y-78.51
X115.636Y-93.75
X117.0Y-128.769
X118.1Y-58.405
X118.1Y-73.645
X118.176Y-78.51
X118.176Y-93.75
X128.665Y-91.66
X128.665Y-94.2
X128.665Y-96.74
X128.665Y-99.28
X128.665Y-101.82
X128.665Y-104.36
X128.665Y-106.9
X128.665Y-109.44
X128.665Y-111.98
X128.665Y-114.52
X128.665Y-117.06
X128.665Y-119.6
X128.665Y-122.14
X128.665Y-124.68
X128.665Y-127.22
X128.665Y-129.76
X128.665Y-132.3
X128.665Y-134.84
X128.665Y-137.38
X128.665Y-139.92
X143.905Y-91.66
X143.905Y-94.2
X143.905Y-96.74
X143.905Y-99.28
X143.905Y-101.82
X143.905Y-104.36
X143.905Y-106.9
X143.905Y-109.44
X143.905Y-111.98
X143.905Y-114.52
X143.905Y-117.06
X143.905Y-119.6
X143.905Y-122.14
X143.905Y-124.68
X143.905Y-127.22
X143.905Y-129.76
X143.905Y-132.3
X143.905Y-134.84
X143.905Y-137.38
X143.905Y-139.92
X149.0Y-58.0
X149.0Y-66.0
X151.5Y-58.0
X151.5Y-66.0
T5
X57.71Y-84.25
X60.25Y-84.25
X62.79Y-84.25
T6
X58.0Y-74.5
X60.0Y-59.0
X60.0Y-61.54
X60.0Y-64.08
X60.0Y-66.62
X60.0Y-105.0
X60.0Y-107.54
X60.0Y-110.08
X60.0Y-112.62
X60.54Y-74.5
X62.54Y-59.0
X62.54Y-61.54
X62.54Y-64.08
X62.54Y-66.62
X63.08Y-74.5
X65.75Y-119.6
X65.75Y-122.14
X65.75Y-124.68
X65.75Y-127.22
X65.75Y-129.76
X65.75Y-132.3
X67.04Y-49.5
X67.04Y-52.04
X67.1Y-138.4
X67.1Y-140.94
X69.58Y-49.5
X69.58Y-52.04
X69.64Y-138.4
X69.64Y-140.94
X72.12Y-49.5
X72.12Y-52.04
X72.18Y-138.4
X72.18Y-140.94
X74.66Y-49.5
X74.66Y-52.04
X74.72Y-138.4
X74.72Y-140.94
X77.2Y-49.5
X77.2Y-52.04
X77.26Y-138.4
X77.26Y-140.94
X79.0Y-77.96
X79.0Y-80.5
X79.74Y-49.5
X79.74Y-52.04
X82.28Y-49.5
X82.28Y-52.04
X84.82Y-49.5
X84.82Y-52.04
X87.36Y-49.5
X87.36Y-52.04
X89.9Y-49.5
X89.9Y-52.04
X89.906Y-138.4
X89.906Y-140.94
X92.44Y-49.5
X92.44Y-52.04
X92.446Y-138.4
X92.446Y-140.94
X94.98Y-49.5
X94.98Y-52.04
X94.986Y-138.4
X94.986Y-140.94
X97.52Y-49.5
X97.52Y-52.04
X97.526Y-138.4
X97.526Y-140.94
X100.06Y-49.5
X100.06Y-52.04
X100.066Y-138.4
X100.066Y-140.94
X102.6Y-49.5
X102.6Y-52.04
X105.14Y-49.5
X105.14Y-52.04
X107.68Y-49.5
X107.68Y-52.04
X110.22Y-49.5
X110.22Y-52.04
X112.76Y-49.5
X112.76Y-52.04
X112.815Y-138.4
X112.815Y-140.94
X115.3Y-49.5
X115.3Y-52.04
X115.355Y-138.4
X115.355Y-140.94
X117.84Y-49.5
X117.84Y-52.04
X117.895Y-138.4
X117.895Y-140.94
X120.38Y-49.5
X120.38Y-52.04
X120.435Y-138.4
X120.435Y-140.94
X122.92Y-49.5
X122.92Y-52.04
X122.975Y-138.4
X122.975Y-140.94
X125.46Y-49.5
X125.46Y-52.04
X128.0Y-49.5
X128.0Y-52.04
X143.92Y-76.5
X143.975Y-86.75
X146.46Y-76.5
X146.515Y-86.75
X148.25Y-92.3
X148.25Y-94.84
X148.25Y-97.38
X148.25Y-99.92
X148.25Y-102.46
X148.25Y-105.0
X148.25Y-107.54
X148.25Y-118.01
X148.25Y-120.55
X148.25Y-123.09
X148.25Y-125.63
X148.25Y-128.17
X148.25Y-130.71
X148.25Y-133.25
X149.0Y-76.5
X149.055Y-86.75
X150.79Y-92.3
X150.79Y-94.84
X150.79Y-97.38
X150.79Y-99.92
X150.79Y-102.46
X150.79Y-105.0
X150.79Y-107.54
X150.79Y-118.01
X150.79Y-120.55
X150.79Y-123.09
X150.79Y-125.63
X150.79Y-128.17
X150.79Y-130.71
X150.79Y-133.25
T7
X57.75Y-90.0
X57.75Y-96.5
X62.25Y-90.0
X62.25Y-96.5
X139.34Y-81.0
X149.5Y-81.0
T6
G00X135.957Y-55.34
M15
G01X135.957Y-57.34
M16
G05
G00X141.657Y-53.34
M15
G01X139.657Y-53.34
M16
G05
G00X141.657Y-59.34
M15
G01X139.657Y-59.34
M16
G05
M30
